<?xml version="1.0" encoding="UTF-8" standalone="no"?>
<!-- Created with Inkscape (http://www.inkscape.org/) -->

<svg
   xmlns:dc="http://purl.org/dc/elements/1.1/"
   xmlns:cc="http://creativecommons.org/ns#"
   xmlns:rdf="http://www.w3.org/1999/02/22-rdf-syntax-ns#"
   xmlns:svg="http://www.w3.org/2000/svg"
   xmlns="http://www.w3.org/2000/svg"
   xmlns:sodipodi="http://sodipodi.sourceforge.net/DTD/sodipodi-0.dtd"
   xmlns:inkscape="http://www.inkscape.org/namespaces/inkscape"
   id="svg2"
   version="1.1"
   inkscape:version="0.48.4 r9939"
   width="30"
   height="30"
   xml:space="preserve"
   sodipodi:docname="puppet-30-a.svg"
   inkscape:export-filename="/home/chrism/Documents/CloudBolt/puppet_icons/puppet-30.png"
   inkscape:export-xdpi="90"
   inkscape:export-ydpi="90"><metadata
     id="metadata8"><rdf:RDF><cc:Work
         rdf:about=""><dc:format>image/svg+xml</dc:format><dc:type
           rdf:resource="http://purl.org/dc/dcmitype/StillImage" /><dc:title></dc:title></cc:Work></rdf:RDF></metadata><defs
     id="defs6"><clipPath
       clipPathUnits="userSpaceOnUse"
       id="clipPath16"><path
         d="M 0,800 800,800 800,0 0,0 0,800 z"
         id="path18"
         inkscape:connector-curvature="0" /></clipPath></defs><sodipodi:namedview
     pagecolor="#ffffff"
     bordercolor="#666666"
     borderopacity="1"
     objecttolerance="10"
     gridtolerance="10"
     guidetolerance="10"
     inkscape:pageopacity="0"
     inkscape:pageshadow="2"
     inkscape:window-width="1440"
     inkscape:window-height="841"
     id="namedview4"
     showgrid="true"
     inkscape:zoom="20"
     inkscape:cx="8.65"
     inkscape:cy="15"
     inkscape:window-x="0"
     inkscape:window-y="27"
     inkscape:window-maximized="1"
     inkscape:current-layer="g3032"><inkscape:grid
       type="xygrid"
       id="grid3080"
       empspacing="5"
       visible="true"
       enabled="true"
       snapvisiblegridlinesonly="true" /></sodipodi:namedview><g
     id="g10"
     inkscape:groupmode="layer"
     inkscape:label="PL_logo_vertical_RGB"
     transform="matrix(1.25,0,0,-1.25,0,30)"><g
       id="g12"
       transform="matrix(0.20641013,0,0,0.20641013,-35.091355,-38.888506)"><g
         id="g14"
         clip-path="url(#clipPath16)"><g
           id="g3032"
           transform="matrix(0.22885259,0,0,0.22885259,132.47099,146.65713)"><g
             id="g3120"
             transform="matrix(1.5429254,0,0,1.5429254,-211.27018,-365.68939)"><g
               id="g20"
               transform="translate(365.5347,575.8506)"><path
                 d="m 0,0 -105.002,-181.655 c -0.821,-1.416 -1.49,-2.922 -1.973,-4.466 l -0.372,-1.194 0.525,-1.144 8.281,-17.986 0.537,-1.169 1.204,-0.484 c 1.199,-0.482 2.37,-0.774 3.356,-0.991 l 2.318,-0.515 1.197,2.041 6.708,11.422 4.329,7.65 L 26.999,-5.081 29.81,0 0,0 z"
                 style="fill:#2f2b6e;fill-opacity:1;fill-rule:nonzero;stroke:none"
                 id="path22"
                 inkscape:connector-curvature="0" /></g><g
               id="g24"
               transform="translate(430.5674,609.7285)"><path
                 d="m 0,0 -4.795,-32.797 0,-10.94 95.134,-164.775 30.049,0 L 0,0 z"
                 style="fill:#7d65ab;fill-opacity:1;fill-rule:nonzero;stroke:none"
                 id="path26"
                 inkscape:connector-curvature="0" /></g><g
               id="g28"
               transform="translate(557.3047,388.4717)"><path
                 d="m 0,0 c -0.114,0.457 -0.261,0.89 -0.413,1.328 l -0.108,0.311 -0.75,2.211 -2.332,0 -21.975,-0.082 -232.135,0 c -4.011,-6.729 -10.899,-18.343 -15.45,-26.024 l 254.732,0 0.006,0 c 2.98,0.006 5.823,0.591 8.46,1.754 l 1.099,0.476 0.527,1.08 8.108,16.766 0.498,1.049 L 0,0 z"
                 style="fill:#f0a72e;fill-opacity:1;fill-rule:nonzero;stroke:none"
                 id="path30"
                 inkscape:connector-curvature="0" /></g><g
               id="g32"
               transform="translate(453.4775,540.7969)"><path
                 d="m 0,0 -5.464,5.063 -21.138,19.592 -1.042,0.968 0,1.423 0,98.032 0,3.253 3.252,0 21.139,0 3.253,0 0,-3.253 L 0,7.451 0,0 z"
                 style="fill:#7d65ab;fill-opacity:1;fill-rule:nonzero;stroke:none"
                 id="path34"
                 inkscape:connector-curvature="0" /></g><g
               id="g36"
               transform="translate(394.4609,629.7041)"><path
                 d="m 0,0 0,32.193 -16.422,0 0,-13.532 L 0,0 z"
                 style="fill:#7d65ab;fill-opacity:1;fill-rule:nonzero;stroke:none"
                 id="path38"
                 inkscape:connector-curvature="0" /></g><g
               id="g40"
               transform="translate(355.7534,673.5537)"><path
                 d="m 0,0 22.622,-25.706 73.324,0 0.908,1.767 L 110.746,0 0,0 z"
                 style="fill:#7d65ab;fill-opacity:1;fill-rule:nonzero;stroke:none"
                 id="path42"
                 inkscape:connector-curvature="0" /></g><g
               id="g44"
               transform="translate(396.2197,428.8789)"><path
                 d="m 0,0 c 0,0 -11.714,-8.686 -19.892,-6.29 0,0 40.421,-40.554 82.618,-1.602 0,0 14.13,16.361 13.465,28.261 l -5.534,1.505 c 0,0 -7.716,-38.323 -48.207,-33.577 0,0 -10.248,2.281 -22.45,11.703"
                 style="fill:#f0a72e;fill-opacity:1;fill-rule:nonzero;stroke:none"
                 id="path46"
                 inkscape:connector-curvature="0" /></g><g
               id="g48"
               transform="translate(384.0654,482.9023)"><path
                 d="m 0,0 c 0,0 -1.323,14.523 4.989,20.253 0,0 -55.68,-13.367 -44.411,-69.683 0,0 6.604,-20.591 17.103,-26.22 l 4.176,3.933 c 0,0 -28.692,26.55 -3.553,58.648 0,0 7.284,7.56 21.696,13.069"
                 style="fill:#2f2b6e;fill-opacity:1;fill-rule:nonzero;stroke:none"
                 id="path50"
                 inkscape:connector-curvature="0" /></g><g
               id="g52"
               transform="translate(437.5547,467.1377)"><path
                 d="m 0,0 c 0,0 13.439,-5.679 15.536,-13.944 0,0 14.42,55.42 -40.554,71.996 0,0 -21.279,3.869 -31.19,-2.751 l 1.512,-5.533 c 0,0 36.927,12.807 53.402,-24.48 0,0 3.233,-9.981 1.294,-25.288"
                 style="fill:#7d65ab;fill-opacity:1;fill-rule:nonzero;stroke:none"
                 id="path54"
                 inkscape:connector-curvature="0" /></g><g
               id="g56"
               transform="translate(417.4766,487.2988)"><path
                 d="m 0,0 c -4.794,-5.356 -13.014,-5.814 -18.369,-1.029 -5.356,4.789 -5.823,13.023 -1.032,18.373 4.794,5.349 13.016,5.807 18.372,1.029 C 4.33,13.583 4.781,5.361 0,0"
                 style="fill:#7d65ab;fill-opacity:1;fill-rule:nonzero;stroke:none"
                 id="path58"
                 inkscape:connector-curvature="0" /></g><g
               id="g60"
               transform="translate(383.3271,434.2734)"><path
                 d="m 0,0 c -4.787,-5.363 -13.007,-5.826 -18.359,-1.036 -5.36,4.797 -5.819,13.012 -1.027,18.368 4.783,5.356 13.007,5.826 18.368,1.029 C 4.332,13.576 4.788,5.35 0,0"
                 style="fill:#2f2b6e;fill-opacity:1;fill-rule:nonzero;stroke:none"
                 id="path62"
                 inkscape:connector-curvature="0" /></g><g
               id="g64"
               transform="translate(444.9707,431.751)"><path
                 d="m 0,0 c -4.784,-5.35 -13.002,-5.819 -18.354,-1.036 -5.364,4.797 -5.824,13.018 -1.037,18.374 4.791,5.356 13.012,5.819 18.374,1.029 C 4.34,13.577 4.786,5.348 0,0"
                 style="fill:#f0a72e;fill-opacity:1;fill-rule:nonzero;stroke:none"
                 id="path66"
                 inkscape:connector-curvature="0" /></g></g></g></g></g></g></svg>