<?xml version="1.0" encoding="utf-8"?>
<!-- Generator: Adobe Illustrator 24.1.2, SVG Export Plug-In . SVG Version: 6.00 Build 0)  -->
<svg version="1.1" xmlns="http://www.w3.org/2000/svg" xmlns:xlink="http://www.w3.org/1999/xlink" x="0px" y="0px"
	 viewBox="0 0 190 190" style="enable-background:new 0 0 190 190;" xml:space="preserve">
<style type="text/css">
	.st0{display:none;}
	.st1{display:inline;fill:#185B8B;}
	.st2{display:inline;fill:url(#SVGID_1_);}
	.st3{display:inline;}
	.st4{fill:url(#SVGID_2_);}
	.st5{fill:url(#SVGID_3_);}
	.st6{fill:url(#SVGID_4_);}
	.st7{display:inline;fill-rule:evenodd;clip-rule:evenodd;fill:url(#SVGID_5_);}
	.st8{fill:url(#SVGID_6_);}
	.st9{display:inline;fill:url(#SVGID_7_);}
	.st10{display:inline;fill:url(#SVGID_8_);}
	.st11{display:inline;fill:url(#SVGID_9_);}
	.st12{display:inline;fill:url(#SVGID_10_);}
	.st13{display:inline;fill:url(#SVGID_11_);}
	.st14{display:inline;fill:url(#SVGID_12_);}
	.st15{fill:url(#SVGID_13_);}
	.st16{fill:url(#SVGID_14_);}
	.st17{display:inline;fill:url(#SVGID_15_);}
	.st18{display:inline;fill:url(#SVGID_16_);}
	.st19{display:inline;fill:url(#SVGID_17_);}
	.st20{display:inline;fill:url(#SVGID_18_);}
	.st21{display:inline;fill:url(#SVGID_19_);}
	.st22{display:inline;fill:url(#SVGID_20_);}
	.st23{display:inline;fill:url(#SVGID_21_);}
	.st24{display:inline;fill:url(#SVGID_22_);}
	.st25{display:inline;fill:url(#SVGID_23_);}
	.st26{display:inline;fill:url(#SVGID_24_);}
	.st27{display:inline;fill:url(#SVGID_25_);}
	.st28{display:inline;fill:url(#SVGID_26_);}
	.st29{display:inline;fill:url(#SVGID_27_);}
	.st30{display:inline;fill:url(#SVGID_28_);}
	.st31{display:inline;fill:url(#SVGID_29_);}
	.st32{fill:url(#SVGID_30_);}
	.st33{fill:url(#SVGID_31_);}
	.st34{fill:url(#SVGID_32_);}
	.st35{fill:url(#SVGID_33_);}
	.st36{fill:url(#SVGID_34_);}
	.st37{display:inline;fill:url(#SVGID_35_);}
	.st38{display:inline;fill:url(#SVGID_36_);}
	.st39{display:inline;fill:url(#SVGID_37_);}
	.st40{fill:url(#SVGID_38_);}
	.st41{fill:url(#SVGID_39_);}
	.st42{fill:url(#SVGID_40_);}
	.st43{fill:url(#SVGID_41_);}
	.st44{fill:url(#SVGID_42_);}
	.st45{fill:url(#SVGID_43_);}
	.st46{display:inline;fill:url(#SVGID_44_);}
	.st47{display:inline;fill:url(#SVGID_45_);}
	.st48{display:inline;fill:url(#SVGID_46_);}
	.st49{fill:url(#SVGID_47_);}
	.st50{fill:url(#SVGID_48_);}
	.st51{fill:url(#SVGID_49_);}
	.st52{fill:url(#SVGID_50_);}
	.st53{fill:url(#SVGID_51_);}
	.st54{fill:url(#SVGID_52_);}
	.st55{fill:url(#SVGID_53_);}
	.st56{fill:url(#SVGID_54_);}
	.st57{fill:url(#SVGID_55_);}
</style>
<g id="Layer_1" class="st0">
	<path class="st1" d="M122.9,99.7c-1.6,0-3.2-0.7-4.3-2c-2-2.3-1.6-5.9,0.5-7.9l7-7c0.7-0.7,0.7-1.6,0-2.3l-7-7
		c-2-2-2.5-5.4-0.7-7.7c2.3-2.7,6.1-2.7,8.3-0.5l12.4,12.4c1.1,1.1,1.6,2.5,1.6,4.1c0,1.6-0.7,2.9-1.6,4.1l-12.4,12.4
		C125.6,99.3,124.3,99.7,122.9,99.7z"/>
	<path class="st1" d="M67.1,99.7c-1.4,0-2.9-0.5-4.1-1.6L50.8,86c-1.1-1.1-1.6-2.5-1.6-4.1c0-1.6,0.7-2.9,1.6-4.1L63,65.7
		c2-2,5.4-2.5,7.7-0.7c2.7,2.3,2.7,6.1,0.5,8.3l-7.2,7.2c-0.7,0.7-0.7,1.6,0,2.3l7,7c2,2,2.5,5.6,0.5,7.9
		C70.2,99.1,68.6,99.7,67.1,99.7z"/>
	<path class="st1" d="M87.6,108.3c-0.7,0-1.4,0-1.8-0.2c-2.9-1.1-4.5-4.3-3.4-7.2l14.9-41.5c1.1-2.9,4.3-4.5,7.2-3.4
		c2.9,1.1,4.5,4.3,3.4,7.2L93,104.7C92.1,106.7,89.8,108.3,87.6,108.3z"/>
	<linearGradient id="SVGID_1_" gradientUnits="userSpaceOnUse" x1="1.6037" y1="41.0776" x2="188.3963" y2="148.9224">
		<stop  offset="0" style="stop-color:#4099F1"/>
		<stop  offset="0.3333" style="stop-color:#3182CB"/>
		<stop  offset="0.7769" style="stop-color:#1F669D"/>
		<stop  offset="1" style="stop-color:#185B8B"/>
	</linearGradient>
	<path class="st2" d="M171.2,15H18.8c-2,0-3.8,1.8-3.8,3.8v152.3c0,2,1.8,3.8,3.8,3.8h152.3c2,0,3.8-1.8,3.8-3.8V18.8
		C175,16.8,173.2,15,171.2,15z M70.2,24c2.7,0,4.7,2,4.7,4.7c0,2.7-2,4.7-4.7,4.7c-2.7,0-4.7-2-4.7-4.7C65.5,26,67.5,24,70.2,24z
		 M50.2,24c2.7,0,4.7,2,4.7,4.7c0,2.7-2,4.7-4.7,4.7c-2.5,0-4.7-2-4.7-4.7C45.4,26,47.7,24,50.2,24z M30.3,24c2.7,0,4.7,2,4.7,4.7
		c0,2.7-2,4.7-4.7,4.7s-4.7-2-4.7-4.7C25.6,26,27.6,24,30.3,24z M26.3,159.9V51.1c0-2,1.8-3.8,3.8-3.8h129.8c2,0,3.8,1.8,3.8,3.8
		v66.5c-0.2,0-0.2-0.2-0.5-0.2c-0.9-0.2-1.4-1.1-1.4-1.8v-7.9c0-1.1-0.9-2-2-2h-13.1c-1.1,0-2,0.9-2,2v7.9c0,0.9-0.7,1.6-1.4,1.8
		c-1.8,0.5-3.4,1.4-5,2c-0.7,0.5-1.8,0.2-2.3-0.2l-5.2-5c-1.4-1.4-2.5-1.4-3.4-0.5l-9.2,9.2c-0.9,0.9-0.9,2,0,2.9l5.4,5.4
		c0.7,0.7,0.7,1.6,0.5,2.3c-0.9,1.6-1.6,3.4-2,5c-0.2,0.9-1.1,1.6-2,1.6h-7.9c-1.1,0-2,0.9-2,2v13.1c0,1.1,0.9,2,2,2h7.9
		c0.9,0,1.6,0.7,1.8,1.4c0.2,0.9,0.7,2,1.1,2.9c0.5,1.1-0.5,2.5-1.6,2.5H30.1C28.1,163.7,26.3,161.9,26.3,159.9z M159.9,163.7H141
		c-0.7,0-1.4-0.2-1.8-0.7c-4.3-4.3-6.8-10.6-5.9-17.4c1.1-8.8,8.3-16,17.1-17.4c5-0.7,9.7,0.2,13.5,2.7v28.8
		C163.7,161.9,161.9,163.7,159.9,163.7z"/>
</g>
<g id="Layer_2" class="st0">
	<g class="st3">
		<linearGradient id="SVGID_2_" gradientUnits="userSpaceOnUse" x1="15" y1="81.6516" x2="29.9864" y2="81.6516">
			<stop  offset="0" style="stop-color:#4099F1"/>
			<stop  offset="0.3333" style="stop-color:#3182CB"/>
			<stop  offset="0.7769" style="stop-color:#1F669D"/>
			<stop  offset="1" style="stop-color:#185B8B"/>
		</linearGradient>
		<path class="st4" d="M30,26.3v107.5H24c-3.3,0-6.5,1.1-9,3.2V35.4c0-5,4.1-9,9-9H30z"/>
		<linearGradient id="SVGID_3_" gradientUnits="userSpaceOnUse" x1="160.0136" y1="81.6697" x2="175" y2="81.6697">
			<stop  offset="0" style="stop-color:#4099F1"/>
			<stop  offset="0.3333" style="stop-color:#3182CB"/>
			<stop  offset="0.7769" style="stop-color:#1F669D"/>
			<stop  offset="1" style="stop-color:#185B8B"/>
		</linearGradient>
		<path class="st5" d="M175,35.4V137c-2.5-2-5.6-3.2-9-3.2H160V26.3h5.9C170.9,26.3,175,30.4,175,35.4z"/>
		<linearGradient id="SVGID_4_" gradientUnits="userSpaceOnUse" x1="15.0181" y1="103.5973" x2="175" y2="103.5973">
			<stop  offset="0" style="stop-color:#4099F1"/>
			<stop  offset="0.3333" style="stop-color:#3182CB"/>
			<stop  offset="0.7769" style="stop-color:#1F669D"/>
			<stop  offset="1" style="stop-color:#185B8B"/>
		</linearGradient>
		<path class="st6" d="M175,148.1c-0.1-4.5-3.5-8.1-7.7-8.7c-0.4-0.1-0.9-0.1-1.3-0.1h-11.4V43.5H35.4v95.7H24c-0.4,0-0.9,0-1.3,0.1
			c-1.9,0.3-3.7,1.2-5.1,2.6c-1.6,1.7-2.6,3.8-2.6,6.2c0,0.1,0,0.1,0,0.2c0,8.5,6.9,15.4,15.4,15.4h129.2c8.5,0,15.4-6.9,15.4-15.4
			C175,148.2,175,148.2,175,148.1z M88.1,138.7h-7.2v-7.2h7.2V138.7z M88.1,126.6h-7.2V120h7.2V126.6z M102.3,138.7h-7.1v-7.2h7.1
			V138.7z M108.2,116H60.1V67.9h48.1V116z M116.5,138.7h-7.1v-7.2h7.1V138.7z M118.8,96h-7v-7.2h7V96z M130.8,138.7h-7.2v-7.2h7.2
			V138.7z M130.8,124.3h-7.2v-7.1h7.2V124.3z M130.8,110.2h-7.2v-7.1h7.2V110.2z M130.8,96h-7.2v-7.2h7.2V96z"/>
	</g>
</g>
<g id="Layer_3" class="st0">
	<linearGradient id="SVGID_5_" gradientUnits="userSpaceOnUse" x1="27.3077" y1="95" x2="162.6923" y2="95">
		<stop  offset="0" style="stop-color:#4099F1"/>
		<stop  offset="0.3333" style="stop-color:#3182CB"/>
		<stop  offset="0.7769" style="stop-color:#1F669D"/>
		<stop  offset="1" style="stop-color:#185B8B"/>
	</linearGradient>
	<path class="st7" d="M70.4,15c-3.4,0-6.2,2.8-6.2,6.2v18.5c0,3.4,2.8,6.2,6.2,6.2h49.2c3.4,0,6.2-2.8,6.2-6.2V21.2
		c0-3.4-2.8-6.2-6.2-6.2H70.4z M64.2,51.9c-3.4,0-6.2-2.8-6.2-6.2v-6.2c0-3.4-2.8-6.2-6.2-6.2H33.5c-3.4,0-6.2,2.8-6.2,6.2v129.2
		c0,3.4,2.8,6.2,6.2,6.2h123.1c3.4,0,6.2-2.8,6.2-6.2V39.6c0-3.4-2.8-6.2-6.2-6.2h-18.5c-3.4,0-6.2,2.8-6.2,6.2v6.2
		c0,3.4-2.8,6.2-6.2,6.2H64.2z M68.6,99.4l14.1-14.1c2.4-2.4,2.4-6.3,0-8.7l0,0c-2.4-2.4-6.3-2.4-8.7,0l-5.8,5.8
		c-2.2,2.2-5.8,2.2-8,0l0,0c-2.2-2.2-5.8-2.2-8,0l-0.4,0.4c-2.4,2.4-2.4,6.3,0,8.7l8,8C62.3,101.8,66.2,101.8,68.6,99.4z
		 M82.7,119.6c2.4,2.4,2.4,6.3,0,8.7l-14.1,14.1c-2.4,2.4-6.3,2.4-8.7,0l-8-8c-2.4-2.4-2.4-6.3,0-8.7l0.4-0.4c2.2-2.2,5.8-2.2,8,0
		l0,0c2.2,2.2,5.8,2.2,8,0l5.8-5.8C76.4,117.2,80.3,117.2,82.7,119.6L82.7,119.6z M113.5,82.7c-3.4,0-6.2,2.8-6.2,6.2l0,0
		c0,3.4,2.8,6.2,6.2,6.2h24.6c3.4,0,6.2-2.8,6.2-6.2l0,0c0-3.4-2.8-6.2-6.2-6.2H113.5z M138.1,125.8c3.4,0,6.2,2.8,6.2,6.2l0,0
		c0,3.4-2.8,6.2-6.2,6.2h-24.6c-3.4,0-6.2-2.8-6.2-6.2l0,0c0-3.4,2.8-6.2,6.2-6.2H138.1z"/>
</g>
<g id="Layer_4" class="st0">
	<g class="st3">
		<linearGradient id="SVGID_6_" gradientUnits="userSpaceOnUse" x1="17.5813" y1="95" x2="172.4187" y2="95">
			<stop  offset="0" style="stop-color:#4099F1"/>
			<stop  offset="0.3333" style="stop-color:#3182CB"/>
			<stop  offset="0.7769" style="stop-color:#1F669D"/>
			<stop  offset="1" style="stop-color:#185B8B"/>
		</linearGradient>
		<path class="st8" d="M63.7,23.7h-8.1V19c0-2.2,1.8-4,4-4c2.2,0,4,1.8,4,4V23.7z M115,19c0-2.2-1.8-4-4-4s-4,1.8-4,4v4.7h8.1V19z
			 M172.4,144.5c0,16.8-13.6,30.4-30.4,30.5c-11.1,0-21.3-6-26.7-15.7H37.7c-11.1,0-20.1-9-20.1-20.1V43.8c0-11.1,9-20.1,20.1-20.1
			h18v12.9c0,2.2,1.8,4,4,4c2.2,0,4-1.8,4-4V23.7h43.2v12.9c0,2.2,1.8,4,4,4s4-1.8,4-4V23.7h18c11.1,0,20.1,9,20.1,20.1v72.4
			C164.7,120.8,172.4,132,172.4,144.5z M112.3,151.2c-0.6-2.2-0.8-4.4-0.8-6.7c0-16.8,13.6-30.4,30.5-30.5c1,0,2,0.1,3.1,0.2V60.2
			H25.6v78.9c0,6.7,5.4,12.1,12.1,12.1l0,0H112.3z M164.4,144.5c0-9.7-6.3-18.3-15.5-21.3c-0.1,0-0.2,0-0.2-0.1l-1.1-0.2
			c-1.8-0.5-3.7-0.7-5.6-0.7c-12.4,0-22.4,10-22.4,22.4c0,3,0.6,6,1.8,8.7c4.8,11.4,17.9,16.7,29.3,11.9
			C159,161.7,164.4,153.6,164.4,144.5z M53.1,77.7h-3.9c-2.2,0-4,1.8-4,4s1.8,4,4,4h3.9c2.2,0,4-1.8,4-4S55.3,77.7,53.1,77.7z
			 M71.4,85.7h50.1c2.2,0,4-1.8,4-4s-1.8-4-4-4H71.4c-2.2,0-4,1.8-4,4S69.2,85.7,71.4,85.7z M53.1,101.7h-3.9c-2.2,0-4,1.8-4,4
			s1.8,4,4,4h3.9c2.2,0,4-1.8,4-4S55.3,101.7,53.1,101.7z M71.4,109.7h50.1c2.2,0,4-1.8,4-4s-1.8-4-4-4H71.4c-2.2,0-4,1.8-4,4
			S69.2,109.7,71.4,109.7z M53.1,125.7h-3.9c-2.2,0-4,1.8-4,4c0,2.2,1.8,4,4,4h3.9c2.2,0,4-1.8,4-4
			C57.1,127.5,55.3,125.7,53.1,125.7z M102.2,125.7H71.4c-2.2,0-4,1.8-4,4c0,2.2,1.8,4,4,4h30.8c2.2,0,4-1.8,4-4
			C106.2,127.5,104.4,125.7,102.2,125.7L102.2,125.7z M142,128.5c-2.2,0-4,1.8-4,4v9.3l-4.8,1.9c-2.1,0.8-3.1,3.1-2.3,5.2
			s3.1,3.1,5.2,2.3l0,0l7.4-2.9c1.5-0.6,2.6-2.1,2.6-3.8v-12.1C146,130.2,144.2,128.4,142,128.5C142,128.4,142,128.4,142,128.5
			L142,128.5z"/>
	</g>
</g>
<g id="Layer_5" class="st0">
	<linearGradient id="SVGID_7_" gradientUnits="userSpaceOnUse" x1="15" y1="95" x2="175" y2="95">
		<stop  offset="0" style="stop-color:#4099F1"/>
		<stop  offset="0.3333" style="stop-color:#3182CB"/>
		<stop  offset="0.7769" style="stop-color:#1F669D"/>
		<stop  offset="1" style="stop-color:#185B8B"/>
	</linearGradient>
	<path class="st9" d="M170,21.9H20c-2.8,0-5,2.2-5,5v123.7c0,2.8,2.2,5,5,5h45.5c15.8,16.3,41.8,16.7,58.2,0.9
		c0.3-0.3,0.6-0.6,0.9-0.9H170c2.8,0,5-2.2,5-5V26.9C175,24.1,172.8,21.9,170,21.9z M95,158.1c-17.3,0-31.2-14-31.2-31.2
		s14-31.2,31.2-31.2s31.2,14,31.2,31.2C126.2,144.1,112.2,158.1,95,158.1z M165,145.6h-33.3c10.4-20.3,2.4-45.1-17.9-55.5
		S68.7,87.7,58.3,108c-6.1,11.8-6.1,25.8,0,37.7H25V61.9h140V145.6z M165,51.9H25v-20h140V51.9z"/>
	<linearGradient id="SVGID_8_" gradientUnits="userSpaceOnUse" x1="120" y1="41.8763" x2="130" y2="41.8763">
		<stop  offset="0" style="stop-color:#4099F1"/>
		<stop  offset="0.3333" style="stop-color:#3182CB"/>
		<stop  offset="0.7769" style="stop-color:#1F669D"/>
		<stop  offset="1" style="stop-color:#185B8B"/>
	</linearGradient>
	<circle class="st10" cx="125" cy="41.9" r="5"/>
	<linearGradient id="SVGID_9_" gradientUnits="userSpaceOnUse" x1="135" y1="41.8763" x2="145" y2="41.8763">
		<stop  offset="0" style="stop-color:#4099F1"/>
		<stop  offset="0.3333" style="stop-color:#3182CB"/>
		<stop  offset="0.7769" style="stop-color:#1F669D"/>
		<stop  offset="1" style="stop-color:#185B8B"/>
	</linearGradient>
	<circle class="st11" cx="140" cy="41.9" r="5"/>
	<linearGradient id="SVGID_10_" gradientUnits="userSpaceOnUse" x1="150" y1="41.8763" x2="160" y2="41.8763">
		<stop  offset="0" style="stop-color:#4099F1"/>
		<stop  offset="0.3333" style="stop-color:#3182CB"/>
		<stop  offset="0.7769" style="stop-color:#1F669D"/>
		<stop  offset="1" style="stop-color:#185B8B"/>
	</linearGradient>
	<circle class="st12" cx="155" cy="41.9" r="5"/>
	<linearGradient id="SVGID_11_" gradientUnits="userSpaceOnUse" x1="30" y1="41.8763" x2="75" y2="41.8763">
		<stop  offset="0" style="stop-color:#4099F1"/>
		<stop  offset="0.3333" style="stop-color:#3182CB"/>
		<stop  offset="0.7769" style="stop-color:#1F669D"/>
		<stop  offset="1" style="stop-color:#185B8B"/>
	</linearGradient>
	<path class="st13" d="M35,46.9h35c2.8,0,5-2.2,5-5c0-2.8-2.2-5-5-5H35c-2.8,0-5,2.2-5,5C30,44.6,32.2,46.9,35,46.9z"/>
	<linearGradient id="SVGID_12_" gradientUnits="userSpaceOnUse" x1="70" y1="126.8763" x2="120" y2="126.8763">
		<stop  offset="0" style="stop-color:#4099F1"/>
		<stop  offset="0.3333" style="stop-color:#3182CB"/>
		<stop  offset="0.7769" style="stop-color:#1F669D"/>
		<stop  offset="1" style="stop-color:#185B8B"/>
	</linearGradient>
	<path class="st14" d="M100,121.9v-15c0-2.8-2.2-5-5-5c-2.8,0-5,2.2-5,5v15H75c-2.8,0-5,2.2-5,5s2.2,5,5,5h15v15c0,2.8,2.2,5,5,5
		c2.8,0,5-2.2,5-5v-15h15c2.8,0,5-2.2,5-5s-2.2-5-5-5H100z"/>
</g>
<g id="Layer_6" class="st0">
	<g class="st3">
		<linearGradient id="SVGID_13_" gradientUnits="userSpaceOnUse" x1="15" y1="62.2187" x2="151.8918" y2="62.2187">
			<stop  offset="0" style="stop-color:#4099F1"/>
			<stop  offset="0.3333" style="stop-color:#3182CB"/>
			<stop  offset="0.7769" style="stop-color:#1F669D"/>
			<stop  offset="1" style="stop-color:#185B8B"/>
		</linearGradient>
		<path class="st15" d="M148.8,57.2c-1.9,0-3.7-0.3-5.5-0.8l-5.5,5.3c-0.5,0.4-1.3,0.5-1.8,0.1l-8.9-7c-0.6-0.4-0.7-1.2-0.4-1.8
			l3.8-6.6c-0.4-0.8-0.9-1.6-1.2-2.5c-0.3-0.9-0.6-1.8-0.9-2.7l-6.7-1.9h-85C24,39.8,14.3,50.8,15,63.5c0.7,11.7,10,21.1,21.7,21.7
			v0.1h92c12.7,0,22.9-10.2,23.1-22.8L148.8,57.2z M39.1,72.4c-5.6,0-10.1-4.5-10.1-10.1c0,0,0,0,0,0c0-5.6,4.5-10.1,10.1-10.1
			c0,0,0,0,0,0v0c5.6,0,10.1,4.5,10.1,10.1C49.3,67.9,44.7,72.4,39.1,72.4z"/>
		<linearGradient id="SVGID_14_" gradientUnits="userSpaceOnUse" x1="15" y1="136.119" x2="150.5759" y2="136.119">
			<stop  offset="0" style="stop-color:#4099F1"/>
			<stop  offset="0.3333" style="stop-color:#3182CB"/>
			<stop  offset="0.7769" style="stop-color:#1F669D"/>
			<stop  offset="1" style="stop-color:#185B8B"/>
		</linearGradient>
		<path class="st16" d="M128.8,94.4h-92C24,95.1,14.3,106.1,15,118.8c0.7,11.7,10,21.1,21.7,21.7h41.4v28H47.8
			c-2.6,0-4.6,2.1-4.6,4.6c0,2.6,2.1,4.6,4.6,4.6h70c2.6,0,4.6-2.1,4.6-4.6c0-2.6-2.1-4.6-4.6-4.6H87.4v-28h41.4
			c12.7-0.7,22.5-11.7,21.7-24.4C149.9,104.4,140.5,95.1,128.8,94.4z M39.2,127.6c-5.6,0-10.1-4.5-10.1-10.1
			c0-5.6,4.5-10.1,10.1-10.1s10.1,4.5,10.1,10.1C49.3,123.1,44.8,127.6,39.2,127.6z"/>
	</g>
	<linearGradient id="SVGID_15_" gradientUnits="userSpaceOnUse" x1="125.122" y1="35.9025" x2="173.1618" y2="35.9025">
		<stop  offset="0" style="stop-color:#4099F1"/>
		<stop  offset="0.3333" style="stop-color:#3182CB"/>
		<stop  offset="0.7769" style="stop-color:#1F669D"/>
		<stop  offset="1" style="stop-color:#185B8B"/>
	</linearGradient>
	<path class="st17" d="M152.2,43.6c-4.2,1.7-9-0.4-10.7-4.6c-1.7-4.2,0.4-9,4.6-10.7c4.2-1.7,9,0.4,10.7,4.6S156.4,41.9,152.2,43.6
		 M166.3,31.6c-0.2-0.7-0.4-1.5-0.7-2.2c-0.3-0.7-0.6-1.4-1-2.1l3.2-5.4c0.3-0.5,0.2-1.1-0.3-1.5l-7.4-5.8c-0.5-0.4-1.1-0.3-1.5,0
		l-4.6,4.4c-1.5-0.4-3-0.7-4.6-0.7l-3.1-5.5c-0.3-0.5-0.9-0.7-1.5-0.5l-8.8,3.5c-0.5,0.2-0.9,0.8-0.7,1.4l1.5,6.1
		c-1.2,1.1-2.1,2.3-2.9,3.6l-6.3,0c-0.6,0-1.1,0.4-1.1,1l-1.4,9.3c-0.1,0.6,0.3,1.1,0.8,1.3l6,1.7c0.2,0.8,0.4,1.5,0.7,2.3
		c0.3,0.7,0.6,1.4,1,2.1l-3.2,5.5c-0.3,0.5-0.2,1.1,0.3,1.5l7.4,5.8c0.5,0.4,1.1,0.3,1.5,0l4.6-4.4c1.5,0.4,3,0.7,4.6,0.7l3.1,5.5
		c0.3,0.5,0.9,0.7,1.5,0.5l8.8-3.5c0.5-0.2,0.9-0.8,0.7-1.4l-1.5-6.1c1.2-1.1,2.1-2.3,2.8-3.6l6.3,0.1c0.6,0,1.1-0.4,1.1-1l1.4-9.3
		c0.1-0.6-0.3-1.1-0.8-1.3L166.3,31.6z"/>
	<linearGradient id="SVGID_16_" gradientUnits="userSpaceOnUse" x1="153.0732" y1="70.1676" x2="173.1618" y2="70.1676">
		<stop  offset="0" style="stop-color:#4099F1"/>
		<stop  offset="0.3333" style="stop-color:#3182CB"/>
		<stop  offset="0.7769" style="stop-color:#1F669D"/>
		<stop  offset="1" style="stop-color:#185B8B"/>
	</linearGradient>
	<path class="st18" d="M163.1,73.8c-2,0-3.6-1.6-3.6-3.6s1.6-3.6,3.6-3.6c2,0,3.6,1.6,3.6,3.6C166.7,72.2,165.1,73.8,163.1,73.8
		 M170.8,71.2c0-0.3,0.1-0.7,0.1-1c0-0.3,0-0.7-0.1-1l2.2-1.7c0.2-0.2,0.3-0.4,0.1-0.7l-2-3.6c-0.1-0.2-0.4-0.3-0.6-0.2l-2.6,1
		c-0.5-0.4-1.1-0.8-1.7-1l-0.4-2.7c0-0.2-0.3-0.4-0.5-0.4l-4.1,0c-0.3,0-0.5,0.2-0.5,0.4l-0.4,2.7c-0.7,0.3-1.2,0.6-1.7,1l-2.6-1
		c-0.2-0.1-0.5,0-0.6,0.2l-2.1,3.5c-0.1,0.2-0.1,0.5,0.1,0.7l2.2,1.7c0,0.3-0.1,0.7-0.1,1c0,0.3,0,0.7,0.1,1l-2.2,1.7
		c-0.2,0.2-0.3,0.4-0.1,0.7l2,3.6c0.1,0.2,0.4,0.3,0.6,0.2l2.6-1c0.5,0.4,1.1,0.8,1.7,1l0.4,2.7c0,0.2,0.3,0.4,0.5,0.4l4.1,0
		c0.3,0,0.5-0.2,0.5-0.4l0.4-2.7c0.7-0.3,1.2-0.6,1.7-1l2.6,1.1c0.2,0.1,0.5,0,0.6-0.2l2.1-3.5c0.1-0.2,0.1-0.5-0.1-0.7L170.8,71.2z
		"/>
</g>
<g id="Layer_7" class="st0">
	<linearGradient id="SVGID_17_" gradientUnits="userSpaceOnUse" x1="15" y1="95" x2="175" y2="95">
		<stop  offset="0" style="stop-color:#4099F1"/>
		<stop  offset="0.3333" style="stop-color:#3182CB"/>
		<stop  offset="0.7769" style="stop-color:#1F669D"/>
		<stop  offset="1" style="stop-color:#185B8B"/>
	</linearGradient>
	<path class="st19" d="M15,33.2v123.6h160V33.2H15z M161.2,130.1H28.8V45.8h132.4v84.3H161.2z"/>
	<linearGradient id="SVGID_18_" gradientUnits="userSpaceOnUse" x1="85.6032" y1="89.2854" x2="154.6827" y2="89.2854">
		<stop  offset="0" style="stop-color:#4099F1"/>
		<stop  offset="0.3333" style="stop-color:#3182CB"/>
		<stop  offset="0.7769" style="stop-color:#1F669D"/>
		<stop  offset="1" style="stop-color:#185B8B"/>
	</linearGradient>
	<path class="st20" d="M95,97.5h-9.4v16.6H95c0.6,3.3,1.8,6.5,3,9.4h17.7c-4.1-4.8-6.6-11-6.6-17.8c0-15.1,12.2-27.3,27.3-27.3
		c7,0,13.5,2.7,18.3,7.1V67.8c-3.2-1.5-6.5-2.7-9.9-3.3v-9.4H128v9.4c-5.5,1.1-10.5,3.3-15.1,6.2l-6.5-6.6L94.6,75.9l6.6,6.6
		C98.2,86.9,96,92,95,97.5z"/>
	<linearGradient id="SVGID_19_" gradientUnits="userSpaceOnUse" x1="35.3174" y1="79.3809" x2="89.9205" y2="79.3809">
		<stop  offset="0" style="stop-color:#4099F1"/>
		<stop  offset="0.3333" style="stop-color:#3182CB"/>
		<stop  offset="0.7769" style="stop-color:#1F669D"/>
		<stop  offset="1" style="stop-color:#185B8B"/>
	</linearGradient>
	<path class="st21" d="M43.2,99.1v7.4h13.2v-7.4c4.3-0.9,8.4-2.5,11.9-5l5.2,5.2l9.3-9.3l-5.2-5.2c2.4-3.6,4.1-7.6,5-11.9h7.4V59.8
		h-7.4c-0.5-2.7-1.4-5.1-2.4-7.5h-14c3.3,3.8,5.2,8.6,5.2,14.1c0,11.9-9.7,21.6-21.6,21.6c-5.6,0-10.7-2.2-14.5-5.6v14.1
		C37.7,97.7,40.4,98.6,43.2,99.1z"/>
</g>
<g id="Layer_8" class="st0">
	<linearGradient id="SVGID_20_" gradientUnits="userSpaceOnUse" x1="41.7743" y1="80.3091" x2="52.9371" y2="80.3091">
		<stop  offset="0" style="stop-color:#4099F1"/>
		<stop  offset="0.3333" style="stop-color:#3182CB"/>
		<stop  offset="0.7769" style="stop-color:#1F669D"/>
		<stop  offset="1" style="stop-color:#185B8B"/>
	</linearGradient>
	<path class="st22" d="M50.6,82.7h-6.4c-1.3,0-2.4-1.1-2.4-2.4l0,0c0-1.3,1.1-2.4,2.4-2.4h6.4c1.3,0,2.4,1.1,2.4,2.4l0,0
		C52.9,81.6,51.9,82.7,50.6,82.7z"/>
	<linearGradient id="SVGID_21_" gradientUnits="userSpaceOnUse" x1="59.818" y1="80.3091" x2="86.2421" y2="80.3091">
		<stop  offset="0" style="stop-color:#4099F1"/>
		<stop  offset="0.3333" style="stop-color:#3182CB"/>
		<stop  offset="0.7769" style="stop-color:#1F669D"/>
		<stop  offset="1" style="stop-color:#185B8B"/>
	</linearGradient>
	<path class="st23" d="M83.9,82.7H62.2c-1.3,0-2.4-1.1-2.4-2.4l0,0c0-1.3,1.1-2.4,2.4-2.4h21.7c1.3,0,2.4,1.1,2.4,2.4l0,0
		C86.2,81.6,85.2,82.7,83.9,82.7z"/>
	<linearGradient id="SVGID_22_" gradientUnits="userSpaceOnUse" x1="41.7743" y1="97.3721" x2="52.9371" y2="97.3721">
		<stop  offset="0" style="stop-color:#4099F1"/>
		<stop  offset="0.3333" style="stop-color:#3182CB"/>
		<stop  offset="0.7769" style="stop-color:#1F669D"/>
		<stop  offset="1" style="stop-color:#185B8B"/>
	</linearGradient>
	<path class="st24" d="M50.6,99.7h-6.4c-1.3,0-2.4-1.1-2.4-2.4v0c0-1.3,1.1-2.4,2.4-2.4h6.4c1.3,0,2.4,1.1,2.4,2.4v0
		C52.9,98.7,51.9,99.7,50.6,99.7z"/>
	<linearGradient id="SVGID_23_" gradientUnits="userSpaceOnUse" x1="59.818" y1="97.3721" x2="77.8875" y2="97.3721">
		<stop  offset="0" style="stop-color:#4099F1"/>
		<stop  offset="0.3333" style="stop-color:#3182CB"/>
		<stop  offset="0.7769" style="stop-color:#1F669D"/>
		<stop  offset="1" style="stop-color:#185B8B"/>
	</linearGradient>
	<path class="st25" d="M75.5,99.7H62.2c-1.3,0-2.4-1.1-2.4-2.4v0c0-1.3,1.1-2.4,2.4-2.4h13.3c1.3,0,2.4,1.1,2.4,2.4v0
		C77.9,98.7,76.8,99.7,75.5,99.7z"/>
	<linearGradient id="SVGID_24_" gradientUnits="userSpaceOnUse" x1="41.7614" y1="114.4351" x2="52.9241" y2="114.4351">
		<stop  offset="0" style="stop-color:#4099F1"/>
		<stop  offset="0.3333" style="stop-color:#3182CB"/>
		<stop  offset="0.7769" style="stop-color:#1F669D"/>
		<stop  offset="1" style="stop-color:#185B8B"/>
	</linearGradient>
	<path class="st26" d="M50.6,116.8h-6.4c-1.3,0-2.4-1.1-2.4-2.4v0c0-1.3,1.1-2.4,2.4-2.4h6.4c1.3,0,2.4,1.1,2.4,2.4v0
		C52.9,115.7,51.9,116.8,50.6,116.8z"/>
	<linearGradient id="SVGID_25_" gradientUnits="userSpaceOnUse" x1="59.8051" y1="114.4351" x2="77.8746" y2="114.4351">
		<stop  offset="0" style="stop-color:#4099F1"/>
		<stop  offset="0.3333" style="stop-color:#3182CB"/>
		<stop  offset="0.7769" style="stop-color:#1F669D"/>
		<stop  offset="1" style="stop-color:#185B8B"/>
	</linearGradient>
	<path class="st27" d="M75.5,116.8H62.2c-1.3,0-2.4-1.1-2.4-2.4v0c0-1.3,1.1-2.4,2.4-2.4h13.3c1.3,0,2.4,1.1,2.4,2.4v0
		C77.9,115.7,76.8,116.8,75.5,116.8z"/>
	<linearGradient id="SVGID_26_" gradientUnits="userSpaceOnUse" x1="22.2727" y1="95" x2="167.7273" y2="95">
		<stop  offset="0" style="stop-color:#4099F1"/>
		<stop  offset="0.3333" style="stop-color:#3182CB"/>
		<stop  offset="0.7769" style="stop-color:#1F669D"/>
		<stop  offset="1" style="stop-color:#185B8B"/>
	</linearGradient>
	<path class="st28" d="M109.5,102.3h10.9v20.5l17.7,10.3l-5.5,9.5l-23.2-13.4V102.3 M138.6,65.9H36.8v80h34
		c-3.1-6.6-4.9-14-4.9-21.8c0-28.1,22.8-50.9,50.9-50.9c7.8,0,15.2,1.7,21.8,4.9V65.9 M36.8,160.5c-8.1,0-14.5-6.5-14.5-14.5V44.1
		c0-8.1,6.5-14.5,14.5-14.5h7.3V15h14.5v14.5h58.2V15h14.5v14.5h7.3c8,0,14.5,6.5,14.5,14.5v44.4c9,9.2,14.5,21.7,14.5,35.6
		c0,28.1-22.8,50.9-50.9,50.9c-13.9,0-26.5-5.5-35.6-14.5H36.8 M116.8,88.8c-19.5,0-35.3,15.8-35.3,35.3l0,0
		c0,19.5,15.8,35.3,35.3,35.3c19.5,0,35.3-15.8,35.3-35.3l0,0C152.1,104.6,136.3,88.8,116.8,88.8z"/>
</g>
<g id="Layer_9" class="st0">
	<linearGradient id="SVGID_27_" gradientUnits="userSpaceOnUse" x1="7" y1="95" x2="183" y2="95">
		<stop  offset="0" style="stop-color:#4099F1"/>
		<stop  offset="0.3333" style="stop-color:#3182CB"/>
		<stop  offset="0.7769" style="stop-color:#1F669D"/>
		<stop  offset="1" style="stop-color:#185B8B"/>
	</linearGradient>
	<path class="st29" d="M23,175h144c8.8,0,16-7.2,16-16V31c0-8.8-7.2-16-16-16H23c-8.8,0-16,7.2-16,16v128C7,167.8,14.2,175,23,175
		 M23,31h144v112H23V31z"/>
	
		<linearGradient id="SVGID_28_" gradientUnits="userSpaceOnUse" x1="78.7627" y1="103.0791" x2="160.0008" y2="103.0791" gradientTransform="matrix(0.9992 -4.061203e-02 4.061203e-02 0.9992 -0.9389 -1.0064)">
		<stop  offset="0" style="stop-color:#4099F1"/>
		<stop  offset="0.3333" style="stop-color:#3182CB"/>
		<stop  offset="0.7769" style="stop-color:#1F669D"/>
		<stop  offset="1" style="stop-color:#185B8B"/>
	</linearGradient>
	<path class="st30" d="M123,111.7c-8,0.3-14.8-6-15.1-14.1s6-14.8,14.1-15.1c8-0.3,14.8,6,15.1,14.1S131.1,111.4,123,111.7
		 M153.6,100.2c0.1-1.3,0.2-2.7,0.2-4c0-1.4-0.2-2.7-0.4-4.2l8.6-7.1c0.8-0.7,0.9-1.8,0.4-2.7l-8.8-14.1c-0.5-0.9-1.7-1.2-2.6-0.8
		l-10.2,4.5c-2.2-1.6-4.5-2.9-7.2-3.8l-1.9-11c-0.2-1-1.1-1.7-2.1-1.7l-16.7,0.5c-1,0-1.9,0.8-2,1.8l-1.2,11.1
		c-2.6,1.1-4.8,2.6-6.9,4.3l-10.5-3.8c-0.9-0.3-2,0.1-2.5,1l-7.9,14.7c-0.5,0.9-0.2,2,0.6,2.6l9,6.5c-0.1,1.4-0.2,2.8-0.2,4.2
		s0.2,2.7,0.4,4l-8.6,7.2c-0.8,0.7-1,1.8-0.4,2.7l8.8,14.1c0.5,0.9,1.7,1.2,2.6,0.8l10.2-4.5c2.2,1.6,4.5,2.9,7.2,3.9l1.9,11
		c0.2,1,1.1,1.7,2.1,1.7l16.7-0.5c1,0,1.9-0.8,2-1.8l1.2-11.1c2.6-1.2,4.8-2.6,6.9-4.4l10.5,3.9c0.9,0.3,2-0.1,2.5-1l7.9-14.7
		c0.5-0.9,0.2-2-0.6-2.6L153.6,100.2z"/>
	
		<linearGradient id="SVGID_29_" gradientUnits="userSpaceOnUse" x1="18.1729" y1="85.1163" x2="74.2396" y2="85.1163" gradientTransform="matrix(0.8883 0.4592 -0.4592 0.8883 53.7078 -34.2504)">
		<stop  offset="0" style="stop-color:#4099F1"/>
		<stop  offset="0.3333" style="stop-color:#3182CB"/>
		<stop  offset="0.7769" style="stop-color:#1F669D"/>
		<stop  offset="1" style="stop-color:#185B8B"/>
	</linearGradient>
	<path class="st31" d="M51,71.5c-4.9-2.6-6.8-8.7-4.2-13.6c2.6-4.9,8.7-6.8,13.6-4.2s6.8,8.7,4.2,13.6C62,72.2,55.9,74.1,51,71.5
		 M73.3,75c0.5-0.8,1-1.5,1.5-2.4c0.4-0.8,0.8-1.7,1.2-2.6l7.6-1.3c0.7-0.1,1.2-0.7,1.2-1.5l-0.5-11.5c0-0.7-0.6-1.3-1.3-1.4
		l-7.7-0.8c-0.8-1.7-1.7-3.3-3-4.8l2.6-7.2c0.2-0.7-0.1-1.4-0.7-1.7L64,34.5c-0.6-0.3-1.4-0.2-1.8,0.4l-4.5,6.2
		c-1.9-0.2-3.8-0.1-5.6,0.2l-5-5.9c-0.4-0.5-1.2-0.7-1.8-0.3l-9.7,6.1c-0.6,0.4-0.8,1.2-0.6,1.8l3.2,7c-0.6,0.8-1.1,1.6-1.5,2.5
		c-0.4,0.8-0.8,1.7-1.1,2.6l-7.6,1.4c-0.7,0.1-1.2,0.7-1.2,1.5l0.5,11.5c0,0.7,0.6,1.3,1.3,1.4l7.7,0.8c0.8,1.7,1.7,3.3,3,4.8
		l-2.6,7.2c-0.2,0.7,0.1,1.4,0.7,1.7l10.2,5.4c0.6,0.3,1.4,0.2,1.8-0.4l4.5-6.2c2,0.2,3.8,0.1,5.6-0.3l5,5.9
		c0.5,0.5,1.2,0.7,1.8,0.3l9.7-6.1c0.6-0.4,0.8-1.2,0.6-1.8L73.3,75z"/>
</g>
<g id="Layer_10" class="st0">
	<g class="st3">
		<linearGradient id="SVGID_30_" gradientUnits="userSpaceOnUse" x1="95.4951" y1="132.03" x2="135.4951" y2="132.03">
			<stop  offset="0" style="stop-color:#4099F1"/>
			<stop  offset="0.3333" style="stop-color:#3182CB"/>
			<stop  offset="0.7769" style="stop-color:#1F669D"/>
			<stop  offset="1" style="stop-color:#185B8B"/>
		</linearGradient>
		<rect x="95.5" y="124" class="st32" width="40" height="16"/>
		<linearGradient id="SVGID_31_" gradientUnits="userSpaceOnUse" x1="23.4951" y1="92.03" x2="167.4951" y2="92.03">
			<stop  offset="0" style="stop-color:#4099F1"/>
			<stop  offset="0.3333" style="stop-color:#3182CB"/>
			<stop  offset="0.7769" style="stop-color:#1F669D"/>
			<stop  offset="1" style="stop-color:#185B8B"/>
		</linearGradient>
		<path class="st33" d="M151.5,28h-33.4c-3.4-9.3-12.2-16-22.6-16s-19.2,6.7-22.6,16H39.5c-8.8,0-16,7.2-16,16v112
			c0,8.8,7.2,16,16,16h112c8.8,0,16-7.2,16-16V44C167.5,35.2,160.3,28,151.5,28z M95.5,28c4.4,0,8,3.6,8,8c0,4.4-3.6,8-8,8
			s-8-3.6-8-8C87.5,31.6,91.1,28,95.5,28z M151.5,156h-112V44h16v16h80V44h16V156z"/>
		<linearGradient id="SVGID_32_" gradientUnits="userSpaceOnUse" x1="95.4951" y1="84.03" x2="135.4951" y2="84.03">
			<stop  offset="0" style="stop-color:#4099F1"/>
			<stop  offset="0.3333" style="stop-color:#3182CB"/>
			<stop  offset="0.7769" style="stop-color:#1F669D"/>
			<stop  offset="1" style="stop-color:#185B8B"/>
		</linearGradient>
		<rect x="95.5" y="76" class="st34" width="40" height="16"/>
	</g>
	<g id="Layer_11" class="st3">
		<linearGradient id="SVGID_33_" gradientUnits="userSpaceOnUse" x1="50.6184" y1="85.9383" x2="84.3718" y2="85.9383">
			<stop  offset="0" style="stop-color:#4099F1"/>
			<stop  offset="0.3333" style="stop-color:#3182CB"/>
			<stop  offset="0.7769" style="stop-color:#1F669D"/>
			<stop  offset="1" style="stop-color:#185B8B"/>
		</linearGradient>
		<path class="st35" d="M61.7,99.8L50.6,88.7l5-5l6,6l17.6-17.6l5,5L61.7,99.8z"/>
		<linearGradient id="SVGID_34_" gradientUnits="userSpaceOnUse" x1="50.6184" y1="134.1683" x2="84.3718" y2="134.1683">
			<stop  offset="0" style="stop-color:#4099F1"/>
			<stop  offset="0.3333" style="stop-color:#3182CB"/>
			<stop  offset="0.7769" style="stop-color:#1F669D"/>
			<stop  offset="1" style="stop-color:#185B8B"/>
		</linearGradient>
		<path class="st36" d="M61.7,148L50.6,137l5-5l6,6l17.6-17.6l5,5L61.7,148z"/>
	</g>
</g>
<g id="Layer_12" class="st0">
	<linearGradient id="SVGID_35_" gradientUnits="userSpaceOnUse" x1="15.4951" y1="92.03" x2="175.4951" y2="92.03">
		<stop  offset="0" style="stop-color:#4099F1"/>
		<stop  offset="0.3333" style="stop-color:#3182CB"/>
		<stop  offset="0.7769" style="stop-color:#1F669D"/>
		<stop  offset="1" style="stop-color:#185B8B"/>
	</linearGradient>
	<path class="st37" d="M15.5,12v160h160V12H15.5z M61.2,19.5c2.8,0,5,2.2,5,5s-2.2,5-5,5s-5-2.2-5-5S58.4,19.5,61.2,19.5z
		 M45.8,19.5c2.8,0,5,2.2,5,5s-2.2,5-5,5c-2.8,0-5-2.2-5-5S43.1,19.5,45.8,19.5z M30.5,29.5c-2.8,0-5-2.2-5-5s2.2-5,5-5s5,2.2,5,5
		S33.3,29.5,30.5,29.5z M155.5,152h-120V52h120V152z"/>
	<linearGradient id="SVGID_36_" gradientUnits="userSpaceOnUse" x1="58.1008" y1="95" x2="131.8992" y2="95">
		<stop  offset="0" style="stop-color:#4099F1"/>
		<stop  offset="0.3333" style="stop-color:#3182CB"/>
		<stop  offset="0.7769" style="stop-color:#1F669D"/>
		<stop  offset="1" style="stop-color:#185B8B"/>
	</linearGradient>
	<path class="st38" d="M98.2,63.1l6.9,1.4l-13.2,62.3l-6.9-1.4L98.2,63.1 M121.9,95l-12.7-12.7v-10L131.9,95l-22.7,22.7v-10
		L121.9,95 M58.1,95l22.7-22.7v10L68.1,95l12.7,12.7v10L58.1,95z"/>
	
		<linearGradient id="SVGID_37_" gradientUnits="userSpaceOnUse" x1="115.9127" y1="138.5676" x2="149.6127" y2="138.5676" gradientTransform="matrix(1 -7.638391e-03 7.638391e-03 1 3.5253 -5.4475)">
		<stop  offset="0" style="stop-color:#4099F1"/>
		<stop  offset="0.3333" style="stop-color:#3182CB"/>
		<stop  offset="0.7769" style="stop-color:#1F669D"/>
		<stop  offset="1" style="stop-color:#185B8B"/>
	</linearGradient>
	<path class="st39" d="M137.3,138.2c-3.3,0-6-2.7-6-6c0-3.3,2.7-6,6-6c3.3,0,6,2.7,6,6C143.4,135.4,140.7,138.2,137.3,138.2
		 M150.2,133.8c0.1-0.6,0.1-1.1,0.1-1.7s-0.1-1.1-0.1-1.7l3.6-2.8c0.3-0.3,0.4-0.7,0.2-1.1l-3.5-6c-0.2-0.4-0.7-0.5-1.1-0.4
		l-4.3,1.7c-0.9-0.7-1.8-1.3-2.9-1.7l-0.6-4.6c-0.1-0.4-0.4-0.7-0.9-0.7h-6.9c-0.4,0-0.8,0.3-0.9,0.7l-0.6,4.6c-1.1,0.4-2,1-2.9,1.7
		l-4.3-1.7c-0.4-0.2-0.8,0-1.1,0.4l-3.5,6c-0.2,0.4-0.1,0.8,0.2,1.1l3.6,2.8c-0.1,0.6-0.1,1.2-0.1,1.7s0.1,1.1,0.1,1.7l-3.6,2.9
		c-0.3,0.3-0.4,0.7-0.2,1.1l3.5,6c0.2,0.4,0.7,0.5,1.1,0.4l4.3-1.7c0.9,0.7,1.8,1.3,2.9,1.7l0.6,4.6c0.1,0.4,0.4,0.7,0.9,0.7h6.9
		c0.4,0,0.8-0.3,0.9-0.7l0.6-4.6c1.1-0.4,2-1,2.9-1.7l4.3,1.7c0.4,0.1,0.8,0,1.1-0.4l3.5-6c0.2-0.4,0.1-0.8-0.2-1.1L150.2,133.8z"/>
</g>
<g id="Layer_13" class="st0">
	<g class="st3">
		<linearGradient id="SVGID_38_" gradientUnits="userSpaceOnUse" x1="14.7247" y1="77.1726" x2="46.7247" y2="77.1726">
			<stop  offset="0" style="stop-color:#4099F1"/>
			<stop  offset="0.3333" style="stop-color:#3182CB"/>
			<stop  offset="0.7769" style="stop-color:#1F669D"/>
			<stop  offset="1" style="stop-color:#185B8B"/>
		</linearGradient>
		<path class="st40" d="M46.7,38V14h-8c-13.6,0-24,10.4-24,24v80c0,10.4,6.4,19.2,16,22.4V134c0-10.4,6.4-19.2,16-22.4V38z"/>
		<linearGradient id="SVGID_39_" gradientUnits="userSpaceOnUse" x1="46.7247" y1="105.9727" x2="174.7247" y2="105.9727">
			<stop  offset="0" style="stop-color:#4099F1"/>
			<stop  offset="0.3333" style="stop-color:#3182CB"/>
			<stop  offset="0.7769" style="stop-color:#1F669D"/>
			<stop  offset="1" style="stop-color:#185B8B"/>
		</linearGradient>
		<path class="st41" d="M150.7,38h-88v88l-8,0c-4.8,0-8,3.2-8,8v8l104,0c4.8,0,8,3.2,8,8c0,4.8-3.2,8-8,8h-8v16h8
			c13.6,0,24-10.4,24-24l0-88C174.7,48.4,164.3,38,150.7,38z M104.3,122.5H97v-7.3h7.3V122.5z M115.3,122.5H108v-7.3h7.3V122.5z
			 M126.4,122.5H119v-7.3h7.3V122.5z M137.4,122.5H130v-7.3h7.3V122.5z M137.4,111.5h-55v-55h55V111.5z M148.4,122.5H141v-7.3h7.3
			V122.5z M148.4,111.5H141v-7.3h7.3V111.5z M148.4,100.5H141v-7.3h7.3V100.5z M148.4,89.5H141v-7.3h7.3V89.5z M148.4,78.5H141v-7.3
			h7.3V78.5z"/>
	</g>
</g>
<g id="Layer_14" class="st0">
	<g class="st3">
		<linearGradient id="SVGID_40_" gradientUnits="userSpaceOnUse" x1="29.5454" y1="95" x2="160.4546" y2="95">
			<stop  offset="0" style="stop-color:#4099F1"/>
			<stop  offset="0.3333" style="stop-color:#3182CB"/>
			<stop  offset="0.7769" style="stop-color:#1F669D"/>
			<stop  offset="1" style="stop-color:#185B8B"/>
		</linearGradient>
		<path class="st42" d="M153.2,73.2H36.8c-4,0-7.3,3.3-7.3,7.3v29.1c0,4,3.3,7.3,7.3,7.3h116.4c4,0,7.3-3.3,7.3-7.3V80.5
			C160.5,76.4,157.2,73.2,153.2,73.2z M58.6,102.3H44.1V87.7h14.5V102.3z M80.5,102.3h-7.3V87.7h7.3V102.3z"/>
		<linearGradient id="SVGID_41_" gradientUnits="userSpaceOnUse" x1="29.5454" y1="36.8182" x2="160.4546" y2="36.8182">
			<stop  offset="0" style="stop-color:#4099F1"/>
			<stop  offset="0.3333" style="stop-color:#3182CB"/>
			<stop  offset="0.7769" style="stop-color:#1F669D"/>
			<stop  offset="1" style="stop-color:#185B8B"/>
		</linearGradient>
		<path class="st43" d="M153.2,15H36.8c-4,0-7.3,3.3-7.3,7.3v29.1c0,4,3.3,7.3,7.3,7.3h116.4c4,0,7.3-3.3,7.3-7.3V22.3
			C160.5,18.3,157.2,15,153.2,15z M58.6,44.1H44.1V29.5h14.5V44.1z M80.5,44.1h-7.3V29.5h7.3V44.1z M152.2,38.2l-3.5,1
			c-0.1,0.5-0.2,0.9-0.4,1.3c-0.2,0.4-0.4,0.8-0.6,1.2l1.9,3.2c0.2,0.3,0.1,0.7-0.2,0.9l-4.3,3.4c-0.3,0.2-0.6,0.2-0.9,0l-2.7-2.5
			c-0.9,0.3-1.7,0.4-2.7,0.4l-1.8,3.2c-0.2,0.3-0.5,0.4-0.8,0.3l-5.1-2c-0.3-0.1-0.5-0.5-0.4-0.8l0.8-3.6c-0.7-0.6-1.2-1.3-1.7-2.1
			l-3.7,0.1c-0.3,0-0.6-0.2-0.7-0.6l-0.9-5.4c-0.1-0.3,0.2-0.7,0.5-0.8l3.5-1.1c0.1-0.4,0.2-0.9,0.4-1.3c0.2-0.4,0.4-0.8,0.6-1.2
			l-1.9-3.1c-0.2-0.3-0.1-0.7,0.2-0.9l4.3-3.4c0.3-0.2,0.7-0.2,0.9,0l2.7,2.5c0.9-0.2,1.7-0.4,2.7-0.4l1.8-3.2
			c0.2-0.3,0.5-0.4,0.8-0.3l5.1,2c0.3,0.1,0.5,0.5,0.4,0.8l-0.8,3.6c0.7,0.6,1.2,1.3,1.7,2.1l3.7,0c0.3,0,0.6,0.2,0.7,0.6l0.9,5.4
			C152.7,37.7,152.5,38.1,152.2,38.2z"/>
		<linearGradient id="SVGID_42_" gradientUnits="userSpaceOnUse" x1="29.5454" y1="153.1818" x2="160.4546" y2="153.1818">
			<stop  offset="0" style="stop-color:#4099F1"/>
			<stop  offset="0.3333" style="stop-color:#3182CB"/>
			<stop  offset="0.7769" style="stop-color:#1F669D"/>
			<stop  offset="1" style="stop-color:#185B8B"/>
		</linearGradient>
		<path class="st44" d="M153.2,131.4H36.8c-4,0-7.3,3.3-7.3,7.3v29.1c0,4,3.3,7.3,7.3,7.3h116.4c4,0,7.3-3.3,7.3-7.3v-29.1
			C160.5,134.6,157.2,131.4,153.2,131.4z M58.6,160.5H44.1v-14.5h14.5V160.5z M80.5,160.5h-7.3v-14.5h7.3V160.5z"/>
		<linearGradient id="SVGID_43_" gradientUnits="userSpaceOnUse" x1="133.85" y1="36.8182" x2="143.468" y2="36.8182">
			<stop  offset="0" style="stop-color:#4099F1"/>
			<stop  offset="0.3333" style="stop-color:#3182CB"/>
			<stop  offset="0.7769" style="stop-color:#1F669D"/>
			<stop  offset="1" style="stop-color:#185B8B"/>
		</linearGradient>
		<path class="st45" d="M140.4,32.3c-2.5-1-5.3,0.3-6.2,2.8c-1,2.5,0.3,5.3,2.8,6.2c2.5,1,5.3-0.3,6.2-2.8
			C144.1,36.1,142.9,33.3,140.4,32.3z"/>
	</g>
</g>
<g id="Layer_15" class="st0">
	<linearGradient id="SVGID_44_" gradientUnits="userSpaceOnUse" x1="15" y1="95" x2="175" y2="95">
		<stop  offset="0" style="stop-color:#4099F1"/>
		<stop  offset="0.3333" style="stop-color:#3182CB"/>
		<stop  offset="0.7769" style="stop-color:#1F669D"/>
		<stop  offset="1" style="stop-color:#185B8B"/>
	</linearGradient>
	<path class="st46" d="M160.5,22.3H29.5c-8,0-14.5,6.5-14.5,14.5v116.4c0,8,6.5,14.5,14.5,14.5h130.9c8,0,14.5-6.5,14.5-14.5V36.8
		C175,28.8,168.5,22.3,160.5,22.3z M68.3,33.9c2.8,0,5,2.2,5,5s-2.2,5-5,5s-5-2.2-5-5S65.5,33.9,68.3,33.9z M51.4,33.9
		c2.8,0,5,2.2,5,5s-2.2,5-5,5s-5-2.2-5-5S48.7,33.9,51.4,33.9z M34.5,33.9c2.8,0,5,2.2,5,5s-2.2,5-5,5s-5-2.2-5-5
		S31.8,33.9,34.5,33.9z M160.5,153.2H29.5V51.4h130.9V153.2z"/>
	<linearGradient id="SVGID_45_" gradientUnits="userSpaceOnUse" x1="58.1008" y1="95" x2="131.8992" y2="95">
		<stop  offset="0" style="stop-color:#4099F1"/>
		<stop  offset="0.3333" style="stop-color:#3182CB"/>
		<stop  offset="0.7769" style="stop-color:#1F669D"/>
		<stop  offset="1" style="stop-color:#185B8B"/>
	</linearGradient>
	<path class="st47" d="M98.2,63.1l6.9,1.4l-13.2,62.3l-6.9-1.4L98.2,63.1 M121.9,95l-12.7-12.7v-10L131.9,95l-22.7,22.7v-10
		L121.9,95 M58.1,95l22.7-22.7v10L68.1,95l12.7,12.7v10L58.1,95z"/>
	
		<linearGradient id="SVGID_46_" gradientUnits="userSpaceOnUse" x1="117.8851" y1="138.4177" x2="151.5851" y2="138.4177" gradientTransform="matrix(1 -7.638391e-03 7.638391e-03 1 3.5253 -5.4475)">
		<stop  offset="0" style="stop-color:#4099F1"/>
		<stop  offset="0.3333" style="stop-color:#3182CB"/>
		<stop  offset="0.7769" style="stop-color:#1F669D"/>
		<stop  offset="1" style="stop-color:#185B8B"/>
	</linearGradient>
	<path class="st48" d="M139.3,138c-3.3,0-6-2.7-6-6c0-3.3,2.7-6,6-6c3.3,0,6,2.7,6,6C145.4,135.3,142.7,138,139.3,138 M152.2,133.6
		c0.1-0.6,0.1-1.1,0.1-1.7s-0.1-1.1-0.1-1.7l3.6-2.8c0.3-0.3,0.4-0.7,0.2-1.1l-3.5-6c-0.2-0.4-0.7-0.5-1.1-0.4l-4.3,1.7
		c-0.9-0.7-1.8-1.3-2.9-1.7l-0.6-4.6c-0.1-0.4-0.4-0.7-0.9-0.7h-6.9c-0.4,0-0.8,0.3-0.9,0.7l-0.6,4.6c-1.1,0.4-2,1-2.9,1.7l-4.3-1.7
		c-0.4-0.2-0.8,0-1.1,0.4l-3.5,6c-0.2,0.4-0.1,0.8,0.2,1.1l3.6,2.8c-0.1,0.6-0.1,1.2-0.1,1.7s0.1,1.1,0.1,1.7l-3.6,2.9
		c-0.3,0.3-0.4,0.7-0.2,1.1l3.5,6c0.2,0.4,0.7,0.5,1.1,0.4l4.3-1.7c0.9,0.7,1.8,1.3,2.9,1.7l0.6,4.6c0.1,0.4,0.4,0.7,0.9,0.7h6.9
		c0.4,0,0.8-0.3,0.9-0.7l0.6-4.6c1.1-0.4,2-1,2.9-1.7l4.3,1.7c0.4,0.1,0.8,0,1.1-0.4l3.5-6c0.2-0.4,0.1-0.8-0.2-1.1L152.2,133.6z"/>
</g>
<g id="Layer_16" class="st0">
	<g class="st3">
		<linearGradient id="SVGID_47_" gradientUnits="userSpaceOnUse" x1="15" y1="95" x2="175" y2="95">
			<stop  offset="0" style="stop-color:#4099F1"/>
			<stop  offset="0.3333" style="stop-color:#3182CB"/>
			<stop  offset="0.7769" style="stop-color:#1F669D"/>
			<stop  offset="1" style="stop-color:#185B8B"/>
		</linearGradient>
		<path class="st49" d="M160.5,22.3H29.5c-8,0-14.5,6.5-14.5,14.5v116.4c0,8,6.5,14.5,14.5,14.5h37.6c-2.9-4.2-4.9-9.2-5.6-14.5
			H29.5V51.4h130.9v101.8h-31.9c-0.7,5.3-2.7,10.3-5.6,14.5h37.6c8,0,14.5-6.5,14.5-14.5V36.8C175,28.8,168.5,22.3,160.5,22.3z
			 M77,43.4H34.6c-2.8,0-5-2.3-5-5c0-2.8,2.3-5,5-5H77c2.8,0,5,2.3,5,5C82,41.1,79.7,43.4,77,43.4z M117.2,43.3c-2.8,0-5-2.2-5-5
			c0-2.8,2.2-5,5-5s5,2.2,5,5C122.2,41.1,120,43.3,117.2,43.3z M136.3,43.3c-2.8,0-5-2.2-5-5c0-2.8,2.2-5,5-5s5,2.2,5,5
			C141.3,41.1,139.1,43.3,136.3,43.3z M155.5,43.3c-2.8,0-5-2.2-5-5c0-2.8,2.2-5,5-5s5,2.2,5,5C160.5,41.1,158.2,43.3,155.5,43.3z"
			/>
		<linearGradient id="SVGID_48_" gradientUnits="userSpaceOnUse" x1="61.1564" y1="175.0719" x2="128.8436" y2="175.0719">
			<stop  offset="0" style="stop-color:#4099F1"/>
			<stop  offset="0.3333" style="stop-color:#3182CB"/>
			<stop  offset="0.7769" style="stop-color:#1F669D"/>
			<stop  offset="1" style="stop-color:#185B8B"/>
		</linearGradient>
		<path class="st50" d="M95,182.4c11.6,0,21.8-5.8,27.9-14.7H67.1C73.2,176.6,83.4,182.4,95,182.4z"/>
		<linearGradient id="SVGID_49_" gradientUnits="userSpaceOnUse" x1="61.1564" y1="133.9556" x2="128.8436" y2="133.9556">
			<stop  offset="0" style="stop-color:#4099F1"/>
			<stop  offset="0.3333" style="stop-color:#3182CB"/>
			<stop  offset="0.7769" style="stop-color:#1F669D"/>
			<stop  offset="1" style="stop-color:#185B8B"/>
		</linearGradient>
		<path class="st51" d="M91.6,152H78.1v-6.8h13.5v-13.5h6.8v13.5h13.5v6.8H98.4v1.2h30.1c0.2-1.5,0.3-3,0.3-4.6
			c0-18.7-15.2-33.8-33.8-33.8s-33.8,15.2-33.8,33.8c0,1.6,0.1,3.1,0.3,4.6h30.1V152z"/>
		<linearGradient id="SVGID_50_" gradientUnits="userSpaceOnUse" x1="15" y1="160.4546" x2="175" y2="160.4546">
			<stop  offset="0" style="stop-color:#4099F1"/>
			<stop  offset="0.3333" style="stop-color:#3182CB"/>
			<stop  offset="0.7769" style="stop-color:#1F669D"/>
			<stop  offset="1" style="stop-color:#185B8B"/>
		</linearGradient>
		<path class="st52" d="M98.4,153.2v12.3h-6.8v-12.3H61.5c0.7,5.3,2.7,10.3,5.6,14.5h55.8c2.9-4.2,4.9-9.2,5.6-14.5H98.4z"/>
		<linearGradient id="SVGID_51_" gradientUnits="userSpaceOnUse" x1="61.1564" y1="160.4546" x2="128.8436" y2="160.4546">
			<stop  offset="0" style="stop-color:#4099F1"/>
			<stop  offset="0.3333" style="stop-color:#3182CB"/>
			<stop  offset="0.7769" style="stop-color:#1F669D"/>
			<stop  offset="1" style="stop-color:#185B8B"/>
		</linearGradient>
		<path class="st53" d="M98.4,153.2v12.3h-6.8v-12.3H61.5c0.7,5.3,2.7,10.3,5.6,14.5h55.8c2.9-4.2,4.9-9.2,5.6-14.5H98.4z"/>
	</g>
</g>
<g id="Layer_17">
	<g>
		<linearGradient id="SVGID_52_" gradientUnits="userSpaceOnUse" x1="20.8" y1="36.8182" x2="151.7091" y2="36.8182">
			<stop  offset="0" style="stop-color:#4099F1"/>
			<stop  offset="0.3333" style="stop-color:#3182CB"/>
			<stop  offset="0.7769" style="stop-color:#1F669D"/>
			<stop  offset="1" style="stop-color:#185B8B"/>
		</linearGradient>
		<path class="st54" d="M28.1,58.6h116.4c4,0,7.3-3.3,7.3-7.3V22.3c0-4-3.3-7.3-7.3-7.3H28.1c-4,0-7.3,3.3-7.3,7.3v29.1
			C20.8,55.4,24.1,58.6,28.1,58.6z M64.4,29.5h7.3v14.5h-7.3V29.5z M35.3,29.5h14.5v14.5H35.3V29.5z"/>
		<linearGradient id="SVGID_53_" gradientUnits="userSpaceOnUse" x1="20.8" y1="95" x2="151.7091" y2="95">
			<stop  offset="0" style="stop-color:#4099F1"/>
			<stop  offset="0.3333" style="stop-color:#3182CB"/>
			<stop  offset="0.7769" style="stop-color:#1F669D"/>
			<stop  offset="1" style="stop-color:#185B8B"/>
		</linearGradient>
		<path class="st55" d="M28.1,116.8h97.8c6.3-4.9,14.2-7.9,22.8-7.9c1,0,2,0.1,2.9,0.1V80.5c0-4-3.3-7.3-7.3-7.3H28.1
			c-4,0-7.3,3.3-7.3,7.3v29.1C20.8,113.6,24.1,116.8,28.1,116.8z M64.4,87.7h7.3v14.5h-7.3V87.7z M35.3,87.7h14.5v14.5H35.3V87.7z"
			/>
		<linearGradient id="SVGID_54_" gradientUnits="userSpaceOnUse" x1="20.8" y1="153.1818" x2="125.9156" y2="153.1818">
			<stop  offset="0" style="stop-color:#4099F1"/>
			<stop  offset="0.3333" style="stop-color:#3182CB"/>
			<stop  offset="0.7769" style="stop-color:#1F669D"/>
			<stop  offset="1" style="stop-color:#185B8B"/>
		</linearGradient>
		<path class="st56" d="M111.8,145.9c0-5.2,1.1-10.1,3-14.5H28.1c-4,0-7.3,3.3-7.3,7.3v29.1c0,4,3.3,7.3,7.3,7.3h97.8
			C117.3,168.2,111.8,157.7,111.8,145.9z M49.9,160.5H35.3v-14.5h14.5V160.5z M71.7,160.5h-7.3v-14.5h7.3V160.5z"/>
	</g>
	<linearGradient id="SVGID_55_" gradientUnits="userSpaceOnUse" x1="122.1055" y1="145.9091" x2="175.4227" y2="145.9091">
		<stop  offset="0" style="stop-color:#4099F1"/>
		<stop  offset="0.3333" style="stop-color:#3182CB"/>
		<stop  offset="0.7769" style="stop-color:#1F669D"/>
		<stop  offset="1" style="stop-color:#185B8B"/>
	</linearGradient>
	<path class="st57" d="M148.8,155.5c-5.3,0-9.6-4.3-9.6-9.6c0-5.3,4.3-9.6,9.6-9.6s9.6,4.3,9.6,9.6
		C158.4,151.2,154.1,155.5,148.8,155.5 M169.1,148.6c0.1-0.9,0.2-1.8,0.2-2.7c0-0.9-0.1-1.8-0.2-2.7l5.8-4.5
		c0.5-0.4,0.7-1.2,0.3-1.8l-5.5-9.5c-0.3-0.6-1.1-0.8-1.7-0.6l-6.8,2.7c-1.4-1.1-2.9-2-4.6-2.7l-1-7.3c-0.1-0.7-0.7-1.2-1.4-1.2h-11
		c-0.7,0-1.3,0.5-1.4,1.2l-1,7.3c-1.7,0.7-3.2,1.6-4.6,2.7l-6.8-2.7c-0.6-0.2-1.3,0-1.7,0.6l-5.5,9.5c-0.4,0.6-0.2,1.3,0.3,1.8
		l5.8,4.5c-0.1,0.9-0.2,1.8-0.2,2.7c0,0.9,0.1,1.8,0.2,2.7l-5.8,4.5c-0.5,0.4-0.7,1.2-0.3,1.8l5.5,9.5c0.3,0.6,1.1,0.8,1.7,0.6
		l6.8-2.8c1.4,1.1,2.9,2,4.6,2.7l1,7.3c0.1,0.7,0.7,1.2,1.4,1.2h11c0.7,0,1.3-0.5,1.4-1.2l1-7.3c1.7-0.7,3.2-1.6,4.6-2.7l6.8,2.8
		c0.6,0.2,1.3,0,1.7-0.6l5.5-9.5c0.3-0.6,0.2-1.3-0.3-1.8L169.1,148.6z"/>
</g>
</svg>
