<?xml version="1.0" encoding="UTF-8"?>
<svg width="17px" height="17px" viewBox="0 0 17 17" version="1.1" xmlns="http://www.w3.org/2000/svg" xmlns:xlink="http://www.w3.org/1999/xlink">
    <!-- Generator: Sketch 50.2 (55047) - http://www.bohemiancoding.com/sketch -->
    <title>icons/filter</title>
    <desc>Created with Sketch.</desc>
    <defs></defs>
    <g id="icons/filter" stroke="none" stroke-width="1" fill="none" fill-rule="evenodd">
        <path d="M8.46875,0.31640625 C4.05075,0.31640625 0.46875,1.43540625 0.46875,2.81640625 L0.46875,4.31640625 L6.46875,10.3164062 L6.46875,15.3164062 C6.46875,15.8684062 7.36375,16.3164062 8.46875,16.3164062 C9.57375,16.3164062 10.46875,15.8684062 10.46875,15.3164062 L10.46875,10.3164062 L16.46875,4.31640625 L16.46875,2.81640625 C16.46875,1.43540625 12.88675,0.31640625 8.46875,0.31640625 Z M1.94375,2.48540625 C2.31775,2.27240625 2.84375,2.06940625 3.46375,1.89940625 C4.83775,1.52340625 6.61575,1.31640625 8.46875,1.31640625 C10.32175,1.31640625 12.09975,1.52340625 13.47375,1.89940625 C14.09375,2.06940625 14.61975,2.27140625 14.99375,2.48540625 C15.24075,2.62640625 15.37375,2.74540625 15.43575,2.81640625 C15.37375,2.88740625 15.24075,3.00640625 14.99375,3.14740625 C14.61975,3.36040625 14.09375,3.56340625 13.47375,3.73340625 C12.09975,4.10940625 10.32175,4.31640625 8.46875,4.31640625 C6.61575,4.31640625 4.83775,4.10940625 3.46375,3.73340625 C2.84375,3.56340625 2.31775,3.36140625 1.94375,3.14740625 C1.69675,3.00640625 1.56375,2.88740625 1.50175,2.81640625 C1.56375,2.74540625 1.69675,2.62640625 1.94375,2.48540625 Z" id="Shape" fill="#3A97F4" fill-rule="nonzero"></path>
    </g>
</svg>