<?xml version="1.0" encoding="UTF-8"?>
<svg width="20px" height="21px" viewBox="0 0 20 21" version="1.1" xmlns="http://www.w3.org/2000/svg" xmlns:xlink="http://www.w3.org/1999/xlink">
    <!-- Generator: Sketch 50.2 (55047) - http://www.bohemiancoding.com/sketch -->
    <title>icons/gear</title>
    <desc>Created with Sketch.</desc>
    <defs></defs>
    <g id="icons/gear" stroke="none" stroke-width="1" fill="none" fill-rule="evenodd">
        <path d="M19.7478175,10.0632859 L19.7478175,11.2975245 C19.7478175,11.6064368 19.5193071,11.8673901 19.2132159,11.9097068 L16.4725009,12.2750415 C16.306055,12.9704468 16.0324067,13.6249459 15.6684827,14.2202015 L17.3470471,16.4164409 C17.5346514,16.6604675 17.5106719,17.0074649 17.2906248,17.227512 L16.4203103,18.0978265 C16.3004128,18.2191345 16.1424303,18.2797886 15.9816266,18.2797886 C15.8504447,18.2797886 15.7192628,18.2388824 15.6092392,18.1542489 L13.4115892,16.4756844 C12.8163336,16.8396084 12.1618345,17.1118462 11.4664292,17.2797027 L11.1039157,20.0190071 C11.0630095,20.3265088 10.7992351,20.5550193 10.4917333,20.5550193 L9.25608419,20.5550193 C8.9471719,20.5550193 8.68480804,20.3265088 8.64390185,20.0190071 L8.27997778,17.2797027 C7.58316193,17.1118462 6.92866284,16.8396084 6.33481775,16.4756844 L4.13857833,18.1528383 C4.02714422,18.2388824 3.89596229,18.2797886 3.76478036,18.2797886 C3.60538726,18.2797886 3.44740472,18.2191345 3.32891781,18.0978265 L2.45578217,17.227512 C2.23714561,17.0074649 2.21316612,16.6618781 2.40077039,16.4164409 L4.08074544,14.2202015 C3.71682137,13.6235353 3.44317304,12.9704468 3.27531659,12.2750415 L0.534601632,11.9097068 C0.22851046,11.8688007 3.55271368e-15,11.6064368 3.55271368e-15,11.2989351 L3.55271368e-15,10.0632859 C3.55271368e-15,9.75296306 0.22851046,9.49200976 0.534601632,9.45110356 L3.27531659,9.08576894 C3.44317304,8.39036365 3.71682137,7.734454 4.08074544,7.14201947 L2.40077039,4.94719061 C2.21316612,4.70034289 2.23714561,4.35334552 2.45578217,4.13470897 L3.32891781,3.26157333 C3.44740472,3.14308642 3.60538726,3.08102185 3.76478036,3.08102185 C3.89596229,3.08102185 4.02714422,3.1233386 4.13857833,3.20797211 L6.33481775,4.8865366 C6.92866284,4.52402309 7.58316193,4.2489642 8.27997778,4.08251831 L8.64390185,1.34180335 C8.68480804,1.03571218 8.94858246,0.807201718 9.25608419,0.807201718 L10.4903228,0.807201718 C10.7992351,0.807201718 11.0615989,1.03571218 11.1025051,1.34180335 L11.4678398,4.08251831 C12.163245,4.2489642 12.8177441,4.52402309 13.4129998,4.8865366 L15.6106498,3.20797211 C15.7206733,3.1233386 15.8518552,3.08102185 15.9830372,3.08102185 C16.1424303,3.08102185 16.3018234,3.14308642 16.4217208,3.26157333 L17.2920354,4.13470897 C17.5120825,4.35193497 17.536062,4.69893233 17.3484577,4.94578005 L15.6698932,7.14201947 C16.0338173,7.734454 16.3074656,8.39036365 16.4739115,9.08576894 L19.2146265,9.45110356 C19.5193071,9.49200976 19.7478175,9.75437362 19.7478175,10.0632859 Z M9.87390877,14.3838263 C11.9178079,14.3838263 13.5766246,12.7250096 13.5766246,10.6811105 C13.5766246,8.63580081 11.9178079,6.9783947 9.87390877,6.9783947 C7.83000965,6.9783947 6.17119298,8.63580081 6.17119298,10.6811105 C6.17119298,12.7250096 7.83000965,14.3838263 9.87390877,14.3838263 Z" id="Shape" fill="#747474" fill-rule="nonzero"></path>
    </g>
</svg>