<?xml version="1.0" encoding="UTF-8"?>
<svg width="16px" height="17px" viewBox="0 0 16 17" version="1.1" xmlns="http://www.w3.org/2000/svg" xmlns:xlink="http://www.w3.org/1999/xlink">
    <!-- Generator: Sketch 50.2 (55047) - http://www.bohemiancoding.com/sketch -->
    <title>icons/search</title>
    <desc>Created with Sketch.</desc>
    <defs></defs>
    <g id="icons/search" stroke="none" stroke-width="1" fill="none" fill-rule="evenodd">
        <path d="M15.504,14.1189297 L11.714,10.8959297 C11.322,10.5429297 10.903,10.3819297 10.565,10.3969297 C11.46,9.34892969 12,7.98992969 12,6.50392969 C12,3.18992969 9.314,0.503929687 6,0.503929687 C2.686,0.503929687 0,3.18992969 0,6.50392969 C0,9.81792969 2.686,12.5039297 6,12.5039297 C7.486,12.5039297 8.845,11.9639297 9.893,11.0689297 C9.877,11.4069297 10.039,11.8259297 10.392,12.2179297 L13.615,16.0079297 C14.167,16.6209297 15.068,16.6729297 15.618,16.1229297 C16.168,15.5729297 16.116,14.6709297 15.503,14.1199297 L15.504,14.1189297 Z M6,10.5029297 C3.791,10.5029297 2,8.71192969 2,6.50292969 C2,4.29392969 3.791,2.50292969 6,2.50292969 C8.209,2.50292969 10,4.29392969 10,6.50292969 C10,8.71192969 8.209,10.5029297 6,10.5029297 Z" id="Shape" fill="#3A97F4" fill-rule="nonzero"></path>
    </g>
</svg>