<?xml version="1.0" encoding="UTF-8"?>
<svg width="21px" height="20px" viewBox="0 0 21 20" version="1.1" xmlns="http://www.w3.org/2000/svg" xmlns:xlink="http://www.w3.org/1999/xlink">
    <!-- Generator: Sketch 50.2 (55047) - http://www.bohemiancoding.com/sketch -->
    <title>Shape</title>
    <desc>Created with Sketch.</desc>
    <defs></defs>
    <g id="Catalog" stroke="none" stroke-width="1" fill="none" fill-rule="evenodd">
        <g id="Catalog-—-Small-screen" transform="translate(-258.000000, -393.000000)" fill="#FFFFFF" fill-rule="nonzero">
            <g id="page-filters" transform="translate(0.000000, 293.000000)">
                <g id="Group-4" transform="translate(248.000000, 90.000000)">
                    <path d="M29.687248,26.7146006 L25.0311738,22.7550947 C24.5495957,22.3214287 24.0348476,22.1236377 23.6196094,22.1420654 C24.7191308,20.854581 25.3825293,19.1850283 25.3825293,17.3594541 C25.3825293,13.2881533 22.0827363,9.98836033 18.0114355,9.98836033 C13.9401347,9.98836033 10.6403418,13.2881533 10.6403418,17.3594541 C10.6403418,21.4307549 13.9401347,24.7305478 18.0114355,24.7305478 C19.8370097,24.7305478 21.5065625,24.0671494 22.7940469,22.9676279 C22.7743906,23.3828662 22.9734101,23.8976142 23.4070762,24.3791924 L27.366582,29.0352666 C28.0447226,29.7883467 29.1516152,29.8522295 29.8272988,29.1765459 C30.5029824,28.5008623 30.4390996,27.3927412 29.6860195,26.7158291 L29.687248,26.7146006 Z M18.0114355,22.2722881 C15.2976445,22.2722881 13.097373,20.0720166 13.097373,17.3582256 C13.097373,14.6444346 15.2976445,12.4441631 18.0114355,12.4441631 C20.7252265,12.4441631 22.925498,14.6444346 22.925498,17.3582256 C22.925498,20.0720166 20.7252265,22.2722881 18.0114355,22.2722881 Z" id="Shape"></path>
                </g>
            </g>
        </g>
    </g>
</svg>