<?xml version="1.0" encoding="UTF-8"?>
<!DOCTYPE svg PUBLIC "-//W3C//DTD SVG 1.1//EN" "http://www.w3.org/Graphics/SVG/1.1/DTD/svg11.dtd">
<svg version="1.2" width="6.33mm" height="4.3mm" viewBox="0 125 633 430" preserveAspectRatio="xMidYMid" fill-rule="evenodd" stroke-width="28.222" stroke-linejoin="round" xmlns="http://www.w3.org/2000/svg" xmlns:ooo="http://xml.openoffice.org/svg/export" xmlns:xlink="http://www.w3.org/1999/xlink" xmlns:presentation="http://sun.com/xmlns/staroffice/presentation" xmlns:smil="http://www.w3.org/2001/SMIL20/" xmlns:anim="urn:oasis:names:tc:opendocument:xmlns:animation:1.0" xml:space="preserve">
 <defs class="ClipPathGroup">
  <clipPath id="presentation_clip_path" clipPathUnits="userSpaceOnUse">
   <rect x="0" y="125" width="633" height="430"/>
  </clipPath>
  <clipPath id="presentation_clip_path_shrink" clipPathUnits="userSpaceOnUse">
   <rect x="0" y="125" width="632" height="430"/>
  </clipPath>
 </defs>
 <defs class="TextShapeIndex">
  <g ooo:slide="id1" ooo:id-list="id3"/>
 </defs>
 <defs class="EmbeddedBulletChars">
  <g id="bullet-char-template-57356" transform="scale(0.00048828125,-0.00048828125)">
   <path d="M 580,1141 L 1163,571 580,0 -4,571 580,1141 Z"/>
  </g>
  <g id="bullet-char-template-57354" transform="scale(0.00048828125,-0.00048828125)">
   <path d="M 8,1128 L 1137,1128 1137,0 8,0 8,1128 Z"/>
  </g>
  <g id="bullet-char-template-10146" transform="scale(0.00048828125,-0.00048828125)">
   <path d="M 174,0 L 602,739 174,1481 1456,739 174,0 Z M 1358,739 L 309,1346 659,739 1358,739 Z"/>
  </g>
  <g id="bullet-char-template-10132" transform="scale(0.00048828125,-0.00048828125)">
   <path d="M 2015,739 L 1276,0 717,0 1260,543 174,543 174,936 1260,936 717,1481 1274,1481 2015,739 Z"/>
  </g>
  <g id="bullet-char-template-10007" transform="scale(0.00048828125,-0.00048828125)">
   <path d="M 0,-2 C -7,14 -16,27 -25,37 L 356,567 C 262,823 215,952 215,954 215,979 228,992 255,992 264,992 276,990 289,987 310,991 331,999 354,1012 L 381,999 492,748 772,1049 836,1024 860,1049 C 881,1039 901,1025 922,1006 886,937 835,863 770,784 769,783 710,716 594,584 L 774,223 C 774,196 753,168 711,139 L 727,119 C 717,90 699,76 672,76 641,76 570,178 457,381 L 164,-76 C 142,-110 111,-127 72,-127 30,-127 9,-110 8,-76 1,-67 -2,-52 -2,-32 -2,-23 -1,-13 0,-2 Z"/>
  </g>
  <g id="bullet-char-template-10004" transform="scale(0.00048828125,-0.00048828125)">
   <path d="M 285,-33 C 182,-33 111,30 74,156 52,228 41,333 41,471 41,549 55,616 82,672 116,743 169,778 240,778 293,778 328,747 346,684 L 369,508 C 377,444 397,411 428,410 L 1163,1116 C 1174,1127 1196,1133 1229,1133 1271,1133 1292,1118 1292,1087 L 1292,965 C 1292,929 1282,901 1262,881 L 442,47 C 390,-6 338,-33 285,-33 Z"/>
  </g>
  <g id="bullet-char-template-9679" transform="scale(0.00048828125,-0.00048828125)">
   <path d="M 813,0 C 632,0 489,54 383,161 276,268 223,411 223,592 223,773 276,916 383,1023 489,1130 632,1184 813,1184 992,1184 1136,1130 1245,1023 1353,916 1407,772 1407,592 1407,412 1353,268 1245,161 1136,54 992,0 813,0 Z"/>
  </g>
  <g id="bullet-char-template-8226" transform="scale(0.00048828125,-0.00048828125)">
   <path d="M 346,457 C 273,457 209,483 155,535 101,586 74,649 74,723 74,796 101,859 155,911 209,963 273,989 346,989 419,989 480,963 531,910 582,859 608,796 608,723 608,648 583,586 532,535 482,483 420,457 346,457 Z"/>
  </g>
  <g id="bullet-char-template-8211" transform="scale(0.00048828125,-0.00048828125)">
   <path d="M -4,459 L 1135,459 1135,606 -4,606 -4,459 Z"/>
  </g>
  <g id="bullet-char-template-61548" transform="scale(0.00048828125,-0.00048828125)">
   <path d="M 173,740 C 173,903 231,1043 346,1159 462,1274 601,1332 765,1332 928,1332 1067,1274 1183,1159 1299,1043 1357,903 1357,740 1357,577 1299,437 1183,322 1067,206 928,148 765,148 601,148 462,206 346,322 231,437 173,577 173,740 Z"/>
  </g>
 </defs>
 <defs class="TextEmbeddedBitmaps"/>
 <g class="SlideGroup">
  <g>
   <g id="container-id1">
    <g id="id1" class="Slide" clip-path="url(#presentation_clip_path)">
     <g class="Page">
      <g class="Graphic">
       <title>Asset 1
       </title>
       <g id="id3">
        <rect class="BoundingBox" stroke="none" fill="none" x="0" y="125" width="634" height="431"/>
        <defs>
         <clipPath id="clip_path_1" clipPathUnits="userSpaceOnUse">
          <path d="M 0,125 L 633,125 633,555 0,555 0,125 Z"/>
         </clipPath>
        </defs>
        <g clip-path="url(#clip_path_1)"/>
        <defs>
         <clipPath id="clip_path_2" clipPathUnits="userSpaceOnUse">
          <path d="M 0,125 L 633,125 633,555 0,555 0,125 Z"/>
         </clipPath>
        </defs>
        <g clip-path="url(#clip_path_2)">
         <path fill="rgb(0,0,0)" stroke="none" d="M 16,609 L 16,598 5,598 5,609 0,609 0,582 5,582 5,593 16,593 16,582 21,582 21,609 16,609 Z M 41,609 L 37,609 36,608 C 36,608 36,608 36,608 34,609 32,609 30,609 30,609 30,609 30,609 26,609 25,607 25,603 25,600 27,598 31,598 L 36,598 36,596 C 36,594 35,593 32,593 30,593 28,593 26,594 L 25,590 C 28,589 30,589 33,589 39,589 41,591 41,596 L 41,609 Z M 36,602 L 32,602 C 30,602 30,602 30,604 30,605 30,606 32,606 33,606 35,605 36,605 L 36,602 Z M 52,609 C 49,609 47,609 45,608 L 45,605 C 48,605 49,605 52,605 54,605 54,605 54,603 54,602 54,602 51,601 46,600 45,598 45,595 45,591 47,589 53,589 55,589 57,589 59,590 L 59,594 C 57,593 55,593 53,593 51,593 50,593 50,595 50,596 50,596 53,597 59,598 60,599 60,603 60,607 58,609 52,609 L 52,609 Z M 76,609 L 76,595 C 76,594 75,594 74,594 72,594 70,594 69,595 L 69,609 63,609 63,581 69,582 69,591 C 71,589 73,589 76,589 80,589 81,591 81,595 L 81,609 76,609 Z M 85,586 L 85,582 91,582 91,586 85,586 Z M 85,609 L 85,589 91,589 91,609 85,609 Z M 95,589 C 95,584 98,582 105,582 108,582 110,582 113,582 L 112,587 C 110,586 108,586 105,586 101,586 100,587 100,590 L 100,600 C 100,603 101,605 105,605 107,605 110,604 112,604 L 113,608 C 110,609 108,609 105,609 98,609 95,606 95,601 L 95,589 Z M 124,609 C 117,609 115,606 115,602 L 115,597 C 115,593 117,589 124,589 131,589 133,593 133,597 L 133,602 C 133,606 131,609 124,609 L 124,609 Z M 124,593 C 121,593 120,594 120,597 L 120,602 C 120,604 121,605 124,605 127,605 128,604 128,602 L 128,597 C 128,594 127,593 124,593 L 124,593 Z M 148,594 C 146,594 145,595 144,596 143,596 143,596 142,596 L 142,609 137,609 137,589 142,589 142,591 C 142,591 142,591 143,591 144,590 145,589 147,589 L 148,594 Z M 169,602 C 169,602 169,603 169,603 169,604 169,605 168,606 168,607 167,608 166,608 165,609 164,609 163,609 163,609 162,609 162,609 160,609 158,609 157,609 L 157,617 151,617 151,589 155,589 156,591 C 156,591 156,590 157,590 158,589 160,589 162,589 162,589 162,589 162,589 167,589 169,591 169,596 L 169,602 Z M 156,604 C 158,605 159,605 161,605 163,605 164,604 164,602 L 164,596 C 164,594 163,593 161,593 160,593 159,593 158,594 157,594 157,594 157,595 L 156,604 Z"/>
         <path fill="rgb(0,0,0)" stroke="none" d="M 32,651 L 0,651 0,632 85,632 85,651 53,651 53,745 32,745 32,651 Z"/>
         <path fill="rgb(0,0,0)" stroke="none" d="M 130,726 L 133,741 C 123,745 114,747 103,747 77,747 68,735 68,715 L 68,693 C 68,676 75,661 102,661 129,661 135,676 135,694 L 135,712 88,712 88,716 C 88,726 92,730 105,730 114,730 121,728 130,726 Z M 88,695 L 115,695 115,691 C 115,683 112,677 102,677 92,677 88,683 88,691 L 88,695 Z"/>
         <path fill="rgb(0,0,0)" stroke="none" d="M 190,680 C 186,682 182,684 177,686 174,688 172,690 169,692 L 169,745 148,745 148,662 165,662 166,671 C 168,670 170,669 172,668 178,665 182,663 188,660 L 190,680 Z"/>
         <path fill="rgb(0,0,0)" stroke="none" d="M 241,680 C 237,682 233,684 228,686 225,688 222,690 219,692 L 219,745 198,745 198,662 216,662 217,671 C 219,670 221,669 223,668 228,665 233,663 239,660 L 241,680 Z"/>
         <path fill="rgb(0,0,0)" stroke="none" d="M 311,745 L 294,745 292,739 C 292,740 291,740 290,741 283,745 276,747 268,747 252,747 246,736 246,722 246,705 253,699 270,699 L 290,699 290,690 C 290,681 287,678 274,678 266,678 259,679 251,680 L 249,665 C 258,662 267,661 277,661 303,661 311,670 311,691 L 311,745 Z M 290,714 L 275,714 C 268,714 266,715 266,722 266,728 268,730 274,730 280,730 285,729 290,726 L 290,714 Z"/>
         <path fill="rgb(0,0,0)" stroke="none" d="M 375,643 C 371,642 367,642 363,642 355,642 354,646 354,652 L 354,662 375,662 374,678 354,678 354,745 333,745 333,679 319,679 319,662 333,662 333,651 C 333,633 341,625 359,625 359,625 359,625 360,625 366,625 371,626 377,627 L 375,643 Z"/>
         <path fill="rgb(0,0,0)" stroke="none" d="M 416,747 C 387,747 379,731 379,714 L 379,693 C 379,676 387,661 416,661 444,661 452,676 452,693 L 452,714 C 452,731 444,747 416,747 L 416,747 Z M 416,678 C 405,678 400,683 400,692 L 400,715 C 400,724 404,729 416,729 427,729 431,724 431,715 L 431,692 C 431,683 427,678 416,678 L 416,678 Z"/>
         <path fill="rgb(0,0,0)" stroke="none" d="M 505,680 C 501,682 497,684 492,686 489,688 487,690 484,692 L 484,745 463,745 463,662 480,662 482,671 C 483,670 485,669 487,668 493,665 497,663 503,660 L 505,680 Z"/>
         <path fill="rgb(0,0,0)" stroke="none" d="M 563,745 L 563,687 C 563,683 561,681 556,681 548,681 541,684 534,688 L 534,745 513,745 513,662 529,662 531,669 C 542,664 552,661 565,660 565,660 566,660 566,660 569,660 571,661 574,663 577,664 578,666 580,668 580,669 580,669 580,669 591,664 602,661 614,660 628,660 633,670 633,685 L 633,745 612,745 612,687 C 612,683 610,681 605,681 597,681 590,684 583,688 L 583,745 563,745 Z"/>
         <path fill="rgb(92,78,229)" stroke="none" d="M 259,199 L 374,265 374,398 259,331 259,199 259,199 Z"/>
         <path fill="rgb(0,0,0)" stroke="none" d="M 387,265 L 387,398 502,331 502,199 387,265 387,265 Z"/>
         <path fill="rgb(92,78,229)" stroke="none" d="M 131,125 L 131,258 246,324 246,191 131,125 131,125 Z"/>
         <path fill="rgb(92,78,229)" stroke="none" d="M 259,478 L 374,545 374,413 374,412 259,346 259,478 259,478 Z"/>
        </g>
        <g clip-path="url(#clip_path_1)"/>
       </g>
      </g>
     </g>
    </g>
   </g>
  </g>
 </g>
</svg>