<?xml version="1.0" encoding="UTF-8"?>
<svg width="19px" height="20px" viewBox="0 0 19 20" version="1.1" xmlns="http://www.w3.org/2000/svg" xmlns:xlink="http://www.w3.org/1999/xlink">
    <!-- Generator: Sketch 50.2 (55047) - http://www.bohemiancoding.com/sketch -->
    <title>icons/warning</title>
    <desc>Created with Sketch.</desc>
    <defs></defs>
    <g id="icons/warning" stroke="none" stroke-width="1" fill="none" fill-rule="evenodd">
        <path d="M9.41176471,2.32306985 L17.3,18.0442463 L1.52470588,18.0442463 L9.41294118,2.32306985 L9.41176471,2.32306985 Z M9.41176471,0.6171875 C9.00588235,0.6171875 8.6,0.891305147 8.29294118,1.43836397 L0.258823529,17.4513051 C-0.356470588,18.5454228 0.167058824,19.4407169 1.42235294,19.4407169 L17.4023529,19.4407169 C18.6576471,19.4407169 19.1811765,18.5454228 18.5658824,17.4513051 L10.5317647,1.43836397 C10.2235294,0.891305147 9.81882353,0.6171875 9.41294118,0.6171875 L9.41176471,0.6171875 Z" id="Shape" fill="#653F0A" fill-rule="nonzero"></path>
        <path d="M10.5882353,15.9113051 C10.5882353,16.5607169 10.0611765,17.0877757 9.41176471,17.0877757 C8.76235294,17.0877757 8.23529412,16.5607169 8.23529412,15.9113051 C8.23529412,15.2618934 8.76235294,14.7348346 9.41176471,14.7348346 C10.0611765,14.7348346 10.5882353,15.2618934 10.5882353,15.9113051 Z" id="Shape" fill="#653F0A" fill-rule="nonzero"></path>
        <path d="M9.41176471,13.558364 C8.76235294,13.558364 8.23529412,13.0313051 8.23529412,12.3818934 L8.23529412,8.85248162 C8.23529412,8.20306985 8.76235294,7.67601103 9.41176471,7.67601103 C10.0611765,7.67601103 10.5882353,8.20306985 10.5882353,8.85248162 L10.5882353,12.3818934 C10.5882353,13.0313051 10.0611765,13.558364 9.41176471,13.558364 Z" id="Shape" fill="#653F0A" fill-rule="nonzero"></path>
    </g>
</svg>