<?xml version="1.0" encoding="UTF-8" standalone="no"?>

<svg
   xmlns:svg="http://www.w3.org/2000/svg"
   xmlns="http://www.w3.org/2000/svg"
   version="1.1"
   viewBox="0 0 650.75439 160.6835">
  <path
     style="fill:#ffffff;fill-opacity:1;fill-rule:evenodd;stroke:none"
     d="m 590.10937,40.70738 -25.91625,19.86 37.28125,-0.30375 -101.1475,78.98 c 6.5325,2.45125 14.085,3.8525 22.13625,3.8525 18.18125,0 33.83875,-7.14375 40.90375,-17.415 5.70375,1.57375 11.94125,2.44375 18.4825,2.44375 27.00875,0 48.905,-14.8025 48.905,-33.06125 0,-13.0875 -11.25,-24.39875 -27.56875,-29.75625 1.67125,-2.41375 2.6175,-5.15875 2.6175,-8.07125 0,-7.68125 -6.57,-14.20125 -15.69375,-16.52875 m -106.8675,87.17 c -2.41625,0.32625 -4.90125,0.4975 -7.44,0.4975 -23.4275,0 -42.41875,-14.4675 -42.41875,-32.31375 0,-17.64875 18.575,-31.9925 41.6475,-32.30625 -0.80125,-2.69125 -1.225,-5.49 -1.225,-8.365 0,-20.87875 22.2875,-37.8025 49.78,-37.8025 12.96625,0 24.775,3.76749 33.6325,9.93625 l -53.69125,71.3875 23.5075,-6.4275 -32.8975,43.96125 c -4.4,-2.3675 -8.10875,-5.27375 -10.895,-8.5675" />
  <path
     style="fill:#ffffff;fill-opacity:1;fill-rule:evenodd;stroke:none"
     d="m 399.71875,56.02738 0,10.4975 -6.4375,0 0,11.0925 6.4375,0 0,19.8075 c 0,6.835 1.38624,11.49 4.15874,14.36125 2.3775,2.47625 6.43875,4.16 11.29,4.16 4.26001,0 7.825,-0.495 9.80625,-1.28875 l -0.1,-11.38875 c -1.08876,0.1975 -2.575,0.39625 -4.45501,0.39625 -4.55624,0 -5.94249,-2.67375 -5.94249,-8.5175 l 0,-17.53 10.79374,0 0,-11.0925 -10.79374,0 0,-13.86375 -14.7575,3.36625 z m -25.6275,58.92875 15.05374,0 0,-70.3175 -15.05374,0 0,70.3175 z M 343.31499,76.13238 c 6.83375,0 9.60625,7.32875 9.60625,14.5575 0,8.71625 -3.7625,14.56 -9.60625,14.56 -6.43749,0 -9.90375,-6.24 -9.90375,-14.56 0,-7.13 2.67376,-14.5575 9.90375,-14.5575 m 0.395,-10.69625 c -15.54749,0 -25.84749,10.0025 -25.84749,25.65125 0,15.6475 10.89249,24.9575 25.05624,24.9575 12.97376,0 25.5525,-8.12125 25.5525,-25.84875 0,-14.55875 -9.905,-24.76 -24.76125,-24.76 m -64.34999,20.005 5.14999,0 c 7.52625,0 13.56876,2.675 13.56876,9.41 0,7.03125 -6.04251,9.60625 -12.875,9.60625 -2.57501,0 -4.35876,0 -5.84375,-0.1975 l 0,-18.81875 z m 0,-26.34375 c 1.28749,-0.1975 3.16999,-0.39625 6.4375,-0.39625 6.83375,0 10.69624,2.67375 10.69624,7.725 0,4.9525 -4.25874,8.22125 -12.18124,8.22125 l -4.9525,0 0,-15.55 z m -14.95375,55.56 c 3.36625,0.49625 8.9125,0.99125 16.34,0.99125 13.27125,0 21.39374,-2.17875 26.245,-6.04125 4.16,-3.3675 6.9325,-8.12125 6.9325,-14.1625 0,-8.61625 -5.64375,-14.36 -13.27,-16.44 l 0,-0.19875 c 7.52749,-2.7725 10.9925,-8.32 10.9925,-14.26125 0,-6.0425 -3.36626,-10.5975 -8.02125,-13.07375 -4.85375,-2.87125 -10.49876,-3.76375 -19.70876,-3.76375 -7.5275,0 -15.55,0.595 -19.50999,1.3875 l 0,65.5625 z m -23.94376,-21.2925 c 0,1.2875 -0.0987,2.37625 -0.39625,3.4675 -0.89249,4.2575 -4.35749,7.22875 -8.71499,7.22875 -6.24,0 -10.30125,-5.15 -10.30125,-13.37125 0,-7.625 3.56625,-13.765 10.39999,-13.765 4.655,0 7.9225,3.36625 8.815,7.4275 0.0987,0.7925 0.1975,1.88125 0.1975,2.67375 l 0,6.33875 z m 0,-48.72625 0,26.245 -0.1975,0 c -2.17999,-3.36875 -6.83499,-5.4475 -12.77749,-5.4475 -11.58625,0 -21.78751,9.40875 -21.68875,25.75 0,15.05375 9.20999,24.85875 20.69875,24.85875 6.23999,0 12.0825,-2.77375 15.15249,-8.22 l 0.19875,0 0.69376,7.13125 13.37,0 c -0.19875,-3.27 -0.39625,-9.0125 -0.39625,-14.46 l 0,-55.8575 -15.05376,0 z m -40.28499,21.88625 -15.15251,0 0,28.82 c 0,1.18875 -0.0987,2.3775 -0.49499,3.26875 -0.99125,2.3775 -3.3675,5.25 -7.5275,5.25 -5.24876,0 -7.52625,-4.26 -7.52625,-11.29125 l 0,-26.0475 -15.15375,0 0,28.425 c 0,14.955 7.23,21.095 17.035,21.095 8.715,0 13.27124,-4.95125 15.1525,-7.9225 l 0.2975,0 0.69375,6.83375 13.0725,0 c -0.19875,-4.06125 -0.39625,-9.21125 -0.39625,-15.55 l 0,-32.88125 z m -76.43376,9.6075 c 6.83375,0 9.60626,7.32875 9.60626,14.5575 0,8.71625 -3.76251,14.56 -9.60626,14.56 -6.4375,0 -9.90374,-6.24 -9.90374,-14.56 0,-7.13 2.67374,-14.5575 9.90374,-14.5575 m 0.39625,-10.69625 c -15.54875,0 -25.84875,10.0025 -25.84875,25.65125 0,15.6475 10.89376,24.9575 25.05625,24.9575 12.97375,0 25.5525,-8.12125 25.5525,-25.84875 0,-14.55875 -9.90499,-24.76 -24.76,-24.76 m -46.62374,49.52 15.05374,0 0,-70.3175 -15.05374,0 0,70.3175 z m -7.70001,-13.6675 c -2.97124,1.1875 -8.0225,2.1775 -12.5775,2.1775 -13.46999,0 -21.39374,-8.4175 -21.39374,-21.7875 0,-14.855 9.31125,-22.08625 21.29499,-22.08625 5.34751,0 9.60626,1.18875 12.67626,2.47625 l 3.07,-11.98375 C 70.21249,48.69863 64.27,47.11363 56.44625,47.11363 36.2425,47.11363 20,59.79113 20,82.56988 c 0,19.015 11.88375,33.37625 34.96,33.37625 8.12125,0 14.36125,-1.48625 17.13375,-2.8725 l -2.2775,-11.785 z" />
</svg>
