<svg width="52" height="40" viewBox="0 0 52 40" fill="none" xmlns="http://www.w3.org/2000/svg">
<path d="M25.6869 20.6001C30.4489 20.6001 34.3093 16.7424 34.3093 11.9836C34.3093 7.22491 30.4489 3.36719 25.6869 3.36719C20.9248 3.36719 17.0645 7.22491 17.0645 11.9836C17.0645 16.7424 20.9248 20.6001 25.6869 20.6001Z" fill="black"/>
<path d="M31.9108 19.7426C30.312 21.3404 27.6282 21.911 25.6867 21.911C23.6881 21.911 21.0043 21.3404 19.4054 19.6855C13.8665 21.7969 9.69806 28.5302 8.61312 34.4648C8.2705 36.2337 9.52675 37.7173 11.2969 38.2879C14.7802 39.3721 20.3191 39.9998 25.6867 39.9998C32.7674 39.9998 37.2785 39.3151 40.4191 38.2309C41.9037 37.7173 42.9887 36.4619 42.7603 34.9213C41.7324 28.8156 37.564 21.911 31.9108 19.7426Z" fill="black"/>
<path d="M19.0058 18.7739C17.7496 17.5756 16.8359 15.9779 16.3791 14.2089C15.4084 14.5513 14.4377 14.6654 13.5811 14.6654C11.9823 14.6654 9.86947 14.2089 8.61322 12.8965C4.27345 14.5513 0.961516 19.9152 0.0478792 24.5943C-0.237632 26.0209 0.790209 27.1621 2.16066 27.6186C4.04504 28.1893 6.61464 28.5887 9.41265 28.8169C11.4112 24.5372 14.7803 20.4287 19.0058 18.7739Z" fill="black"/>
<path d="M13.5237 13.6379C14.4373 13.6379 15.351 13.4668 16.1504 13.1244C16.0933 12.725 16.0933 12.3255 16.0933 11.9261C16.0933 8.8447 17.5779 6.04863 19.862 4.27969C18.8342 1.76894 16.3788 0 13.5237 0C9.75494 0 6.72852 3.02432 6.72852 6.79044C6.72852 10.5566 9.75494 13.6379 13.5237 13.6379Z" fill="black"/>
<path d="M51.3251 24.9933C50.5257 20.143 47.2138 14.7221 42.7598 12.9531C41.5035 14.2085 39.3908 14.665 37.7919 14.665C36.9354 14.665 35.9075 14.5509 34.9939 14.2085C34.5371 15.9774 33.6234 17.5181 32.3672 18.7735C36.5927 20.4854 39.9618 24.5368 41.9604 28.8736C45.2723 28.6453 47.6706 28.2459 49.4978 27.5611C50.697 27.2188 51.5535 26.2487 51.3251 24.9933Z" fill="black"/>
<path d="M35.2795 11.9256C35.2795 12.3251 35.2795 12.7245 35.2224 13.124C36.0218 13.4663 36.9355 13.6375 37.8491 13.6375C41.6178 13.6375 44.6443 10.6132 44.6443 6.84708C44.6443 3.08096 41.6178 0.0566406 37.8491 0.0566406C34.994 0.0566406 32.5386 1.82558 31.5107 4.33633C33.7948 6.04821 35.2795 8.78721 35.2795 11.9256Z" fill="black"/>
</svg>
