<svg width="41" height="40" viewBox="0 0 41 40" fill="none" xmlns="http://www.w3.org/2000/svg">
<path d="M1.29226 8.49575H38.9148C39.5107 8.49575 39.994 8.13429 39.994 7.6888V0.806554C39.994 0.361462 39.5111 0 38.9148 0H1.29226C0.696386 0 0.213097 0.361059 0.213097 0.806554V7.6888C0.213097 8.13389 0.695984 8.49575 1.29226 8.49575ZM35.9202 2.38348C36.9499 2.38348 37.7846 3.21817 37.7846 4.24788C37.7846 5.27798 36.9499 6.11228 35.9202 6.11228C34.8901 6.11228 34.0558 5.27798 34.0558 4.24788C34.0558 3.21817 34.8901 2.38348 35.9202 2.38348ZM29.7902 2.38348C30.8191 2.38348 31.6546 3.21817 31.6546 4.24788C31.6546 5.27798 30.8191 6.11228 29.7902 6.11228C28.7601 6.11228 27.9258 5.27798 27.9258 4.24788C27.9258 3.21817 28.7601 2.38348 29.7902 2.38348ZM23.6594 2.38348C24.6892 2.38348 25.5234 3.21817 25.5234 4.24788C25.5234 5.27798 24.6892 6.11228 23.6594 6.11228C22.6301 6.11228 21.795 5.27798 21.795 4.24788C21.795 3.21817 22.6301 2.38348 23.6594 2.38348ZM1.29226 19.2134H38.9148C39.5107 19.2134 39.994 18.8523 39.994 18.4068V11.5242C39.994 11.0791 39.5111 10.7176 38.9148 10.7176H1.29226C0.696386 10.7176 0.213097 11.0787 0.213097 11.5242V18.4068C0.213097 18.8523 0.695984 19.2134 1.29226 19.2134ZM35.9202 13.1015C36.9499 13.1015 37.7846 13.9362 37.7846 14.9655C37.7846 15.9952 36.9499 16.8303 35.9202 16.8303C34.8901 16.8303 34.0558 15.9952 34.0558 14.9655C34.0558 13.9362 34.8901 13.1015 35.9202 13.1015ZM29.7902 13.1015C30.8191 13.1015 31.6546 13.9362 31.6546 14.9655C31.6546 15.9952 30.8191 16.8303 29.7902 16.8303C28.7601 16.8303 27.9258 15.9952 27.9258 14.9655C27.9258 13.9362 28.7601 13.1015 29.7902 13.1015ZM23.6594 13.1015C24.6892 13.1015 25.5234 13.9362 25.5234 14.9655C25.5234 15.9952 24.6892 16.8303 23.6594 16.8303C22.6301 16.8303 21.795 15.9952 21.795 14.9655C21.795 13.9362 22.6301 13.1015 23.6594 13.1015ZM27.4277 34.6669V32.9686H22.0568V29.9313H38.9148C39.5107 29.9313 39.994 29.5699 39.994 29.1244V22.2421C39.994 21.7967 39.5111 21.4352 38.9148 21.4352H1.29226C0.696386 21.4352 0.213097 21.7963 0.213097 22.2421V29.1244C0.213097 29.5695 0.695984 29.9313 1.29226 29.9313H18.1507V32.9686H12.7798V34.6669H0V38.5731H12.7798V40H27.4277V38.5731H40.2071V34.6669H27.4277ZM35.9202 23.8191C36.9499 23.8191 37.7846 24.6542 37.7846 25.6835C37.7846 26.7136 36.9499 27.5483 35.9202 27.5483C34.8901 27.5483 34.0558 26.7136 34.0558 25.6835C34.0558 24.6542 34.8901 23.8191 35.9202 23.8191ZM29.7902 23.8191C30.8191 23.8191 31.6546 24.6542 31.6546 25.6835C31.6546 26.7136 30.8191 27.5483 29.7902 27.5483C28.7601 27.5483 27.9258 26.7136 27.9258 25.6835C27.9258 24.6542 28.7601 23.8191 29.7902 23.8191ZM23.6594 23.8191C24.6892 23.8191 25.5234 24.6542 25.5234 25.6835C25.5234 26.7136 24.6892 27.5483 23.6594 27.5483C22.6301 27.5483 21.795 26.7136 21.795 25.6835C21.795 24.6542 22.6301 23.8191 23.6594 23.8191Z" fill="black"/>
</svg>
