<svg width="40" height="40" viewBox="0 0 40 40" fill="none" xmlns="http://www.w3.org/2000/svg">
<path d="M0.849815 15.9585H39.1502C39.7486 15.9585 40.1476 15.36 39.9481 14.7616L32.7668 0.398962C32.5673 0.199481 32.1683 0 31.9689 0H8.03113C7.83165 0 7.43269 0.199481 7.43269 0.398962L0.0518909 14.7616C-0.14759 15.36 0.251372 15.9585 0.849815 15.9585Z" fill="black"/>
<path d="M0.849682 19.9485C0.650201 19.9485 0.251239 19.9485 0.0517578 19.749V25.7335C0.0517578 26.9303 0.849682 27.7283 2.04657 27.7283H37.9532C39.1501 27.7283 39.948 26.9303 39.948 25.7335V19.749C39.7485 19.749 39.549 19.749 39.1501 19.749H0.849682V19.9485ZM33.9635 25.9329C32.7667 25.9329 31.9687 25.135 31.9687 23.9381C31.9687 22.7412 32.7667 21.9433 33.9635 21.9433C35.1604 21.9433 35.9584 22.7412 35.9584 23.9381C35.9584 24.9355 35.1604 25.9329 33.9635 25.9329Z" fill="black"/>
<path d="M0.849682 31.917C0.650201 31.917 0.251239 31.917 0.0517578 31.917V37.9014C0.0517578 39.0983 0.849682 39.8962 2.04657 39.8962H37.9532C39.1501 39.8962 39.948 39.0983 39.948 37.9014V31.917C39.7485 31.917 39.549 31.917 39.1501 31.917H0.849682ZM33.9635 37.9014C32.7667 37.9014 31.9687 37.1035 31.9687 35.9066C31.9687 34.7097 32.7667 33.9118 33.9635 33.9118C35.1604 33.9118 35.9584 34.7097 35.9584 35.9066C35.9584 36.904 35.1604 37.9014 33.9635 37.9014Z" fill="black"/>
</svg>
