<svg width="40" height="40" viewBox="0 0 40 40" fill="none" xmlns="http://www.w3.org/2000/svg">
<path d="M39.376 17.492C39.056 17.288 36.532 15.78 35.532 15.32L34.292 12.32C34.66 11.328 35.368 8.548 35.492 8.064C35.5417 7.84373 35.5347 7.61447 35.4717 7.39762C35.4088 7.18078 35.2919 6.98342 35.132 6.824L33.176 4.88C33.017 4.71946 32.8197 4.60215 32.6027 4.53915C32.3857 4.47616 32.1562 4.46956 31.936 4.52C31.568 4.604 28.736 5.32 27.68 5.72L24.68 4.48C24.244 3.52 22.776 1.06 22.508 0.636C22.3895 0.441958 22.2232 0.281579 22.025 0.170219C21.8268 0.0588597 21.6033 0.000249154 21.376 0L18.624 0C18.398 0.000113215 18.1757 0.0573837 17.9778 0.166484C17.7799 0.275584 17.6128 0.43297 17.492 0.624C17.288 0.944 15.78 3.468 15.32 4.468L12.32 5.708C11.328 5.34 8.548 4.632 8.064 4.508C7.84373 4.45833 7.61447 4.4653 7.39762 4.52825C7.18078 4.59121 6.98342 4.7081 6.824 4.868L4.88 6.824C4.71946 6.98299 4.60215 7.18032 4.53915 7.3973C4.47616 7.61429 4.46956 7.84376 4.52 8.064C4.604 8.432 5.32 11.264 5.72 12.32L4.48 15.32C3.52 15.756 1.06 17.224 0.636 17.492C0.441958 17.6105 0.281579 17.7768 0.170219 17.975C0.0588597 18.1732 0.000249154 18.3967 0 18.624L0 21.372C0.000113215 21.598 0.0573837 21.8203 0.166484 22.0182C0.275584 22.2161 0.43297 22.3832 0.624 22.504C0.944 22.708 3.468 24.216 4.468 24.676L5.708 27.676C5.34 28.668 4.632 31.448 4.508 31.932C4.45833 32.1523 4.4653 32.3815 4.52825 32.5984C4.59121 32.8152 4.7081 33.0126 4.868 33.172L6.812 35.116C6.97099 35.2765 7.16832 35.3939 7.3853 35.4568C7.60229 35.5198 7.83176 35.5264 8.052 35.476C8.42 35.392 11.252 34.676 12.308 34.276L15.308 35.516C15.744 36.476 17.212 38.936 17.48 39.36C17.599 39.5565 17.767 39.7188 17.9675 39.831C18.1681 39.9432 18.3942 40.0014 18.624 40H21.372C21.598 39.9999 21.8203 39.9426 22.0182 39.8335C22.2161 39.7244 22.3832 39.567 22.504 39.376C22.708 39.056 24.216 36.532 24.676 35.532L27.676 34.292C28.668 34.66 31.448 35.368 31.932 35.492C32.1523 35.5417 32.3815 35.5347 32.5984 35.4717C32.8152 35.4088 33.0126 35.2919 33.172 35.132L35.116 33.188C35.2765 33.029 35.3939 32.8317 35.4569 32.6147C35.5198 32.3977 35.5264 32.1682 35.476 31.948C35.392 31.58 34.676 28.748 34.276 27.692L35.516 24.692C36.476 24.256 38.936 22.788 39.36 22.52C39.5565 22.401 39.7188 22.233 39.831 22.0325C39.9432 21.8319 40.0014 21.6058 40 21.376V18.624C40.0018 18.3976 39.9453 18.1746 39.836 17.9764C39.7268 17.7782 39.5683 17.6113 39.376 17.492ZM20 28.708C18.2761 28.7064 16.5915 28.1937 15.159 27.2346C13.7265 26.2756 12.6106 24.9133 11.9524 23.3201C11.2942 21.7268 11.1232 19.9742 11.461 18.2837C11.7989 16.5933 12.6304 15.041 13.8505 13.8232C15.0706 12.6054 16.6244 11.7767 18.3154 11.4419C20.0065 11.1072 21.7588 11.2814 23.3509 11.9425C24.9429 12.6037 26.3031 13.7221 27.2595 15.1563C28.2159 16.5905 28.7256 18.2761 28.724 20C28.7187 22.3106 27.7974 24.5249 26.162 26.1573C24.5266 27.7897 22.3107 28.7069 20 28.708Z" fill="black"/>
</svg>
