<svg width="41" height="40" viewBox="0 0 41 40" fill="none" xmlns="http://www.w3.org/2000/svg">
<path d="M25.6457 18.6206C27.5235 17.4898 28.9791 15.7751 29.7898 13.7386C30.6005 11.7021 30.7218 9.45611 30.135 7.3442C29.5482 5.23228 28.2857 3.37076 26.5406 2.04443C24.7955 0.718097 22.6639 0 20.472 0C18.2801 0 16.1485 0.718097 14.4034 2.04443C12.6583 3.37076 11.3958 5.23228 10.809 7.3442C10.2222 9.45611 10.3435 11.7021 11.1542 13.7386C11.965 15.7751 13.4205 17.4898 15.2983 18.6206C10.9213 19.7667 7.04672 22.3294 4.27927 25.909C1.51182 29.4885 0.0071287 33.8835 0 38.4081C0 38.8303 0.167719 39.2352 0.466261 39.5337C0.764802 39.8323 1.16971 40 1.59191 40H39.3521C39.7743 40 40.1792 39.8323 40.4778 39.5337C40.7763 39.2352 40.944 38.8303 40.944 38.4081C40.9369 33.8835 39.4322 29.4885 36.6647 25.909C33.8973 22.3294 30.0228 19.7667 25.6457 18.6206Z" fill="black"/>
</svg>
