<?xml version="1.0" encoding="UTF-8"?>
<svg width="145px" height="31px" viewBox="0 0 145 31" version="1.1" xmlns="http://www.w3.org/2000/svg" xmlns:xlink="http://www.w3.org/1999/xlink">
    <!-- Generator: Sketch 50.2 (55047) - http://www.bohemiancoding.com/sketch -->
    <title>cb</title>
    <desc>Created with Sketch.</desc>
    <defs></defs>
    <g id="Catalog" stroke="none" stroke-width="1" fill="none" fill-rule="evenodd">
        <g transform="translate(-114.000000, -1399.000000)" fill="#FFFFFF" id="footer">
            <g transform="translate(0.000000, 1384.601562)">
                <g id="cb" transform="translate(114.000000, 15.000000)">
                    <path d="M134.982508,5.61300506 L128.846251,10.3151724 L137.673114,10.2434324 L113.724971,28.9431894 C115.271524,29.5232654 117.059816,29.8552109 118.966017,29.8552109 C123.270654,29.8552109 126.977932,28.1637566 128.650682,25.7319358 C130.001194,26.1046051 131.477902,26.3105913 133.026586,26.3105913 C139.421628,26.3105913 144.605614,22.8057482 144.605614,18.4828796 C144.605614,15.3840898 141.942,12.7057959 138.078456,11.4374419 C138.473855,10.8661262 138.698072,10.2162043 138.698072,9.5267425 C138.698072,7.7079082 137.142522,6.16419567 134.982271,5.61300506 L134.982508,5.61300506 Z M109.679828,26.2518734 C109.095949,26.330552 108.507447,26.3699436 107.918291,26.3697827 C102.371344,26.3697827 97.874926,22.9442562 97.874926,18.718935 C97.874926,14.5402567 102.272849,11.1443259 107.735745,11.0699815 C107.543593,10.4273447 107.445892,9.76018539 107.445707,9.08943621 C107.445707,4.14600462 112.722505,0.138981481 119.231905,0.138981481 C122.301809,0.138981481 125.097776,1.03111474 127.19481,2.4917225 L114.482621,19.3934806 L120.048273,17.8717873 L112.259391,28.2800086 C111.217622,27.7195841 110.339458,27.0315429 109.679828,26.2516366 L109.679828,26.2518734 Z M89.9044446,9.24025598 L89.9044446,11.7258226 L88.3801468,11.7258226 L88.3801468,14.352028 L89.9044446,14.352028 L89.9044446,19.0418835 C89.9044446,20.6601772 90.2326019,21.7623217 90.8889165,22.4420761 C91.4519454,23.028308 92.4136877,23.4270215 93.5620015,23.4270215 C94.5706235,23.4270215 95.4146933,23.3098225 95.883963,23.1218305 L95.8602864,20.4255424 C95.5122613,20.4887266 95.1592084,20.5201091 94.8054951,20.5193016 C93.7265537,20.5193016 93.3983964,19.8861901 93.3983964,18.5025312 L93.3983964,14.352028 L95.9540456,14.352028 L95.9540456,11.7258226 L93.3983964,11.7258226 L93.3983964,8.44306578 L89.9044446,9.24001921 L89.9044446,9.24025598 Z M83.8366126,23.1928602 L87.4008838,23.1928602 L87.4008838,6.54373113 L83.8366126,6.54373113 L83.8366126,23.1923867 L83.8366126,23.1928602 Z M76.5499106,14.0004309 C78.1679676,14.0004309 78.8242822,15.7359237 78.8242822,17.4472663 C78.8242822,19.5109164 77.9335695,20.8945753 76.5499106,20.8945753 C75.0258496,20.8945753 74.2049828,19.4171572 74.2049828,17.4472663 C74.2049828,15.7591267 74.8380944,14.0004309 76.5499106,14.0004309 Z M76.6434331,11.4679847 C72.9624363,11.4679847 70.5237493,13.8363522 70.5237493,17.5412623 C70.5237493,21.2461724 73.1026016,23.4504613 76.4561514,23.4504613 C79.5279499,23.4504613 82.5059892,21.5276868 82.5059892,17.3303041 C82.5059892,13.8832319 80.1608247,11.4679847 76.6434331,11.4679847 Z M61.4075586,16.204483 L62.6269021,16.204483 C64.4088009,16.204483 65.8395762,16.8378313 65.8395762,18.4324485 C65.8395762,20.0971483 64.4088009,20.7068201 62.7912175,20.7068201 C62.1815458,20.7068201 61.7591557,20.7068201 61.4075586,20.6601772 L61.4075586,16.2042463 L61.4075586,16.204483 Z M61.4075586,9.96712675 C61.7122761,9.92048391 62.158106,9.87336753 62.9318563,9.87336753 C64.5496766,9.87336753 65.4643026,10.5064791 65.4643026,11.7023828 C65.4643026,12.8750834 64.4559173,13.6488338 62.5800225,13.6488338 L61.4075586,13.6488338 L61.4075586,9.96712675 Z M57.8669639,23.1218305 C58.6639174,23.239503 59.9772569,23.3567021 61.7357159,23.3567021 C64.8778338,23.3567021 66.8010818,22.8405528 67.9496324,21.9261636 C68.9345778,21.1289734 69.5911291,20.0036259 69.5911291,18.5730873 C69.5911291,16.5331139 68.2548234,15.1731315 66.449248,14.6806588 L66.449248,14.6335424 C68.2313836,13.9772278 69.0517768,12.6636516 69.0517768,11.2570264 C69.0517768,9.82625115 68.2548234,8.74778327 67.1526789,8.16155133 C66.0034181,7.48179693 64.6668756,7.27036514 62.4862633,7.27036514 C60.7041276,7.27036514 58.8045562,7.41124074 57.8669639,7.59899597 L57.8669639,23.1218305 Z M52.1978454,18.0806146 C52.1978454,18.3853321 52.1746424,18.64317 52.1040862,18.9014814 C51.8928912,19.9096299 51.0724979,20.6132976 50.0406729,20.6132976 C48.5632548,20.6132976 47.6017491,19.3939541 47.6017491,17.4472663 C47.6017491,15.6419277 48.4460557,14.1881861 50.0641127,14.1881861 C51.1662571,14.1881861 51.9397708,14.9851395 52.1512026,15.9466452 C52.1746424,16.1344004 52.1978454,16.3922383 52.1978454,16.5797567 L52.1978454,18.0806146 Z M52.1978454,6.54396789 L52.1978454,12.7578844 L52.1512026,12.7578844 C51.6350533,11.9599839 50.5329088,11.4679847 49.1260469,11.4679847 C46.3826424,11.4679847 43.9673953,13.6957134 43.9905983,17.5647021 C43.9905983,21.1289734 46.1712106,23.4504613 48.8916488,23.4504613 C50.3690669,23.4504613 51.7522523,22.7936732 52.4791231,21.504247 L52.5262395,21.504247 L52.6905549,23.1926234 L55.8561126,23.1926234 C55.8087595,22.4183995 55.7621166,21.0588907 55.7621166,19.768991 L55.7621166,6.54420466 L52.1978454,6.54420466 L52.1978454,6.54396789 Z M42.6599749,11.7258226 L39.0722639,11.7258226 L39.0722639,18.5494108 C39.0722639,18.8309252 39.0488241,19.1122029 38.9550648,19.3233979 C38.72043,19.8861901 38.1576379,20.566418 37.1729292,20.566418 C35.9299092,20.566418 35.3907936,19.557796 35.3907936,17.8928594 L35.3907936,11.7258226 L31.8028458,11.7258226 L31.8028458,18.4558883 C31.8028458,21.9967197 33.514662,23.4504613 35.8361499,23.4504613 C37.8995632,23.4504613 38.9785047,22.2782342 39.423861,21.5745665 L39.4941804,21.5745665 L39.6584958,23.1926234 L42.7537341,23.1926234 C42.6916589,21.9663654 42.660317,20.7387445 42.6597382,19.5109164 L42.6597382,11.7258226 L42.6599749,11.7258226 Z M24.5630234,14.0004309 C26.1808436,14.0004309 26.837395,15.7359237 26.837395,17.4472663 C26.837395,19.5109164 25.9464456,20.8945753 24.5630234,20.8945753 C23.0387257,20.8945753 22.2180957,19.4171572 22.2180957,17.4472663 C22.2180957,15.7591267 22.8512072,14.0004309 24.5630234,14.0004309 Z M24.6567827,11.4679847 C20.9753124,11.4679847 18.5366254,13.8363522 18.5366254,17.5412623 C18.5366254,21.2461724 21.1159512,23.4504613 24.4690275,23.4504613 C27.540826,23.4504613 30.519102,21.5276868 30.519102,17.3303041 C30.519102,13.8832319 28.1739375,11.4679847 24.6567827,11.4679847 Z M13.6178175,23.1926234 L17.1820887,23.1926234 L17.1820887,6.54420466 L13.6178175,6.54420466 L13.6178175,23.1928602 L13.6178175,23.1926234 Z M11.7947214,19.9567463 C11.0912904,20.2377872 9.89538674,20.4721852 8.81691886,20.4721852 C5.62768453,20.4721852 3.75155292,18.4793281 3.75155292,15.3137704 C3.75155292,11.7966155 5.95607859,10.0843258 8.79347905,10.0843258 C10.0594654,10.0843258 11.0678506,10.366077 11.7947214,10.6707945 L12.5215922,7.83339403 C11.8884806,7.50523674 10.4816187,7.12996306 8.62916364,7.12996306 C3.84578568,7.12996306 0,10.1312054 0,15.5247286 C0,20.0268289 2.81372388,23.4270215 8.27732977,23.4270215 C10.2001042,23.4270215 11.6775224,23.0751876 12.3340737,22.7470303 L11.7947214,19.9567463 Z" id="Shape"></path>
                </g>
            </g>
        </g>
    </g>
</svg>