<?xml version="1.0" standalone="no"?><svg xmlns="http://www.w3.org/2000/svg" viewBox="0 0 440 280"><g stroke-width="10" stroke="rgb(0,0,0)"><rect x="5" y="5" width="430" height="270" fill="rgb(235,235,235)" /><line x1="080" y1="058" x2="080" y2="240" /><line x1="120" y1="080" x2="120" y2="240" /><line x1="160" y1="153" x2="160" y2="240" /><line x1="200" y1="155" x2="200" y2="240" /><line x1="240" y1="179" x2="240" y2="240" /><line x1="280" y1="185" x2="280" y2="240" /><line x1="320" y1="191" x2="320" y2="240" /><line x1="360" y1="195" x2="360" y2="240" /><line x1="400" y1="199" x2="400" y2="240" /><g stroke="rgb(128,128,128)"><line x1="40" y1="080" x2="60" y2="080" /><line x1="40" y1="120" x2="60" y2="120" /><line x1="40" y1="160" x2="60" y2="160" /><line x1="40" y1="200" x2="60" y2="200" /></g><rect x="40" y="40" width="360" height="200" fill="none" /></g></svg>