<?xml version="1.0" standalone="no"?><svg xmlns="http://www.w3.org/2000/svg" xmlns:xlink="http://www.w3.org/1999/xlink" viewBox="0 0 440 280"><g stroke-width="10"><rect x="5" y="5" width="430" height="270" fill="rgb(235,235,235)" stroke="rgb(0,0,0)" /><g fill="rgb(0,0,0)"><polygon points="77,210 77,93 87,93 87,210 " /><polygon points="97,210 97,70 107,70 107,210 " /><polygon points="117,210 117,147 127,147 127,210 " /><polygon points="137,210 137,156 147,156 147,210 " /><polygon points="157,210 157,93 167,93 167,210 " /><polygon points="177,210 177,93 187,93 187,210 " /><polygon points="197,210 197,70 207,70 207,210 " /><polygon points="217,210 217,70 227,70 227,210 " /><polygon points="237,210 237,147 247,147 247,210 " /><polygon points="257,210 257,156 267,156 267,210 " /><polygon points="277,210 277,93 287,93 287,210 " /><polygon points="297,210 297,70 307,70 307,210 " /><polygon points="317,210 317,156 327,156 327,210 " /><polygon points="337,210 337,147 347,147 347,210 " /><polygon points="357,210 357,93 367,93 367,210 " /><polygon points="377,210 377,93 387,93 387,210 " /></g><g fill="rgb(128,128,128)"><polygon points="40,80 40,90 60,90 60,80" /><polygon points="40,120 40,130 60,130 60,120" /><polygon points="40,160 40,170 60,170 60,160" /><polygon points="40,200 40,210 60,210 60,200" /><polygon points="77,220 77,240 87,240 87,220" /><polygon points="97,220 97,240 107,240 107,220" /><polygon points="117,220 117,240 127,240 127,220" /><polygon points="137,220 137,240 147,240 147,220" /><polygon points="157,220 157,240 167,240 167,220" /><polygon points="177,220 177,240 187,240 187,220" /><polygon points="197,220 197,240 207,240 207,220" /><polygon points="217,220 217,240 227,240 227,220" /><polygon points="237,220 237,240 247,240 247,220" /><polygon points="257,220 257,240 267,240 267,220" /><polygon points="277,220 277,240 287,240 287,220" /><polygon points="297,220 297,240 307,240 307,220" /><polygon points="317,220 317,240 327,240 327,220" /><polygon points="337,220 337,240 347,240 347,220" /><polygon points="357,220 357,240 367,240 367,220" /><polygon points="377,220 377,240 387,240 387,220" /></g><rect x="40" y="40" width="360" height="200" fill="none" stroke="rgb(0,0,0)" /></g></svg>