<?xml version="1.0" encoding="UTF-8" standalone="no"?>

<svg
   xmlns:svg="http://www.w3.org/2000/svg"
   xmlns="http://www.w3.org/2000/svg"
   version="1.1"
   viewBox="0 0 227.37125 155.50874">
  <path
     style="fill:#335b83;fill-opacity:1;fill-rule:evenodd;stroke:none"
     d="m 171.72625,38.119995 -25.91625,19.86 37.28125,-0.30375 -101.1475,78.980005 c 6.5325,2.45124 14.085,3.85249 22.13625,3.85249 18.18125,0 33.83875,-7.14375 40.90375,-17.415 5.70375,1.57375 11.94125,2.44375 18.4825,2.44375 27.00875,0 48.905,-14.8025 48.905,-33.061245 0,-13.0875 -11.25,-24.39875 -27.56875,-29.75625 1.67125,-2.41375 2.6175,-5.15875 2.6175,-8.07125 0,-7.68125 -6.57,-14.20125 -15.69375,-16.52875 M 64.85875,125.29 c -2.41625,0.32625 -4.90125,0.4975 -7.44,0.4975 C 33.99125,125.7875 15,111.32 15,93.473745 c 0,-17.64875 18.575,-31.9925 41.6475,-32.30625 -0.80125,-2.69125 -1.225,-5.49 -1.225,-8.365 0,-20.87875 22.2875,-37.8025 49.78,-37.8025 12.96625,0 24.775,3.7675 33.6325,9.93625 l -53.69125,71.3875 23.5075,-6.4275 -32.8975,43.961255 c -4.4,-2.3675 -8.10875,-5.27375 -10.895,-8.5675" />
</svg>
