<svg width="82" height="19" viewBox="0 0 82 19" fill="none" xmlns="http://www.w3.org/2000/svg">
<path fill-rule="evenodd" clip-rule="evenodd" d="M60.8305 15.8277C60.4839 15.8746 60.127 15.8989 59.7627 15.8989C56.401 15.8989 53.6753 13.8233 53.6753 11.2615C53.6753 8.72876 56.341 6.66997 59.6521 6.62501C59.5369 6.23911 59.476 5.83728 59.476 5.42421C59.476 2.42877 62.6747 0 66.62 0C68.4811 0 70.1755 0.540454 71.4466 1.4256L63.7416 11.6708L67.1155 10.7482L62.3947 17.0576C61.7624 16.7176 61.2304 16.3007 60.8305 15.8277ZM76.1674 3.31766C77.4768 3.65205 78.4191 4.58777 78.4191 5.68929C78.4191 6.10704 78.2833 6.50137 78.0435 6.84794C80.3852 7.61694 82 9.24017 82 11.1182C82 13.739 78.8575 15.8624 74.9816 15.8624C74.043 15.8624 73.1476 15.7378 72.3299 15.5111C71.3155 16.9854 69.0684 18.0101 66.4598 18.0101C65.3049 18.0101 64.2202 17.8088 63.2836 17.4575L77.7981 6.12484L72.4479 6.16886L76.1674 3.31766Z" fill="white"/>
<path d="M53.6753 4.60816C53.6753 4.85919 53.4786 5.05495 53.2229 5.05495C52.97 5.05495 52.7677 4.85825 52.7677 4.60816C52.7677 4.36276 52.97 4.167 53.2229 4.167C53.4786 4.16606 53.6753 4.36276 53.6753 4.60816ZM52.881 4.60816C52.881 4.80486 53.0262 4.96129 53.2257 4.96129C53.4196 4.96129 53.5629 4.80486 53.5629 4.61097C53.5629 4.41427 53.4206 4.25598 53.2239 4.25598C53.0262 4.25504 52.881 4.41427 52.881 4.60816ZM53.1527 4.83952H53.0506V4.39741C53.0909 4.38898 53.148 4.3843 53.2201 4.3843C53.3035 4.3843 53.3419 4.39741 53.3737 4.41615C53.3981 4.43488 53.4168 4.46954 53.4168 4.51356C53.4168 4.56227 53.3793 4.59973 53.325 4.61566V4.62128C53.3681 4.63814 53.3925 4.66998 53.4056 4.72899C53.4187 4.79643 53.4271 4.8236 53.4374 4.83952H53.3269C53.3138 4.8236 53.3053 4.78332 53.2922 4.7318C53.2838 4.6831 53.2576 4.66155 53.2004 4.66155H53.1527V4.83952ZM53.1555 4.58943H53.2032C53.2594 4.58943 53.3053 4.5707 53.3053 4.5248C53.3053 4.48452 53.2754 4.45736 53.2107 4.45736C53.1836 4.45736 53.1648 4.46017 53.1545 4.46298V4.58943H53.1555Z" fill="white"/>
<path d="M0 7.87629C0 7.39841 0.0845487 6.92788 0.253646 6.4647C0.430095 5.99416 0.683741 5.5751 1.01458 5.20749C1.34543 4.83989 1.74979 4.54213 2.22767 4.31422C2.70556 4.0863 3.24961 3.97235 3.85983 3.97235C4.58033 3.97235 5.20158 4.13042 5.72358 4.44656C6.25293 4.76269 6.64626 5.17441 6.90358 5.6817L5.73461 6.48675C5.63168 6.26619 5.50669 6.08239 5.35965 5.93535C5.21261 5.78095 5.05454 5.65965 4.88544 5.57142C4.71635 5.4832 4.5399 5.4207 4.35609 5.38394C4.17229 5.33983 3.99217 5.31777 3.81572 5.31777C3.43341 5.31777 3.09889 5.39497 2.81216 5.54936C2.53278 5.70376 2.29752 5.90594 2.10636 6.15591C1.92256 6.39853 1.78287 6.67791 1.6873 6.99404C1.59172 7.30283 1.54393 7.61162 1.54393 7.9204C1.54393 8.26595 1.59907 8.60047 1.70935 8.92396C1.81963 9.2401 1.97403 9.51948 2.17253 9.76209C2.37839 10.0047 2.62101 10.1995 2.90039 10.3466C3.18712 10.4936 3.49958 10.5671 3.83777 10.5671C4.01422 10.5671 4.19803 10.5451 4.38918 10.501C4.58033 10.4569 4.76046 10.387 4.92956 10.2914C5.106 10.1959 5.26775 10.0746 5.41479 9.92752C5.56183 9.77312 5.67947 9.58932 5.76769 9.37611L7.01386 10.0929C6.88888 10.387 6.70875 10.648 6.47349 10.8759C6.24557 11.0965 5.98458 11.284 5.69049 11.4384C5.40376 11.5928 5.09498 11.7104 4.76413 11.7913C4.43329 11.8721 4.1098 11.9126 3.79366 11.9126C3.23491 11.9126 2.72394 11.7949 2.26076 11.5597C1.79758 11.3244 1.39689 11.0193 1.0587 10.6443C0.727854 10.262 0.466856 9.83194 0.275702 9.35406C0.0919007 8.86882 0 8.37623 0 7.87629Z" fill="white"/>
<path d="M7.88009 3.7959H9.35785V9.99368C9.35785 10.2069 9.40931 10.3723 9.51224 10.4899C9.61517 10.6076 9.76221 10.6664 9.95337 10.6664C10.0416 10.6664 10.1372 10.6517 10.2401 10.6223C10.3504 10.5929 10.4533 10.5561 10.5489 10.512L10.7474 11.6369C10.5489 11.7324 10.3173 11.806 10.0526 11.8574C9.78795 11.9089 9.549 11.9346 9.33579 11.9346C8.87261 11.9346 8.51236 11.8133 8.25504 11.5707C8.00507 11.3207 7.88009 10.9678 7.88009 10.512V3.7959Z" fill="white"/>
<path d="M14.06 11.9567C13.5895 11.9567 13.1668 11.8758 12.7918 11.7141C12.4169 11.5523 12.097 11.3354 11.8324 11.0634C11.575 10.784 11.3765 10.4642 11.2368 10.104C11.0972 9.74371 11.0273 9.36508 11.0273 8.96807C11.0273 8.56371 11.0972 8.1814 11.2368 7.82115C11.3765 7.4609 11.575 7.14476 11.8324 6.87274C12.097 6.59336 12.4169 6.37279 12.7918 6.21105C13.1668 6.0493 13.5895 5.96843 14.06 5.96843C14.5306 5.96843 14.9496 6.0493 15.3172 6.21105C15.6922 6.37279 16.0083 6.59336 16.2657 6.87274C16.5303 7.14476 16.7325 7.4609 16.8722 7.82115C17.0119 8.1814 17.0817 8.56371 17.0817 8.96807C17.0817 9.36508 17.0119 9.74371 16.8722 10.104C16.7325 10.4642 16.534 10.784 16.2767 11.0634C16.0194 11.3354 15.7032 11.5523 15.3283 11.7141C14.9533 11.8758 14.5306 11.9567 14.06 11.9567ZM12.5492 8.96807C12.5492 9.22539 12.586 9.46066 12.6595 9.67387C12.7403 9.87973 12.8469 10.0599 12.9793 10.2142C13.119 10.3686 13.2807 10.4899 13.4645 10.5782C13.6483 10.659 13.8468 10.6995 14.06 10.6995C14.2732 10.6995 14.4718 10.659 14.6556 10.5782C14.8394 10.4899 14.9974 10.3686 15.1298 10.2142C15.2695 10.0599 15.3761 9.87605 15.4496 9.66284C15.5304 9.44963 15.5709 9.21437 15.5709 8.95704C15.5709 8.70707 15.5304 8.47548 15.4496 8.26227C15.3761 8.04906 15.2695 7.86526 15.1298 7.71087C14.9974 7.55648 14.8394 7.43884 14.6556 7.35797C14.4718 7.26975 14.2732 7.22563 14.06 7.22563C13.8468 7.22563 13.6483 7.26975 13.4645 7.35797C13.2807 7.4462 13.119 7.5675 12.9793 7.7219C12.8469 7.87629 12.7403 8.06009 12.6595 8.2733C12.586 8.48651 12.5492 8.7181 12.5492 8.96807Z" fill="white"/>
<path d="M19.8437 11.9567C19.2481 11.9567 18.796 11.7655 18.4872 11.3832C18.1784 11.0009 18.024 10.4348 18.024 9.6849V6.06768H19.5018V9.36508C19.5018 10.2547 19.8216 10.6995 20.4612 10.6995C20.748 10.6995 21.0237 10.6149 21.2883 10.4458C21.5604 10.2694 21.7809 10.0047 21.95 9.65181V6.06768H23.4278V10.1481C23.4278 10.3025 23.4535 10.4128 23.505 10.4789C23.5638 10.5451 23.6557 10.5818 23.7807 10.5892V11.8464C23.6337 11.8758 23.5087 11.8942 23.4057 11.9015C23.3102 11.9089 23.2219 11.9126 23.1411 11.9126C22.8764 11.9126 22.6595 11.8538 22.4904 11.7361C22.3287 11.6111 22.2331 11.442 22.2037 11.2288L22.1706 10.7657C21.9133 11.1627 21.5824 11.4604 21.1781 11.6589C20.7737 11.8574 20.3289 11.9567 19.8437 11.9567Z" fill="white"/>
<path d="M27.2894 11.9567C26.8924 11.9567 26.5248 11.8795 26.1866 11.7251C25.8484 11.5707 25.558 11.3575 25.3154 11.0855C25.0728 10.8134 24.8816 10.4973 24.7419 10.137C24.6096 9.76945 24.5434 9.37611 24.5434 8.95704C24.5434 8.53798 24.6059 8.14832 24.7309 7.78807C24.8633 7.42782 25.0434 7.11168 25.2713 6.83965C25.4992 6.56762 25.7712 6.35441 26.0874 6.20002C26.4035 6.04563 26.7491 5.96843 27.124 5.96843C27.5504 5.96843 27.9327 6.07136 28.2709 6.27722C28.6165 6.48308 28.8848 6.75143 29.076 7.08227V3.7959H30.5537V10.1481C30.5537 10.3025 30.5795 10.4128 30.6309 10.4789C30.6824 10.5451 30.7706 10.5818 30.8956 10.5892V11.8464C30.6383 11.8979 30.4288 11.9236 30.267 11.9236C30.0023 11.9236 29.7855 11.8574 29.6164 11.7251C29.4473 11.5928 29.3517 11.42 29.3296 11.2068L29.2965 10.8428C29.0833 11.2104 28.7929 11.4898 28.4253 11.681C28.0651 11.8648 27.6864 11.9567 27.2894 11.9567ZM27.6754 10.6995C27.8151 10.6995 27.9585 10.6774 28.1055 10.6333C28.2526 10.5818 28.3886 10.512 28.5136 10.4238C28.6385 10.3356 28.7488 10.2326 28.8444 10.115C28.9473 9.99736 29.0245 9.8687 29.076 9.72901V8.3505C29.0172 8.18875 28.9326 8.04171 28.8223 7.90938C28.7194 7.76969 28.5981 7.65205 28.4584 7.55648C28.3261 7.45355 28.1827 7.37267 28.0283 7.31386C27.8813 7.25504 27.7342 7.22563 27.5872 7.22563C27.3666 7.22563 27.1608 7.27342 26.9696 7.369C26.7858 7.46458 26.6278 7.59691 26.4954 7.76601C26.3631 7.92776 26.2601 8.11523 26.1866 8.32844C26.1131 8.54165 26.0763 8.76221 26.0763 8.99013C26.0763 9.23275 26.1168 9.45698 26.1977 9.66284C26.2785 9.8687 26.3888 10.0488 26.5285 10.2032C26.6682 10.3576 26.8336 10.4789 27.0248 10.5671C27.2233 10.6554 27.4402 10.6995 27.6754 10.6995Z" fill="white"/>
<path d="M38.4557 9.82826C38.4557 10.1591 38.3895 10.4495 38.2572 10.6995C38.1249 10.9495 37.9411 11.159 37.7058 11.3281C37.4779 11.4972 37.2095 11.6258 36.9008 11.7141C36.5993 11.8023 36.2758 11.8464 35.9303 11.8464H32.1477V4.01646H36.3383C36.6104 4.01646 36.8566 4.07528 37.0772 4.19291C37.2978 4.31054 37.4852 4.46494 37.6396 4.65609C37.794 4.83989 37.9117 5.0531 37.9925 5.29572C38.0808 5.53098 38.1249 5.76993 38.1249 6.01254C38.1249 6.39485 38.0293 6.7551 37.8381 7.0933C37.647 7.42414 37.3676 7.67043 37 7.83218C37.4485 7.96452 37.8014 8.20346 38.0587 8.549C38.3234 8.8872 38.4557 9.31362 38.4557 9.82826ZM36.9228 9.54153C36.9228 9.40184 36.8971 9.26951 36.8456 9.14452C36.8015 9.01218 36.739 8.89823 36.6581 8.80265C36.5773 8.70707 36.4817 8.63355 36.3714 8.58209C36.2611 8.52327 36.1398 8.49386 36.0075 8.49386H33.6695V10.5561H35.9303C36.07 10.5561 36.1986 10.5304 36.3163 10.4789C36.4413 10.4275 36.5479 10.3576 36.6361 10.2694C36.7243 10.1738 36.7942 10.0635 36.8456 9.93854C36.8971 9.81356 36.9228 9.68122 36.9228 9.54153ZM33.6695 5.31777V7.2918H35.6987C35.956 7.2918 36.1729 7.20358 36.3494 7.02713C36.5332 6.85068 36.6251 6.60806 36.6251 6.29927C36.6251 5.99784 36.5405 5.7589 36.3714 5.58245C36.2097 5.406 36.0075 5.31777 35.7649 5.31777H33.6695Z" fill="white"/>
<path d="M42.1687 11.9567C41.6982 11.9567 41.2755 11.8758 40.9005 11.7141C40.5256 11.5523 40.2057 11.3354 39.9411 11.0634C39.6837 10.784 39.4852 10.4642 39.3455 10.104C39.2059 9.74371 39.136 9.36508 39.136 8.96807C39.136 8.56371 39.2059 8.1814 39.3455 7.82115C39.4852 7.4609 39.6837 7.14476 39.9411 6.87274C40.2057 6.59336 40.5256 6.37279 40.9005 6.21105C41.2755 6.0493 41.6982 5.96843 42.1687 5.96843C42.6393 5.96843 43.0583 6.0493 43.4259 6.21105C43.8009 6.37279 44.117 6.59336 44.3744 6.87274C44.639 7.14476 44.8412 7.4609 44.9809 7.82115C45.1206 8.1814 45.1904 8.56371 45.1904 8.96807C45.1904 9.36508 45.1206 9.74371 44.9809 10.104C44.8412 10.4642 44.6427 10.784 44.3854 11.0634C44.1281 11.3354 43.8119 11.5523 43.437 11.7141C43.062 11.8758 42.6393 11.9567 42.1687 11.9567ZM40.6579 8.96807C40.6579 9.22539 40.6946 9.46066 40.7682 9.67387C40.849 9.87973 40.9556 10.0599 41.088 10.2142C41.2277 10.3686 41.3894 10.4899 41.5732 10.5782C41.757 10.659 41.9555 10.6995 42.1687 10.6995C42.3819 10.6995 42.5805 10.659 42.7643 10.5782C42.9481 10.4899 43.1061 10.3686 43.2385 10.2142C43.3782 10.0599 43.4848 9.87605 43.5583 9.66284C43.6391 9.44963 43.6796 9.21437 43.6796 8.95704C43.6796 8.70707 43.6391 8.47548 43.5583 8.26227C43.4848 8.04906 43.3782 7.86526 43.2385 7.71087C43.1061 7.55648 42.9481 7.43884 42.7643 7.35797C42.5805 7.26975 42.3819 7.22563 42.1687 7.22563C41.9555 7.22563 41.757 7.26975 41.5732 7.35797C41.3894 7.4462 41.2277 7.5675 41.088 7.7219C40.9556 7.87629 40.849 8.06009 40.7682 8.2733C40.6946 8.48651 40.6579 8.7181 40.6579 8.96807Z" fill="white"/>
<path d="M46.1768 3.7959H47.6546V9.99368C47.6546 10.2069 47.7061 10.3723 47.809 10.4899C47.9119 10.6076 48.059 10.6664 48.2501 10.6664C48.3384 10.6664 48.4339 10.6517 48.5369 10.6223C48.6471 10.5929 48.7501 10.5561 48.8456 10.512L49.0442 11.6369C48.8456 11.7324 48.6141 11.806 48.3494 11.8574C48.0847 11.9089 47.8458 11.9346 47.6326 11.9346C47.1694 11.9346 46.8091 11.8133 46.5518 11.5707C46.3018 11.3207 46.1768 10.9678 46.1768 10.512V3.7959Z" fill="white"/>
<path d="M53.1508 11.5486C52.9523 11.6369 52.7097 11.7251 52.423 11.8133C52.1362 11.9015 51.8348 11.9457 51.5187 11.9457C51.3128 11.9457 51.118 11.9199 50.9342 11.8685C50.7577 11.817 50.5997 11.7361 50.46 11.6258C50.3276 11.5082 50.221 11.3612 50.1401 11.1847C50.0593 11.0009 50.0188 10.7804 50.0188 10.523V7.20358H49.2579V6.06768H50.0188V4.19291H51.4966V6.06768H52.7097V7.20358H51.4966V10.0268C51.4966 10.2326 51.5481 10.3797 51.651 10.4679C51.7613 10.5488 51.8936 10.5892 52.048 10.5892C52.2024 10.5892 52.3531 10.5635 52.5002 10.512C52.6472 10.4605 52.7648 10.4164 52.8531 10.3797L53.1508 11.5486Z" fill="white"/>
<path d="M29.9775 17.6545C29.7254 17.6545 29.4839 17.6125 29.2528 17.5285C29.0217 17.4445 28.8201 17.3185 28.6478 17.1504L28.8054 16.9361C28.9818 17.0958 29.1646 17.2134 29.3536 17.289C29.5427 17.3647 29.7506 17.4025 29.9775 17.4025C30.2632 17.4025 30.4921 17.3437 30.6644 17.226C30.8408 17.1042 30.9291 16.9361 30.9291 16.7219C30.9291 16.6211 30.906 16.537 30.8597 16.4698C30.8177 16.3984 30.7526 16.3396 30.6644 16.2934C30.5762 16.243 30.4669 16.1988 30.3367 16.161C30.2065 16.1232 30.0552 16.0833 29.883 16.0413C29.6981 15.9993 29.5364 15.9573 29.3977 15.9153C29.2633 15.8732 29.152 15.8228 29.0637 15.764C28.9755 15.7052 28.9083 15.6338 28.8621 15.5498C28.8201 15.4657 28.7991 15.3586 28.7991 15.2284C28.7991 15.0645 28.8306 14.9217 28.8936 14.7998C28.9566 14.678 29.0427 14.5772 29.152 14.4974C29.2654 14.4175 29.3935 14.3587 29.5364 14.3209C29.6834 14.2789 29.8389 14.2579 30.0027 14.2579C30.259 14.2579 30.4858 14.302 30.6833 14.3902C30.8808 14.4743 31.0341 14.5835 31.1433 14.7179L30.9669 14.8881C30.8576 14.762 30.7148 14.6675 30.5384 14.6045C30.3661 14.5415 30.1813 14.51 29.9838 14.51C29.862 14.51 29.7464 14.5226 29.6372 14.5478C29.5322 14.573 29.4397 14.6129 29.3599 14.6675C29.2801 14.7221 29.2171 14.7935 29.1709 14.8818C29.1247 14.9658 29.1016 15.0666 29.1016 15.1843C29.1016 15.2809 29.1163 15.3586 29.1457 15.4174C29.1793 15.4762 29.2297 15.5267 29.2969 15.5687C29.3683 15.6107 29.4587 15.6485 29.5679 15.6821C29.6771 15.7115 29.8074 15.7451 29.9586 15.7829C30.1645 15.8333 30.3472 15.8816 30.5068 15.9279C30.6665 15.9741 30.7988 16.0308 30.9039 16.098C31.0131 16.1652 31.095 16.2451 31.1496 16.3375C31.2084 16.4299 31.2379 16.5475 31.2379 16.6904C31.2379 16.9845 31.1223 17.2197 30.8913 17.3962C30.6644 17.5684 30.3598 17.6545 29.9775 17.6545Z" fill="white"/>
<path d="M33.3454 17.6545C33.1144 17.6545 32.9001 17.6104 32.7027 17.5222C32.5094 17.4298 32.3414 17.3058 32.1985 17.1504C32.0557 16.995 31.9444 16.8143 31.8645 16.6085C31.7847 16.4026 31.7448 16.1862 31.7448 15.9594C31.7448 15.7283 31.7847 15.5098 31.8645 15.304C31.9486 15.0981 32.062 14.9175 32.2048 14.762C32.3477 14.6066 32.5157 14.4848 32.709 14.3965C32.9064 14.3041 33.1186 14.2579 33.3454 14.2579C33.5723 14.2579 33.7824 14.3041 33.9756 14.3965C34.1689 14.4848 34.3369 14.6066 34.4798 14.762C34.6268 14.9175 34.7402 15.0981 34.8201 15.304C34.9041 15.5098 34.9461 15.7283 34.9461 15.9594C34.9461 16.1862 34.9041 16.4026 34.8201 16.6085C34.7402 16.8143 34.6289 16.995 34.4861 17.1504C34.3432 17.3058 34.1731 17.4298 33.9756 17.5222C33.7824 17.6104 33.5723 17.6545 33.3454 17.6545ZM32.0599 15.972C32.0599 16.1652 32.0935 16.348 32.1607 16.5202C32.2279 16.6883 32.3183 16.8353 32.4317 16.9614C32.5493 17.0874 32.6859 17.1882 32.8413 17.2638C32.9968 17.3353 33.1627 17.371 33.3391 17.371C33.5156 17.371 33.6815 17.3353 33.837 17.2638C33.9924 17.1882 34.129 17.0853 34.2466 16.9551C34.3642 16.8248 34.4567 16.6757 34.5239 16.5076C34.5911 16.3354 34.6247 16.1505 34.6247 15.9531C34.6247 15.7598 34.5911 15.5792 34.5239 15.4111C34.4567 15.2389 34.3642 15.0897 34.2466 14.9637C34.129 14.8335 33.9924 14.7305 33.837 14.6549C33.6857 14.5793 33.5219 14.5415 33.3454 14.5415C33.169 14.5415 33.0031 14.5793 32.8476 14.6549C32.6922 14.7305 32.5556 14.8335 32.438 14.9637C32.3246 15.0939 32.2321 15.2473 32.1607 15.4237C32.0935 15.596 32.0599 15.7787 32.0599 15.972Z" fill="white"/>
<path d="M35.7967 17.5915V14.573H35.3367V14.3146H35.7967V14.2075C35.7967 13.8042 35.8787 13.4912 36.0425 13.2685C36.2064 13.0417 36.4332 12.9282 36.7231 12.9282C36.8491 12.9282 36.971 12.9471 37.0886 12.9849C37.2062 13.0227 37.3029 13.0732 37.3785 13.1362L37.265 13.363C37.2062 13.3168 37.1327 13.279 37.0445 13.2496C36.9605 13.2202 36.8722 13.2055 36.7798 13.2055C36.5656 13.2055 36.3996 13.2916 36.282 13.4639C36.1685 13.6319 36.1118 13.8777 36.1118 14.2012V14.3146H37.0445V14.573H36.1118V17.5915H35.7967Z" fill="white"/>
<path d="M39.12 17.434C39.1032 17.4424 39.0738 17.4592 39.0318 17.4844C38.994 17.5054 38.9436 17.5264 38.8806 17.5474C38.8217 17.5684 38.7545 17.5873 38.6789 17.6041C38.6033 17.6209 38.5214 17.6293 38.4331 17.6293C38.3449 17.6293 38.2609 17.6167 38.1811 17.5915C38.1054 17.5663 38.0382 17.5285 37.9794 17.4781C37.9206 17.4277 37.8744 17.3668 37.8408 17.2953C37.8072 17.2239 37.7904 17.1399 37.7904 17.0433V14.573H37.3303V14.3146H37.7904V13.1929H38.1054V14.3146H38.868V14.573H38.1054V16.9677C38.1054 17.0895 38.1475 17.1819 38.2315 17.2449C38.3155 17.3037 38.41 17.3332 38.5151 17.3332C38.6453 17.3332 38.7566 17.3122 38.8491 17.2701C38.9457 17.2239 39.0045 17.1945 39.0255 17.1819L39.12 17.434Z" fill="white"/>
<path d="M43.8294 14.3146H44.1445L42.7266 17.5915H42.4619L41.7246 15.8585L40.9873 17.5915H40.7226L39.3048 14.3146H39.6135L40.8676 17.2449L41.5545 15.6317L40.9999 14.3209H41.2709L41.7246 15.4048L42.1721 14.3209H42.4493L41.8948 15.6317L42.5817 17.2449L43.8294 14.3146Z" fill="white"/>
<path d="M45.4803 17.6545C45.329 17.6545 45.1883 17.6293 45.0581 17.5789C44.9278 17.5243 44.8123 17.4529 44.7115 17.3647C44.6148 17.2722 44.5392 17.1651 44.4846 17.0433C44.43 16.9172 44.4027 16.7828 44.4027 16.64C44.4027 16.4971 44.4363 16.3669 44.5035 16.2493C44.5707 16.1316 44.6632 16.0308 44.7808 15.9468C44.9026 15.8585 45.0476 15.7913 45.2156 15.7451C45.3837 15.6947 45.5685 15.6695 45.7702 15.6695C45.9466 15.6695 46.1231 15.6863 46.2995 15.7199C46.4802 15.7493 46.6419 15.7913 46.7847 15.8459V15.5245C46.7847 15.2137 46.6965 14.9679 46.5201 14.7872C46.3436 14.6024 46.1042 14.51 45.8017 14.51C45.642 14.51 45.4719 14.5436 45.2912 14.6108C45.1148 14.678 44.9341 14.7746 44.7493 14.9007L44.6295 14.6864C45.0497 14.4007 45.4488 14.2579 45.8269 14.2579C46.2218 14.2579 46.5327 14.3734 46.7595 14.6045C46.9864 14.8314 47.0998 15.1464 47.0998 15.5498V17.1504C47.0998 17.2554 47.1461 17.3079 47.2385 17.3079V17.5915C47.2175 17.5957 47.1944 17.5978 47.1692 17.5978C47.1482 17.602 47.1292 17.6041 47.1124 17.6041C47.0284 17.6041 46.9612 17.5768 46.9108 17.5222C46.8604 17.4634 46.831 17.3941 46.8226 17.3143V17.0433C46.6713 17.2407 46.4781 17.392 46.2428 17.497C46.0075 17.602 45.7534 17.6545 45.4803 17.6545ZM45.5433 17.4025C45.787 17.4025 46.0096 17.3563 46.2113 17.2638C46.4171 17.1714 46.5747 17.0496 46.6839 16.8983C46.7511 16.8101 46.7847 16.7261 46.7847 16.6463V16.0665C46.6335 16.0077 46.476 15.9636 46.3121 15.9342C46.1483 15.9048 45.9781 15.8901 45.8017 15.8901C45.6378 15.8901 45.4887 15.909 45.3542 15.9468C45.2198 15.9804 45.1043 16.0287 45.0077 16.0917C44.911 16.1547 44.8354 16.2324 44.7808 16.3249C44.7304 16.4131 44.7052 16.5118 44.7052 16.6211C44.7052 16.7303 44.7262 16.8332 44.7682 16.9298C44.8102 17.0265 44.869 17.1105 44.9446 17.1819C45.0203 17.2491 45.1085 17.3037 45.2093 17.3458C45.3143 17.3836 45.4257 17.4025 45.5433 17.4025Z" fill="white"/>
<path d="M49.6086 14.5982C49.3145 14.6066 49.0562 14.6948 48.8335 14.8629C48.6151 15.0267 48.4617 15.2536 48.3735 15.5435V17.5915H48.0584V14.3146H48.3609V15.1212C48.4743 14.8902 48.6235 14.7032 48.8083 14.5604C48.9974 14.4133 49.199 14.3293 49.4133 14.3083C49.4553 14.3041 49.4931 14.302 49.5267 14.302C49.5603 14.302 49.5876 14.302 49.6086 14.302V14.5982Z" fill="white"/>
<path d="M51.4327 17.6545C51.2016 17.6545 50.9874 17.6104 50.7899 17.5222C50.5925 17.4298 50.4202 17.3058 50.2732 17.1504C50.1303 16.9908 50.0169 16.808 49.9329 16.6022C49.8531 16.3963 49.8131 16.1757 49.8131 15.9405C49.8131 15.7094 49.8531 15.493 49.9329 15.2914C50.0169 15.0855 50.1303 14.907 50.2732 14.7557C50.416 14.6003 50.5841 14.4785 50.7773 14.3902C50.9748 14.302 51.1869 14.2579 51.4138 14.2579C51.6449 14.2579 51.8591 14.3041 52.0566 14.3965C52.254 14.4848 52.4242 14.6066 52.567 14.762C52.7099 14.9133 52.8212 15.0918 52.901 15.2977C52.9808 15.4993 53.0207 15.7136 53.0207 15.9405C53.0207 15.9615 53.0207 15.9888 53.0207 16.0224C53.0207 16.0518 53.0186 16.0707 53.0144 16.0791H50.1408C50.1534 16.2682 50.1975 16.4446 50.2732 16.6085C50.3488 16.7681 50.4433 16.9067 50.5567 17.0244C50.6744 17.142 50.8088 17.2344 50.9601 17.3016C51.1113 17.3689 51.273 17.4025 51.4453 17.4025C51.5587 17.4025 51.6701 17.3878 51.7793 17.3584C51.8885 17.3248 51.9894 17.2806 52.0818 17.226C52.1784 17.1714 52.2624 17.1063 52.3338 17.0307C52.4095 16.9508 52.4683 16.8647 52.5103 16.7723L52.7876 16.8479C52.7414 16.9656 52.672 17.0748 52.5796 17.1756C52.4914 17.2722 52.3864 17.3563 52.2645 17.4277C52.1469 17.4991 52.0167 17.5537 51.8738 17.5915C51.731 17.6335 51.5839 17.6545 51.4327 17.6545ZM52.7183 15.827C52.7057 15.6338 52.6615 15.4573 52.5859 15.2977C52.5145 15.138 52.42 15.0015 52.3023 14.8881C52.1889 14.7704 52.0566 14.6801 51.9053 14.6171C51.7541 14.5499 51.5923 14.5163 51.4201 14.5163C51.2478 14.5163 51.0861 14.5499 50.9349 14.6171C50.7836 14.6801 50.6492 14.7704 50.5315 14.8881C50.4181 15.0015 50.3257 15.1401 50.2543 15.304C50.187 15.4636 50.1471 15.638 50.1345 15.827H52.7183Z" fill="white"/>
</svg>
