<svg width="224" height="50" viewBox="0 0 224 50" fill="none" xmlns="http://www.w3.org/2000/svg">
<path fill-rule="evenodd" clip-rule="evenodd" d="M166.171 43.2367C165.224 43.3646 164.249 43.4312 163.254 43.4312C154.071 43.4312 146.625 37.7611 146.625 30.7631C146.625 23.8444 153.907 18.2204 162.952 18.0976C162.638 17.0434 162.471 15.9457 162.471 14.8174C162.471 6.63468 171.209 0 181.986 0C187.07 0 191.699 1.47636 195.171 3.89432L174.123 31.8812L183.34 29.3609L170.444 46.5963C168.717 45.6675 167.264 44.5288 166.171 43.2367ZM208.067 9.06287C211.644 9.97632 214.218 12.5325 214.218 15.5415C214.218 16.6826 213.847 17.7598 213.192 18.7066C219.589 20.8072 224 25.2415 224 30.3716C224 37.5308 215.416 43.3314 204.828 43.3314C202.264 43.3314 199.818 42.9911 197.584 42.3719C194.813 46.3992 188.675 49.1984 181.549 49.1984C178.394 49.1984 175.431 48.6483 172.872 47.6888L212.522 16.7313L197.906 16.8515L208.067 9.06287Z" fill="#0C4F8B"/>
<path d="M146.625 12.5887C146.625 13.2744 146.088 13.8092 145.39 13.8092C144.699 13.8092 144.146 13.2719 144.146 12.5887C144.146 11.9183 144.699 11.3836 145.39 11.3836C146.088 11.381 146.625 11.9183 146.625 12.5887ZM144.456 12.5887C144.456 13.126 144.852 13.5533 145.397 13.5533C145.927 13.5533 146.318 13.126 146.318 12.5964C146.318 12.059 145.929 11.6266 145.392 11.6266C144.852 11.6241 144.456 12.059 144.456 12.5887ZM145.198 13.2207H144.919V12.013C145.029 11.99 145.185 11.9772 145.382 11.9772C145.61 11.9772 145.714 12.013 145.801 12.0642C145.868 12.1153 145.919 12.21 145.919 12.3303C145.919 12.4633 145.817 12.5657 145.668 12.6092V12.6245C145.786 12.6706 145.853 12.7576 145.888 12.9188C145.924 13.103 145.947 13.1772 145.975 13.2207H145.674C145.638 13.1772 145.615 13.0672 145.579 12.9264C145.556 12.7934 145.484 12.7345 145.328 12.7345H145.198V13.2207ZM145.205 12.5375H145.336C145.489 12.5375 145.615 12.4863 145.615 12.361C145.615 12.2509 145.533 12.1767 145.356 12.1767C145.282 12.1767 145.231 12.1844 145.203 12.1921V12.5375H145.205Z" fill="#7B868C"/>
<path d="M0 21.5153C0 20.2099 0.230962 18.9245 0.692887 17.6593C1.17489 16.3739 1.86778 15.2291 2.77155 14.225C3.67531 13.2208 4.77991 12.4074 6.08535 11.7848C7.39079 11.1622 8.87698 10.8509 10.5439 10.8509C12.5121 10.8509 14.2092 11.2827 15.6351 12.1463C17.0812 13.0099 18.1556 14.1346 18.8586 15.5204L15.6653 17.7195C15.3841 17.117 15.0427 16.6149 14.641 16.2132C14.2393 15.7915 13.8075 15.4601 13.3456 15.2191C12.8837 14.9781 12.4017 14.8074 11.8996 14.707C11.3975 14.5865 10.9054 14.5262 10.4234 14.5262C9.37908 14.5262 8.46527 14.7371 7.68201 15.1589C6.91883 15.5806 6.27615 16.1329 5.75397 16.8158C5.25188 17.4785 4.87029 18.2417 4.6092 19.1053C4.34812 19.9488 4.21757 20.7923 4.21757 21.6358C4.21757 22.5798 4.3682 23.4936 4.66945 24.3773C4.97071 25.2409 5.39247 26.004 5.93473 26.6668C6.49707 27.3296 7.15983 27.8618 7.92301 28.2634C8.70627 28.6651 9.55983 28.866 10.4837 28.866C10.9657 28.866 11.4678 28.8057 11.99 28.6852C12.5121 28.5647 13.0042 28.3739 13.4661 28.1128C13.9481 27.8517 14.39 27.5204 14.7916 27.1187C15.1933 26.6969 15.5146 26.1948 15.7556 25.6124L19.1598 27.5706C18.8184 28.3739 18.3264 29.0869 17.6837 29.7095C17.0611 30.312 16.3481 30.8241 15.5448 31.2459C14.7615 31.6676 13.918 31.989 13.0142 32.2099C12.1105 32.4308 11.2268 32.5413 10.3632 32.5413C8.83682 32.5413 7.441 32.2199 6.17573 31.5773C4.91046 30.9346 3.8159 30.1011 2.89205 29.0768C1.98828 28.0325 1.27531 26.8576 0.753138 25.5522C0.251046 24.2266 0 22.881 0 21.5153Z" fill="black"/>
<path d="M21.5261 10.3689H25.5629V27.2994C25.5629 27.8819 25.7035 28.3337 25.9847 28.6551C26.2658 28.9764 26.6675 29.1371 27.1897 29.1371C27.4307 29.1371 27.6918 29.0969 27.9729 29.0166C28.2742 28.9363 28.5554 28.8358 28.8165 28.7153L29.3587 31.7881C28.8165 32.0492 28.1838 32.2501 27.4608 32.3906C26.7378 32.5312 26.0851 32.6015 25.5027 32.6015C24.2374 32.6015 23.2533 32.2701 22.5504 31.6074C21.8675 30.9245 21.5261 29.9605 21.5261 28.7153V10.3689Z" fill="black"/>
<path d="M38.4079 32.6618C37.1226 32.6618 35.9677 32.4409 34.9435 31.999C33.9192 31.5572 33.0456 30.9647 32.3226 30.2216C31.6196 29.4584 31.0774 28.5848 30.6958 27.6007C30.3142 26.6166 30.1234 25.5823 30.1234 24.4978C30.1234 23.3932 30.3142 22.3488 30.6958 21.3647C31.0774 20.3806 31.6196 19.517 32.3226 18.7739C33.0456 18.0107 33.9192 17.4082 34.9435 16.9664C35.9677 16.5245 37.1226 16.3036 38.4079 16.3036C39.6933 16.3036 40.838 16.5245 41.8422 16.9664C42.8665 17.4082 43.7301 18.0107 44.433 18.7739C45.156 19.517 45.7083 20.3806 46.0899 21.3647C46.4715 22.3488 46.6623 23.3932 46.6623 24.4978C46.6623 25.5823 46.4715 26.6166 46.0899 27.6007C45.7083 28.5848 45.1661 29.4584 44.4631 30.2216C43.7602 30.9647 42.8966 31.5572 41.8723 31.999C40.8481 32.4409 39.6933 32.6618 38.4079 32.6618ZM34.2807 24.4978C34.2807 25.2007 34.3811 25.8434 34.582 26.4258C34.8029 26.9881 35.0941 27.4802 35.4556 27.9019C35.8372 28.3237 36.279 28.6551 36.7811 28.8961C37.2832 29.117 37.8255 29.2275 38.4079 29.2275C38.9903 29.2275 39.5326 29.117 40.0347 28.8961C40.5368 28.6551 40.9686 28.3237 41.3301 27.9019C41.7117 27.4802 42.0029 26.9781 42.2037 26.3957C42.4246 25.8132 42.5351 25.1706 42.5351 24.4676C42.5351 23.7848 42.4246 23.1522 42.2037 22.5697C42.0029 21.9873 41.7117 21.4852 41.3301 21.0635C40.9686 20.6417 40.5368 20.3204 40.0347 20.0994C39.5326 19.8584 38.9903 19.7379 38.4079 19.7379C37.8255 19.7379 37.2832 19.8584 36.7811 20.0994C36.279 20.3404 35.8372 20.6718 35.4556 21.0936C35.0941 21.5153 34.8029 22.0174 34.582 22.5999C34.3811 23.1823 34.2807 23.8149 34.2807 24.4978Z" fill="black"/>
<path d="M54.2071 32.6618C52.5803 32.6618 51.3452 32.1396 50.5017 31.0952C49.6581 30.0509 49.2364 28.5045 49.2364 26.4559V16.5748H53.2732V25.5823C53.2732 28.0124 54.1468 29.2275 55.8941 29.2275C56.6774 29.2275 57.4305 28.9965 58.1535 28.5346C58.8966 28.0526 59.4991 27.3296 59.9611 26.3655V16.5748H63.9979V27.7212C63.9979 28.1429 64.0682 28.4442 64.2088 28.625C64.3694 28.8057 64.6205 28.9061 64.9619 28.9262V32.3605C64.5602 32.4409 64.2188 32.4911 63.9376 32.5111C63.6765 32.5312 63.4355 32.5413 63.2146 32.5413C62.4916 32.5413 61.8991 32.3806 61.4372 32.0593C60.9954 31.7178 60.7343 31.2559 60.6539 30.6735L60.5636 29.4082C59.8606 30.4927 58.9569 31.3061 57.8523 31.8484C56.7477 32.3906 55.5326 32.6618 54.2071 32.6618Z" fill="black"/>
<path d="M74.5467 32.6618C73.4622 32.6618 72.458 32.4509 71.5342 32.0291C70.6103 31.6074 69.817 31.025 69.1543 30.2819C68.4915 29.5388 67.9693 28.6752 67.5878 27.6911C67.2262 26.6869 67.0455 25.6124 67.0455 24.4676C67.0455 23.3229 67.2162 22.2584 67.5576 21.2743C67.9191 20.2902 68.4112 19.4266 69.0338 18.6835C69.6564 17.9404 70.3995 17.358 71.2631 16.9363C72.1267 16.5145 73.0706 16.3036 74.0949 16.3036C75.2597 16.3036 76.3041 16.5848 77.2279 17.1471C78.1719 17.7095 78.9049 18.4425 79.4271 19.3463V10.3689H83.4639V27.7212C83.4639 28.1429 83.5342 28.4442 83.6748 28.625C83.8154 28.8057 84.0564 28.9061 84.3978 28.9262V32.3605C83.6949 32.5011 83.1225 32.5714 82.6806 32.5714C81.9576 32.5714 81.3652 32.3906 80.9032 32.0291C80.4413 31.6676 80.1802 31.1957 80.12 30.6132L80.0296 29.6191C79.4472 30.6233 78.6539 31.3865 77.6497 31.9086C76.6656 32.4107 75.6313 32.6618 74.5467 32.6618ZM75.6011 29.2275C75.9827 29.2275 76.3744 29.1672 76.776 29.0467C77.1777 28.9061 77.5493 28.7153 77.8907 28.4743C78.2321 28.2333 78.5334 27.9522 78.7944 27.6308C79.0756 27.3095 79.2865 26.958 79.4271 26.5764V22.8107C79.2664 22.3689 79.0354 21.9672 78.7342 21.6057C78.453 21.2241 78.1216 20.9028 77.7401 20.6417C77.3785 20.3605 76.9869 20.1396 76.5652 19.9789C76.1635 19.8183 75.7618 19.7379 75.3601 19.7379C74.7576 19.7379 74.1953 19.8685 73.6731 20.1296C73.171 20.3906 72.7392 20.7522 72.3777 21.2141C72.0162 21.6559 71.735 22.1681 71.5342 22.7505C71.3334 23.3329 71.2329 23.9354 71.2329 24.558C71.2329 25.2208 71.3434 25.8333 71.5643 26.3957C71.7852 26.958 72.0865 27.4501 72.4681 27.8718C72.8497 28.2936 73.3016 28.625 73.8237 28.866C74.366 29.107 74.9585 29.2275 75.6011 29.2275Z" fill="black"/>
<path d="M105.05 26.8476C105.05 27.7513 104.869 28.5446 104.508 29.2275C104.146 29.9103 103.644 30.4827 103.001 30.9446C102.379 31.4065 101.646 31.758 100.802 31.999C99.9786 32.24 99.095 32.3605 98.151 32.3605H87.818V10.9714H99.2657C100.009 10.9714 100.682 11.1321 101.284 11.4534C101.887 11.7748 102.399 12.1965 102.82 12.7187C103.242 13.2208 103.564 13.8032 103.785 14.466C104.026 15.1086 104.146 15.7614 104.146 16.4241C104.146 17.4685 103.885 18.4526 103.363 19.3764C102.841 20.2802 102.077 20.953 101.073 21.3948C102.298 21.7563 103.262 22.4091 103.965 23.353C104.688 24.2768 105.05 25.4417 105.05 26.8476ZM100.862 26.0643C100.862 25.6827 100.792 25.3212 100.651 24.9798C100.531 24.6183 100.36 24.307 100.139 24.0459C99.9184 23.7848 99.6573 23.584 99.356 23.4434C99.0548 23.2827 98.7234 23.2024 98.3619 23.2024H91.9753V28.8358H98.151C98.5326 28.8358 98.8841 28.7655 99.2054 28.625C99.5468 28.4844 99.8381 28.2936 100.079 28.0526C100.32 27.7915 100.511 27.4902 100.651 27.1488C100.792 26.8074 100.862 26.4459 100.862 26.0643ZM91.9753 14.5262V19.9187H97.5184C98.2213 19.9187 98.8138 19.6777 99.2958 19.1957C99.7979 18.7137 100.049 18.0509 100.049 17.2074C100.049 16.384 99.818 15.7312 99.356 15.2492C98.9142 14.7672 98.3619 14.5262 97.6991 14.5262H91.9753Z" fill="black"/>
<path d="M115.193 32.6618C113.907 32.6618 112.752 32.4409 111.728 31.999C110.704 31.5572 109.83 30.9647 109.107 30.2216C108.404 29.4584 107.862 28.5848 107.481 27.6007C107.099 26.6166 106.908 25.5823 106.908 24.4978C106.908 23.3932 107.099 22.3488 107.481 21.3647C107.862 20.3806 108.404 19.517 109.107 18.7739C109.83 18.0107 110.704 17.4082 111.728 16.9664C112.752 16.5245 113.907 16.3036 115.193 16.3036C116.478 16.3036 117.623 16.5245 118.627 16.9664C119.651 17.4082 120.515 18.0107 121.218 18.7739C121.941 19.517 122.493 20.3806 122.875 21.3647C123.256 22.3488 123.447 23.3932 123.447 24.4978C123.447 25.5823 123.256 26.6166 122.875 27.6007C122.493 28.5848 121.951 29.4584 121.248 30.2216C120.545 30.9647 119.681 31.5572 118.657 31.999C117.633 32.4409 116.478 32.6618 115.193 32.6618ZM111.065 24.4978C111.065 25.2007 111.166 25.8434 111.367 26.4258C111.588 26.9881 111.879 27.4802 112.24 27.9019C112.622 28.3237 113.064 28.6551 113.566 28.8961C114.068 29.117 114.61 29.2275 115.193 29.2275C115.775 29.2275 116.317 29.117 116.819 28.8961C117.322 28.6551 117.753 28.3237 118.115 27.9019C118.496 27.4802 118.788 26.9781 118.988 26.3957C119.209 25.8132 119.32 25.1706 119.32 24.4676C119.32 23.7848 119.209 23.1522 118.988 22.5697C118.788 21.9873 118.496 21.4852 118.115 21.0635C117.753 20.6417 117.322 20.3204 116.819 20.0994C116.317 19.8584 115.775 19.7379 115.193 19.7379C114.61 19.7379 114.068 19.8584 113.566 20.0994C113.064 20.3404 112.622 20.6718 112.24 21.0936C111.879 21.5153 111.588 22.0174 111.367 22.5999C111.166 23.1823 111.065 23.8149 111.065 24.4978Z" fill="black"/>
<path d="M126.142 10.3689H130.178V27.2994C130.178 27.8819 130.319 28.3337 130.6 28.6551C130.881 28.9764 131.283 29.1371 131.805 29.1371C132.046 29.1371 132.307 29.0969 132.588 29.0166C132.89 28.9363 133.171 28.8358 133.432 28.7153L133.974 31.7881C133.432 32.0492 132.799 32.2501 132.076 32.3906C131.353 32.5312 130.701 32.6015 130.118 32.6015C128.853 32.6015 127.869 32.2701 127.166 31.6074C126.483 30.9245 126.142 29.9605 126.142 28.7153V10.3689Z" fill="black"/>
<path d="M145.192 31.5471C144.65 31.7881 143.987 32.0291 143.204 32.2701C142.421 32.5111 141.598 32.6316 140.734 32.6316C140.172 32.6316 139.639 32.5614 139.137 32.4208C138.655 32.2802 138.223 32.0593 137.842 31.758C137.48 31.4367 137.189 31.035 136.968 30.553C136.747 30.0509 136.637 29.4484 136.637 28.7455V19.6777H134.558V16.5748H136.637V11.4534H140.674V16.5748H143.987V19.6777H140.674V27.3898C140.674 27.9522 140.814 28.3538 141.095 28.5948C141.397 28.8158 141.758 28.9262 142.18 28.9262C142.602 28.9262 143.013 28.8559 143.415 28.7153C143.817 28.5747 144.138 28.4542 144.379 28.3538L145.192 31.5471Z" fill="black"/>
<path d="M81.8898 48.2276C81.2013 48.2276 80.5414 48.1128 79.9102 47.8833C79.279 47.6538 78.7281 47.3095 78.2576 46.8504L78.6879 46.2651C79.1699 46.7012 79.6692 47.0226 80.1856 47.2291C80.702 47.4357 81.2701 47.539 81.8898 47.539C82.6702 47.539 83.2957 47.3783 83.7662 47.057C84.2482 46.7242 84.4892 46.2651 84.4892 45.6798C84.4892 45.4044 84.4261 45.1749 84.2999 44.9912C84.1851 44.7961 84.0072 44.6355 83.7662 44.5092C83.5252 44.3715 83.2268 44.251 82.8711 44.1477C82.5153 44.0444 82.1022 43.9354 81.6316 43.8207C81.1267 43.7059 80.6848 43.5911 80.3061 43.4764C79.9389 43.3616 79.6347 43.2239 79.3937 43.0632C79.1527 42.9025 78.9691 42.7074 78.8429 42.4779C78.7281 42.2484 78.6707 41.9557 78.6707 41.6C78.6707 41.1524 78.7568 40.7622 78.9289 40.4294C79.1011 40.0966 79.3363 39.8211 79.6347 39.6031C79.9446 39.385 80.2946 39.2244 80.6848 39.1211C81.0865 39.0063 81.5111 38.9489 81.9587 38.9489C82.6588 38.9489 83.2785 39.0694 83.8179 39.3104C84.3573 39.54 84.7762 39.8383 85.0745 40.2056L84.5925 40.6704C84.2941 40.3261 83.9039 40.0679 83.4219 39.8957C82.9514 39.7236 82.4464 39.6375 81.9071 39.6375C81.5742 39.6375 81.2586 39.6719 80.9603 39.7408C80.6733 39.8097 80.4209 39.9187 80.2028 40.0679C79.9848 40.2171 79.8126 40.4122 79.6864 40.6532C79.5601 40.8827 79.497 41.1581 79.497 41.4795C79.497 41.7434 79.5372 41.9557 79.6175 42.1164C79.7093 42.2771 79.847 42.4148 80.0307 42.5296C80.2258 42.6443 80.4725 42.7476 80.7709 42.8394C81.0693 42.9198 81.4251 43.0116 81.8382 43.1149C82.4005 43.2526 82.8998 43.3845 83.3359 43.5108C83.772 43.637 84.1335 43.792 84.4204 43.9756C84.7188 44.1592 84.9426 44.3773 85.0918 44.6297C85.2524 44.8822 85.3328 45.2036 85.3328 45.5938C85.3328 46.3971 85.0172 47.0398 84.386 47.5218C83.7662 47.9923 82.9342 48.2276 81.8898 48.2276Z" fill="#7C7C7C"/>
<path d="M91.0901 48.2276C90.4589 48.2276 89.8736 48.1071 89.3342 47.8661C88.8063 47.6136 88.3472 47.275 87.957 46.8504C87.5668 46.4258 87.2627 45.9323 87.0447 45.37C86.8266 44.8076 86.7176 44.2166 86.7176 43.5969C86.7176 42.9657 86.8266 42.3689 87.0447 41.8065C87.2742 41.2442 87.5841 40.7507 87.9743 40.3261C88.3645 39.9015 88.8235 39.5687 89.3514 39.3276C89.8908 39.0752 90.4704 38.9489 91.0901 38.9489C91.7098 38.9489 92.2836 39.0752 92.8116 39.3276C93.3395 39.5687 93.7985 39.9015 94.1887 40.3261C94.5904 40.7507 94.9003 41.2442 95.1183 41.8065C95.3478 42.3689 95.4626 42.9657 95.4626 43.5969C95.4626 44.2166 95.3478 44.8076 95.1183 45.37C94.9003 45.9323 94.5961 46.4258 94.2059 46.8504C93.8157 47.275 93.3509 47.6136 92.8116 47.8661C92.2836 48.1071 91.7098 48.2276 91.0901 48.2276ZM87.5783 43.6313C87.5783 44.1592 87.6701 44.6584 87.8538 45.129C88.0374 45.588 88.2841 45.9897 88.594 46.334C88.9153 46.6783 89.2883 46.9537 89.7129 47.1603C90.1376 47.3554 90.5909 47.4529 91.0729 47.4529C91.5549 47.4529 92.0082 47.3554 92.4328 47.1603C92.8575 46.9537 93.2304 46.6725 93.5518 46.3168C93.8731 45.961 94.1256 45.5536 94.3092 45.0945C94.4928 44.624 94.5847 44.119 94.5847 43.5796C94.5847 43.0517 94.4928 42.5582 94.3092 42.0992C94.1256 41.6287 93.8731 41.2213 93.5518 40.877C93.2304 40.5212 92.8575 40.24 92.4328 40.0334C92.0197 39.8269 91.5721 39.7236 91.0901 39.7236C90.6081 39.7236 90.1548 39.8269 89.7301 40.0334C89.3055 40.24 88.9325 40.5212 88.6112 40.877C88.3013 41.2327 88.0489 41.6516 87.8538 42.1336C87.6701 42.6042 87.5783 43.1034 87.5783 43.6313Z" fill="#7C7C7C"/>
<path d="M97.7863 48.0554V39.8097H96.5296V39.1039H97.7863V38.8112C97.7863 37.7095 98.0101 36.8545 98.4577 36.2462C98.9052 35.6265 99.525 35.3167 100.317 35.3167C100.661 35.3167 100.994 35.3683 101.315 35.4716C101.637 35.5749 101.901 35.7126 102.107 35.8847L101.797 36.5045C101.637 36.3782 101.436 36.2749 101.195 36.1946C100.965 36.1143 100.724 36.0741 100.472 36.0741C99.8865 36.0741 99.4332 36.3094 99.1118 36.7799C98.802 37.2389 98.647 37.9103 98.647 38.794V39.1039H101.195V39.8097H98.647V48.0554H97.7863Z" fill="#7C7C7C"/>
<path d="M106.865 47.6251C106.819 47.648 106.738 47.6939 106.624 47.7628C106.52 47.8202 106.383 47.8776 106.21 47.9349C106.05 47.9923 105.866 48.044 105.66 48.0899C105.453 48.1358 105.229 48.1587 104.988 48.1587C104.747 48.1587 104.518 48.1243 104.3 48.0554C104.093 47.9866 103.909 47.8833 103.749 47.7456C103.588 47.6079 103.462 47.4415 103.37 47.2464C103.278 47.0513 103.232 46.8217 103.232 46.5578V39.8097H101.976V39.1039H103.232V36.0397H104.093V39.1039H106.176V39.8097H104.093V46.3512C104.093 46.684 104.208 46.9365 104.437 47.1086C104.667 47.2693 104.925 47.3496 105.212 47.3496C105.568 47.3496 105.872 47.2923 106.124 47.1775C106.388 47.0513 106.549 46.9709 106.606 46.9365L106.865 47.6251Z" fill="#7C7C7C"/>
<path d="M119.729 39.1039H120.59L116.717 48.0554H115.994L113.98 43.3214L111.965 48.0554H111.242L107.369 39.1039H108.213L111.638 47.1086L113.515 42.7017L112 39.1211H112.74L113.98 42.082L115.202 39.1211H115.959L114.444 42.7017L116.321 47.1086L119.729 39.1039Z" fill="#7C7C7C"/>
<path d="M124.239 48.2276C123.826 48.2276 123.441 48.1587 123.086 48.021C122.73 47.8718 122.414 47.6767 122.139 47.4357C121.875 47.1832 121.668 46.8906 121.519 46.5578C121.37 46.2135 121.295 45.8462 121.295 45.456C121.295 45.0658 121.387 44.7101 121.571 44.3887C121.754 44.0674 122.007 43.792 122.328 43.5624C122.661 43.3214 123.057 43.1378 123.516 43.0116C123.975 42.8738 124.48 42.805 125.031 42.805C125.513 42.805 125.995 42.8509 126.477 42.9427C126.97 43.023 127.412 43.1378 127.802 43.287V42.4091C127.802 41.5598 127.561 40.8884 127.079 40.395C126.597 39.89 125.943 39.6375 125.117 39.6375C124.681 39.6375 124.216 39.7293 123.722 39.9129C123.24 40.0966 122.747 40.3605 122.242 40.7048L121.915 40.1195C123.063 39.3391 124.153 38.9489 125.186 38.9489C126.264 38.9489 127.114 39.2645 127.733 39.8957C128.353 40.5155 128.663 41.3762 128.663 42.4779V46.8504C128.663 47.1373 128.789 47.2808 129.042 47.2808V48.0554C128.984 48.0669 128.921 48.0727 128.852 48.0727C128.795 48.0841 128.743 48.0899 128.697 48.0899C128.468 48.0899 128.284 48.0153 128.147 47.8661C128.009 47.7054 127.929 47.516 127.906 47.298V46.5578C127.492 47.0972 126.965 47.5103 126.322 47.7972C125.679 48.0841 124.985 48.2276 124.239 48.2276ZM124.411 47.539C125.077 47.539 125.685 47.4128 126.236 47.1603C126.798 46.9078 127.229 46.575 127.527 46.1618C127.711 45.9208 127.802 45.6913 127.802 45.4733V43.8895C127.389 43.7288 126.959 43.6083 126.511 43.528C126.064 43.4477 125.599 43.4075 125.117 43.4075C124.669 43.4075 124.262 43.4591 123.895 43.5624C123.527 43.6542 123.212 43.7862 122.948 43.9584C122.684 44.1305 122.477 44.3428 122.328 44.5953C122.19 44.8363 122.122 45.106 122.122 45.4044C122.122 45.7028 122.179 45.9839 122.294 46.2479C122.408 46.5119 122.569 46.7414 122.776 46.9365C122.982 47.1201 123.223 47.2693 123.499 47.3841C123.786 47.4874 124.09 47.539 124.411 47.539Z" fill="#7C7C7C"/>
<path d="M135.516 39.8785C134.713 39.9015 134.007 40.1425 133.399 40.6015C132.802 41.0491 132.383 41.6688 132.142 42.4607V48.0554H131.282V39.1039H132.108V41.3073C132.418 40.6761 132.825 40.1654 133.33 39.7752C133.847 39.3736 134.397 39.144 134.983 39.0866C135.097 39.0752 135.201 39.0694 135.293 39.0694C135.384 39.0694 135.459 39.0694 135.516 39.0694V39.8785Z" fill="#7C7C7C"/>
<path d="M140.499 48.2276C139.868 48.2276 139.283 48.1071 138.743 47.8661C138.204 47.6136 137.733 47.275 137.332 46.8504C136.941 46.4143 136.632 45.9151 136.402 45.3527C136.184 44.7904 136.075 44.1879 136.075 43.5452C136.075 42.914 136.184 42.323 136.402 41.7721C136.632 41.2098 136.941 40.722 137.332 40.3089C137.722 39.8843 138.181 39.5514 138.709 39.3104C139.248 39.0694 139.828 38.9489 140.448 38.9489C141.079 38.9489 141.664 39.0752 142.203 39.3276C142.743 39.5687 143.208 39.9015 143.598 40.3261C143.988 40.7392 144.292 41.227 144.51 41.7893C144.728 42.3402 144.837 42.9255 144.837 43.5452C144.837 43.6026 144.837 43.6772 144.837 43.769C144.837 43.8493 144.831 43.901 144.82 43.9239H136.97C137.005 44.4404 137.125 44.9224 137.332 45.37C137.538 45.8061 137.796 46.1848 138.106 46.5061C138.428 46.8275 138.795 47.0799 139.208 47.2636C139.621 47.4472 140.063 47.539 140.534 47.539C140.843 47.539 141.148 47.4988 141.446 47.4185C141.744 47.3267 142.02 47.2062 142.272 47.057C142.536 46.9078 142.766 46.7299 142.961 46.5233C143.167 46.3053 143.328 46.07 143.443 45.8175L144.2 46.0241C144.074 46.3455 143.885 46.6438 143.632 46.9193C143.391 47.1832 143.104 47.4128 142.771 47.6079C142.45 47.803 142.094 47.9521 141.704 48.0554C141.314 48.1702 140.912 48.2276 140.499 48.2276ZM144.011 43.2354C143.977 42.7074 143.856 42.2254 143.649 41.7893C143.454 41.3532 143.196 40.9802 142.875 40.6704C142.565 40.349 142.203 40.1023 141.79 39.9302C141.377 39.7465 140.935 39.6547 140.465 39.6547C139.994 39.6547 139.552 39.7465 139.139 39.9302C138.726 40.1023 138.359 40.349 138.037 40.6704C137.728 40.9802 137.475 41.359 137.28 41.8065C137.096 42.2426 136.987 42.7189 136.953 43.2354H144.011Z" fill="#7C7C7C"/>
</svg>
