<svg id="Layer_1" data-name="Layer 1" xmlns="http://www.w3.org/2000/svg" viewBox="0 0 76.2 85.8"><defs><style>.cls-1{fill:#fff;}</style></defs><g id="Logo-1"><circle class="cls-1" cx="33.5" cy="4.7" r="4.7"/><circle class="cls-1" cx="71.5" cy="15.7" r="4.7"/><circle class="cls-1" cx="22.5" cy="40.7" r="4.7"/><circle class="cls-1" cx="58.5" cy="51.7" r="4.7"/><path class="cls-1" d="M49.6,43.5A14.5,14.5,0,1,0,36.7,22.4l-8.9-2.7A12.11,12.11,0,0,0,15.7,8.1,11.81,11.81,0,0,0,3.5,20,12.08,12.08,0,0,0,15.6,32.1a12.22,12.22,0,0,0,10.5-6L35,28.9h0a14.32,14.32,0,0,0,7.5,12.7L38.8,55c-.4,0-.7-.1-1.1-.1a16.88,16.88,0,1,0,7.8,1.9l3.7-13.5C49.3,43.5,49.4,43.5,49.6,43.5ZM15.7,25.7A5.7,5.7,0,1,1,21.4,20,5.76,5.76,0,0,1,15.7,25.7Zm22,56.8A10.5,10.5,0,1,1,48.2,72,10.63,10.63,0,0,1,37.7,82.5ZM49.6,20.8A8.2,8.2,0,1,1,41.3,29,8.26,8.26,0,0,1,49.6,20.8Z" transform="translate(-3.5 -2.9)"/></g></svg>