<svg id="Layer_1" data-name="Layer 1" xmlns="http://www.w3.org/2000/svg" viewBox="0 0 230.45 56.12"><defs><style>.cls-1{fill:#414242;}.cls-2{fill:#a6cd39;}.cls-3{fill:#1975b8;}.cls-4{fill:#414142;}</style></defs><path class="cls-1" d="M53.9,39.85c.06-.59.13-1.19.16-1.78A28.2,28.2,0,0,0,57,37a19.8,19.8,0,0,0-.59-4.33,25.94,25.94,0,0,0-3.14-.23,14,14,0,0,0-.64-1.67c-.23-.56-.55-1.06-.82-1.59a27.71,27.71,0,0,0,1.87-2.51,20.23,20.23,0,0,0-2.82-3.31,27.13,27.13,0,0,0-2.77,1.5,14.71,14.71,0,0,0-1.44-1,15.91,15.91,0,0,0-1.55-.89,25.06,25.06,0,0,0,.22-3.13,18,18,0,0,0-4.17-1.23,25.31,25.31,0,0,0-1.52,2.75,15,15,0,0,0-1.77-.1,11.86,11.86,0,0,0-1.79.09,25.46,25.46,0,0,0-1.5-2.76,19.75,19.75,0,0,0-4.19,1.23,24.93,24.93,0,0,0,.21,3.13,14.81,14.81,0,0,0-1.55.89,13.64,13.64,0,0,0-1.45,1,28,28,0,0,0-2.75-1.51A19.15,19.15,0,0,0,22,26.59a27.69,27.69,0,0,0,1.85,2.52c-.28.53-.59,1-.83,1.59a16.1,16.1,0,0,0-.66,1.67,27.93,27.93,0,0,0-3.13.22,19.68,19.68,0,0,0-.63,4.31A28.29,28.29,0,0,0,21.5,38a13.51,13.51,0,0,0,.15,1.79c.07.59.22,1.17.33,1.76a29.15,29.15,0,0,0-2.5,1.88,19.78,19.78,0,0,0,1.79,4,25.92,25.92,0,0,0,3.08-.67,12.35,12.35,0,0,0,1.08,1.42c.37.47.82.86,1.23,1.29a26.5,26.5,0,0,0-1.1,2.94,19.32,19.32,0,0,0,3.66,2.38,27.6,27.6,0,0,0,2.23-2.23,11.61,11.61,0,0,0,1.68.6,11.57,11.57,0,0,0,1.74.41,26.74,26.74,0,0,0,.65,3.08,18.7,18.7,0,0,0,4.36,0,26.55,26.55,0,0,0,.69-3.06,15.14,15.14,0,0,0,1.74-.41,14,14,0,0,0,1.68-.6,27.47,27.47,0,0,0,2.22,2.23,20.06,20.06,0,0,0,3.66-2.36A25.65,25.65,0,0,0,48.8,49.5,16.75,16.75,0,0,0,50,48.21a14.84,14.84,0,0,0,1.1-1.41,29.43,29.43,0,0,0,3.08.67,20.11,20.11,0,0,0,1.81-4,27.22,27.22,0,0,0-2.49-1.89c.14-.58.24-1.17.36-1.75M40.38,46.52a9.39,9.39,0,0,1-9.71-2.88,9.42,9.42,0,0,1-2.18-4.81,9.4,9.4,0,0,1,4.25-9.24,9.38,9.38,0,0,1,10.13,0,9.4,9.4,0,0,1,3.45,4,9.42,9.42,0,0,1-5.94,12.91" transform="translate(-9.77 -9.44)"/><path class="cls-2" d="M57.58,21.33a21.34,21.34,0,0,1,5.69,13.6h6.67A28,28,0,0,0,62.3,16.61Z" transform="translate(-9.77 -9.44)"/><path class="cls-3" d="M23.34,21.74a21.35,21.35,0,0,1,13.54-5.63V9.44A27.93,27.93,0,0,0,18.62,17Z" transform="translate(-9.77 -9.44)"/><path class="cls-3" d="M21.94,51.85a21.37,21.37,0,0,1-5.5-13.4H9.77a28,28,0,0,0,7.46,18.12Z" transform="translate(-9.77 -9.44)"/><path class="cls-3" d="M38.79,9.44v6.67a21.28,21.28,0,0,1,13.4,5.5l4.71-4.72A28,28,0,0,0,38.79,9.44" transform="translate(-9.77 -9.44)"/><path class="cls-3" d="M16.44,36.55A21.3,21.3,0,0,1,22,23.09l-4.72-4.72A28,28,0,0,0,9.77,36.55Z" transform="translate(-9.77 -9.44)"/><path class="cls-3" d="M36.88,58.89a21.29,21.29,0,0,1-13.6-5.69l-4.72,4.72a28,28,0,0,0,18.32,7.64Z" transform="translate(-9.77 -9.44)"/><path class="cls-3" d="M59.23,38.45A21.36,21.36,0,0,1,53.59,52l4.72,4.71A28,28,0,0,0,65.9,38.45Z" transform="translate(-9.77 -9.44)"/><path class="cls-3" d="M52.25,53.34a21.39,21.39,0,0,1-13.46,5.55v6.67A27.94,27.94,0,0,0,57,58.05Z" transform="translate(-9.77 -9.44)"/><path class="cls-4" d="M92.74,52.12a12,12,0,0,1-5.51-1.26A14.06,14.06,0,0,1,83,47.56a14.88,14.88,0,0,1-2.78-4.7,15.55,15.55,0,0,1-1-5.42,15.15,15.15,0,0,1,1-5.55,15.62,15.62,0,0,1,2.86-4.69A13.59,13.59,0,0,1,87.39,24a12.13,12.13,0,0,1,5.39-1.21A12,12,0,0,1,98.31,24a13.85,13.85,0,0,1,4.28,3.36,15.56,15.56,0,0,1,2.75,4.72A15.24,15.24,0,0,1,105.28,43a15.18,15.18,0,0,1-2.85,4.67,13.88,13.88,0,0,1-4.31,3.22A12.22,12.22,0,0,1,92.74,52.12ZM81.28,37.44a13.83,13.83,0,0,0,.83,4.79,12.93,12.93,0,0,0,2.37,4.08,11.68,11.68,0,0,0,3.65,2.84,10.32,10.32,0,0,0,4.65,1.06,10,10,0,0,0,4.71-1.1,11.57,11.57,0,0,0,3.59-2.92,14.06,14.06,0,0,0,3.12-8.75,13.5,13.5,0,0,0-.86-4.8A13.22,13.22,0,0,0,101,28.57a11.84,11.84,0,0,0-3.61-2.84,9.89,9.89,0,0,0-4.57-1.06,10.15,10.15,0,0,0-4.73,1.1,11.61,11.61,0,0,0-3.63,2.92,13.3,13.3,0,0,0-2.33,4.1A13.8,13.8,0,0,0,81.28,37.44Z" transform="translate(-9.77 -9.44)"/><path class="cls-4" d="M112.81,31.86l.24,20.27-1.69,0-.27-23.44,1.28,0,16.69,20.45-.24-20.64,1.68,0,.28,23.44-1.55,0Z" transform="translate(-9.77 -9.44)"/><path class="cls-4" d="M152.49,50.15l0,1.52-15.62.18-.28-23.44,15.32-.19,0,1.52-13.64.16.11,9.22L150.34,39l0,1.45-11.92.14.12,9.74Z" transform="translate(-9.77 -9.44)"/><path class="cls-4" d="M157.58,51.92V23h18.85v1.87H159.66V36.34H173.9v1.79H159.66V51.92Z" transform="translate(-9.77 -9.44)"/><path class="cls-4" d="M189.08,50.53a7.81,7.81,0,0,0,3.94-.89,6.81,6.81,0,0,0,2.48-2.34A10.21,10.21,0,0,0,196.79,44a18.66,18.66,0,0,0,.38-3.73V28.47h1.68V40.26a19.31,19.31,0,0,1-.51,4.49,10.79,10.79,0,0,1-1.67,3.79,8.38,8.38,0,0,1-3,2.59,11.46,11.46,0,0,1-9.25-.05,8.25,8.25,0,0,1-3-2.68,10.88,10.88,0,0,1-1.62-3.78,19.62,19.62,0,0,1-.48-4.36V28.47H181V40.26a19.06,19.06,0,0,0,.37,3.8,9.53,9.53,0,0,0,1.33,3.29,7.1,7.1,0,0,0,2.49,2.31A7.87,7.87,0,0,0,189.08,50.53Z" transform="translate(-9.77 -9.44)"/><path class="cls-4" d="M218.27,32.37a8.22,8.22,0,0,0-6.44-2.54q-3.44,0-5,1.3a4.33,4.33,0,0,0-1.57,3.52,4,4,0,0,0,.39,1.87,3.57,3.57,0,0,0,1.24,1.27,8.17,8.17,0,0,0,2.13.89c.86.24,1.89.49,3.11.76s2.39.55,3.41.87a9.58,9.58,0,0,1,2.61,1.21,5,5,0,0,1,1.65,1.78,5.33,5.33,0,0,1,.58,2.61,5.7,5.7,0,0,1-.61,2.71,5.48,5.48,0,0,1-1.72,1.93,7.88,7.88,0,0,1-2.64,1.17,13.38,13.38,0,0,1-3.42.4,13.23,13.23,0,0,1-9.28-3.5l.9-1.36a10.6,10.6,0,0,0,3.63,2.46,12.18,12.18,0,0,0,4.82.91,8.74,8.74,0,0,0,4.8-1.12,3.77,3.77,0,0,0,1.74-3.4,4,4,0,0,0-.46-2,4.24,4.24,0,0,0-1.37-1.4,8.81,8.81,0,0,0-2.3-1c-.92-.29-2-.57-3.24-.83s-2.36-.54-3.32-.84a9,9,0,0,1-2.41-1.12A4.67,4.67,0,0,1,204,37.29a5.22,5.22,0,0,1-.49-2.41,6.18,6.18,0,0,1,.61-2.81,6,6,0,0,1,1.7-2.06,7.57,7.57,0,0,1,2.61-1.27,12.23,12.23,0,0,1,3.37-.43,11.19,11.19,0,0,1,4.06.68,9.49,9.49,0,0,1,3.24,2.06Z" transform="translate(-9.77 -9.44)"/><path class="cls-4" d="M240.23,50.4v1.52H224.61V28.47h15.32V30H226.29v9.22h11.92v1.45H226.29V50.4Z" transform="translate(-9.77 -9.44)"/></svg>
